M48
INCH,TZ
T1C0.024
T2C0.028
T3C0.031
T4C0.039
T5C0.039
T6C0.040
%
G90
G05
T1
X33250Y-27750
X34500Y-52250
X46750Y-52250
X51750Y-27750
T2
X44000Y-33751
X44000Y-42501
X44000Y-51251
X46000Y-28501
X46000Y-37251
X46000Y-46001
X48000Y-33751
X48000Y-42501
X48000Y-51251
X50000Y-28501
X50000Y-37251
X50000Y-46001
T3
X37000Y-29750
X37000Y-32750
X37000Y-38500
X37000Y-41500
X37000Y-47250
X37000Y-50250
X38000Y-29750
X38000Y-32750
X38000Y-38500
X38000Y-41500
X38000Y-47250
X38000Y-50250
X39000Y-27500
X39000Y-28287
X39000Y-29750
X39000Y-32750
X39000Y-34600
X39000Y-36250
X39000Y-37037
X39000Y-38500
X39000Y-41500
X39000Y-43300
X39000Y-45000
X39000Y-45787
X39000Y-47250
X39000Y-50250
X39000Y-52000
X40000Y-29750
X40000Y-32750
X40000Y-34600
X40000Y-38500
X40000Y-41500
X40000Y-43300
X40000Y-47250
X40000Y-50250
X40000Y-52000
X41000Y-27900
X41000Y-29750
X41000Y-32750
X41000Y-38500
X41000Y-41500
X41000Y-47250
X41000Y-50250
X42000Y-27900
X42000Y-29750
X42000Y-32750
X42000Y-34213
X42000Y-35000
X42000Y-38500
X42000Y-41500
X42000Y-42963
X42000Y-43750
X42000Y-47250
X42000Y-50250
X42000Y-51713
X42000Y-52500
X43000Y-29750
X43000Y-32750
X43000Y-38500
X43000Y-41500
X43000Y-47250
X43000Y-50250
X44000Y-29750
X44000Y-32750
X44000Y-38500
X44000Y-41500
X44000Y-47250
X44000Y-50250
T4
X33000Y-39500
X33000Y-40500
X33000Y-41500
X33000Y-42500
X33000Y-43500
X33000Y-44500
X33000Y-46500
X33000Y-47500
X33000Y-48500
X33000Y-49500
X33000Y-50500
X33000Y-51500
X35000Y-29700
X35000Y-30700
X35000Y-31700
X35000Y-32700
X35000Y-38500
X35000Y-39500
X35000Y-40500
X35000Y-41500
X35000Y-47250
X35000Y-48250
X35000Y-49250
X35000Y-50250
X46000Y-29750
X46000Y-30750
X46000Y-31750
X46000Y-32750
X46000Y-38500
X46000Y-39500
X46000Y-40500
X46000Y-41500
X46000Y-47200
X46000Y-48200
X46000Y-49200
X46000Y-50200
X52000Y-35900
X52000Y-36900
X52000Y-37900
X52000Y-38900
X52000Y-39900
X52000Y-40900
X52000Y-41900
X52000Y-42900
X52000Y-44500
X52000Y-45500
X52000Y-46500
X52000Y-47500
X52000Y-48500
X52000Y-49500
X52000Y-50500
X52000Y-51500
T5
X41000Y-36600
X41000Y-45400
X42000Y-36600
X42000Y-45400
T6
X33000Y-34200
X33000Y-35600
X33000Y-37000
X34000Y-34200
X34000Y-35600
X34000Y-37000
X35000Y-34200
X35000Y-35600
X35000Y-37000
T0
M30
