G04 #@! TF.FileFunction,Copper,L2,Bot,Signal*
%FSLAX46Y46*%
G04 Gerber Fmt 4.6, Leading zero omitted, Abs format (unit mm)*
G04 Created by KiCad (PCBNEW 4.0.2+e4-6225~38~ubuntu16.04.1-stable) date Mo 27 Jun 2016 13:05:28 CEST*
%MOMM*%
G01*
G04 APERTURE LIST*
%ADD10C,0.100000*%
%ADD11O,2.540000X1.524000*%
%ADD12C,2.000000*%
%ADD13R,1.700000X1.700000*%
%ADD14C,1.700000*%
%ADD15C,1.699260*%
%ADD16R,1.699260X1.699260*%
%ADD17R,2.000000X2.000000*%
%ADD18O,1.600000X2.300000*%
%ADD19R,2.032000X1.727200*%
%ADD20O,2.032000X1.727200*%
%ADD21R,1.500000X1.300000*%
%ADD22R,1.727200X2.032000*%
%ADD23O,1.727200X2.032000*%
%ADD24C,0.400000*%
%ADD25C,0.300000*%
G04 APERTURE END LIST*
D10*
D11*
X83820000Y-130810000D03*
X83820000Y-128270000D03*
X83820000Y-125730000D03*
X83820000Y-118110000D03*
X83820000Y-120650000D03*
X83820000Y-123190000D03*
X83820000Y-113030000D03*
X83820000Y-110490000D03*
X83820000Y-107950000D03*
X83820000Y-102870000D03*
X83820000Y-100330000D03*
X132080000Y-130810000D03*
X132080000Y-128270000D03*
X132080000Y-125730000D03*
X132080000Y-123190000D03*
X132080000Y-120650000D03*
X132080000Y-118110000D03*
X132080000Y-115570000D03*
X132080000Y-113030000D03*
X132080000Y-108966000D03*
X132080000Y-106426000D03*
X132080000Y-103886000D03*
X132080000Y-101346000D03*
X132080000Y-98806000D03*
X132080000Y-96266000D03*
X132080000Y-93726000D03*
X132080000Y-91186000D03*
X83820000Y-105410000D03*
D12*
X131445000Y-70485000D03*
X118745000Y-132715000D03*
X84455000Y-70485000D03*
X87630000Y-132715000D03*
D13*
X99060000Y-114300000D03*
D14*
X99060000Y-116300000D03*
D13*
X99060000Y-92075000D03*
D14*
X99060000Y-94075000D03*
D13*
X106680000Y-133350000D03*
D14*
X106680000Y-131350000D03*
D13*
X106680000Y-111125000D03*
D14*
X106680000Y-109125000D03*
D13*
X99060000Y-69850000D03*
D14*
X99060000Y-71850000D03*
D13*
X106680000Y-88900000D03*
D14*
X106680000Y-86900000D03*
D15*
X111759480Y-130177540D03*
D16*
X121919480Y-130177540D03*
D15*
X111759480Y-107952540D03*
D16*
X121919480Y-107952540D03*
D15*
X111759480Y-85727540D03*
D16*
X121919480Y-85727540D03*
D15*
X116839480Y-116842540D03*
D16*
X126999480Y-116842540D03*
D15*
X116839480Y-94617540D03*
D16*
X126999480Y-94617540D03*
D15*
X116839480Y-72392540D03*
D16*
X126999480Y-72392540D03*
D17*
X101600000Y-132080000D03*
D12*
X99060000Y-132080000D03*
D17*
X101600000Y-109982000D03*
D12*
X99060000Y-109982000D03*
D17*
X101600000Y-87884000D03*
D12*
X99060000Y-87884000D03*
D17*
X104140000Y-70866000D03*
D12*
X106680000Y-70866000D03*
D18*
X93980000Y-127635000D03*
X96520000Y-127635000D03*
X99060000Y-127635000D03*
X101600000Y-127635000D03*
X104140000Y-127635000D03*
X106680000Y-127635000D03*
X109220000Y-127635000D03*
X111760000Y-127635000D03*
X111760000Y-120015000D03*
X109220000Y-120015000D03*
X106680000Y-120015000D03*
X104140000Y-120015000D03*
X101600000Y-120015000D03*
X99060000Y-120015000D03*
X96520000Y-120015000D03*
X93980000Y-120015000D03*
X93980000Y-105410000D03*
X96520000Y-105410000D03*
X99060000Y-105410000D03*
X101600000Y-105410000D03*
X104140000Y-105410000D03*
X106680000Y-105410000D03*
X109220000Y-105410000D03*
X111760000Y-105410000D03*
X111760000Y-97790000D03*
X109220000Y-97790000D03*
X106680000Y-97790000D03*
X104140000Y-97790000D03*
X101600000Y-97790000D03*
X99060000Y-97790000D03*
X96520000Y-97790000D03*
X93980000Y-97790000D03*
X93980000Y-83185000D03*
X96520000Y-83185000D03*
X99060000Y-83185000D03*
X101600000Y-83185000D03*
X104140000Y-83185000D03*
X106680000Y-83185000D03*
X109220000Y-83185000D03*
X111760000Y-83185000D03*
X111760000Y-75565000D03*
X109220000Y-75565000D03*
X106680000Y-75565000D03*
X104140000Y-75565000D03*
X101600000Y-75565000D03*
X99060000Y-75565000D03*
X96520000Y-75565000D03*
X93980000Y-75565000D03*
D19*
X88900000Y-120015000D03*
D20*
X88900000Y-122555000D03*
X88900000Y-125095000D03*
X88900000Y-127635000D03*
D19*
X88900000Y-97790000D03*
D20*
X88900000Y-100330000D03*
X88900000Y-102870000D03*
X88900000Y-105410000D03*
D19*
X88900000Y-75438000D03*
D20*
X88900000Y-77978000D03*
X88900000Y-80518000D03*
X88900000Y-83058000D03*
D19*
X116840000Y-119888000D03*
D20*
X116840000Y-122428000D03*
X116840000Y-124968000D03*
X116840000Y-127508000D03*
D19*
X116840000Y-97790000D03*
D20*
X116840000Y-100330000D03*
X116840000Y-102870000D03*
X116840000Y-105410000D03*
D19*
X116840000Y-75565000D03*
D20*
X116840000Y-78105000D03*
X116840000Y-80645000D03*
X116840000Y-83185000D03*
D21*
X124540000Y-125730000D03*
X121840000Y-125730000D03*
D17*
X104140000Y-115316000D03*
D12*
X106680000Y-115316000D03*
D17*
X104140000Y-92964000D03*
D12*
X106680000Y-92964000D03*
D21*
X96600000Y-101600000D03*
X93900000Y-101600000D03*
X96600000Y-79375000D03*
X93900000Y-79375000D03*
X96600000Y-123825000D03*
X93900000Y-123825000D03*
X109140000Y-123825000D03*
X111840000Y-123825000D03*
X109140000Y-101600000D03*
X111840000Y-101600000D03*
X109140000Y-79375000D03*
X111840000Y-79375000D03*
D22*
X83820000Y-86868000D03*
D23*
X86360000Y-86868000D03*
X88900000Y-86868000D03*
D22*
X83820000Y-90424000D03*
D23*
X86360000Y-90424000D03*
X88900000Y-90424000D03*
D22*
X83820000Y-93980000D03*
D23*
X86360000Y-93980000D03*
X88900000Y-93980000D03*
D24*
X96600000Y-127555000D02*
X96520000Y-127635000D01*
X96600000Y-123825000D02*
X96600000Y-127555000D01*
X111759000Y-130178000D02*
X111759000Y-130176000D01*
X98425000Y-129540000D02*
X96520000Y-127635000D01*
X111125000Y-129540000D02*
X98425000Y-129540000D01*
X111759000Y-130174000D02*
X111125000Y-129540000D01*
X111759000Y-130176000D02*
X111759000Y-130174000D01*
X111759500Y-130176500D02*
X111759500Y-130177500D01*
X111759000Y-130176000D02*
X111759500Y-130176500D01*
X124540000Y-125730000D02*
X132080000Y-125730000D01*
X96520000Y-101680000D02*
X96600000Y-101600000D01*
X96520000Y-105410000D02*
X96520000Y-101680000D01*
X98425000Y-107315000D02*
X96520000Y-105410000D01*
X110490000Y-107315000D02*
X98425000Y-107315000D01*
X111128000Y-107953000D02*
X110490000Y-107315000D01*
X111759000Y-107953000D02*
X111128000Y-107953000D01*
X111759000Y-107953000D02*
X111759500Y-107952500D01*
X96520000Y-79455000D02*
X96600000Y-79375000D01*
X96520000Y-83185000D02*
X96520000Y-79455000D01*
X98425000Y-85090000D02*
X96520000Y-83185000D01*
X110490000Y-85090000D02*
X98425000Y-85090000D01*
X111128000Y-85727500D02*
X110490000Y-85090000D01*
X111759000Y-85727500D02*
X111128000Y-85727500D01*
X111759000Y-85727500D02*
X111759500Y-85727500D01*
X109140000Y-120095000D02*
X109220000Y-120015000D01*
X109140000Y-123825000D02*
X109140000Y-120095000D01*
X114808000Y-122428000D02*
X116840000Y-122428000D01*
X114300000Y-121920000D02*
X114808000Y-122428000D01*
X114300000Y-116845000D02*
X114300000Y-121920000D01*
X114303000Y-116843000D02*
X114300000Y-116845000D01*
X116839000Y-116843000D02*
X114303000Y-116843000D01*
X116839000Y-116843000D02*
X116839500Y-116842500D01*
X109140000Y-97870000D02*
X109220000Y-97790000D01*
X109140000Y-101600000D02*
X109140000Y-97870000D01*
X114300000Y-100330000D02*
X116840000Y-100330000D01*
X114300000Y-94620100D02*
X114300000Y-100330000D01*
X114303000Y-94617500D02*
X114300000Y-94620100D01*
X116839000Y-94617500D02*
X114303000Y-94617500D01*
X116839000Y-94617500D02*
X116839500Y-94617500D01*
X109140000Y-75645000D02*
X109220000Y-75565000D01*
X109140000Y-79375000D02*
X109140000Y-75645000D01*
X114300000Y-78105000D02*
X116840000Y-78105000D01*
X114300000Y-72395100D02*
X114300000Y-78105000D01*
X114303000Y-72392500D02*
X114300000Y-72395100D01*
X116839000Y-72392500D02*
X114303000Y-72392500D01*
X116839000Y-72392500D02*
X116839500Y-72392500D01*
X125583700Y-101600000D02*
X130409700Y-106426000D01*
X114671500Y-101600000D02*
X125583700Y-101600000D01*
X113405400Y-100333900D02*
X114671500Y-101600000D01*
X113405400Y-97320700D02*
X113405400Y-100333900D01*
X112289600Y-96204900D02*
X113405400Y-97320700D01*
X108715200Y-96204900D02*
X112289600Y-96204900D01*
X107880300Y-97039800D02*
X108715200Y-96204900D01*
X107880300Y-97790000D02*
X107880300Y-97039800D01*
X106680000Y-97790000D02*
X107880300Y-97790000D01*
X132080000Y-106426000D02*
X130409700Y-106426000D01*
X129901700Y-123698000D02*
X130409700Y-123190000D01*
X114495300Y-123698000D02*
X129901700Y-123698000D01*
X113317900Y-124875400D02*
X114495300Y-123698000D01*
X106910500Y-124875400D02*
X113317900Y-124875400D01*
X102800300Y-120765200D02*
X106910500Y-124875400D01*
X102800300Y-120015000D02*
X102800300Y-120765200D01*
X101600000Y-120015000D02*
X102800300Y-120015000D01*
X132080000Y-123190000D02*
X130409700Y-123190000D01*
X120142000Y-127508000D02*
X116840000Y-127508000D01*
X121840000Y-125810000D02*
X120142000Y-127508000D01*
X121840000Y-125730000D02*
X121840000Y-125810000D01*
X91440000Y-105410000D02*
X91440000Y-115570000D01*
X91440000Y-115570000D02*
X91440000Y-127635000D01*
X91440000Y-105410000D02*
X91440000Y-83185000D01*
X93980000Y-101680000D02*
X93900000Y-101600000D01*
X93980000Y-105410000D02*
X93980000Y-101680000D01*
X93980000Y-79455000D02*
X93900000Y-79375000D01*
X93980000Y-83185000D02*
X93980000Y-79455000D01*
X93980000Y-127635000D02*
X91440000Y-127635000D01*
X91440000Y-127635000D02*
X88900000Y-127635000D01*
X93980000Y-105410000D02*
X91440000Y-105410000D01*
X91440000Y-105410000D02*
X88900000Y-105410000D01*
X93980000Y-83185000D02*
X91440000Y-83185000D01*
X89027000Y-83185000D02*
X88900000Y-83058000D01*
X91440000Y-83185000D02*
X89027000Y-83185000D01*
X111840000Y-97870000D02*
X111760000Y-97790000D01*
X111840000Y-101600000D02*
X111840000Y-97870000D01*
X93900000Y-127555000D02*
X93980000Y-127635000D01*
X93900000Y-123825000D02*
X93900000Y-127555000D01*
X112890300Y-102650300D02*
X111840000Y-102650300D01*
X114386100Y-104146100D02*
X112890300Y-102650300D01*
X116840000Y-104146100D02*
X114386100Y-104146100D01*
X116840000Y-105410000D02*
X116840000Y-104146100D01*
X111840000Y-120095000D02*
X111760000Y-120015000D01*
X111840000Y-123825000D02*
X111840000Y-120095000D01*
X111840000Y-101600000D02*
X111840000Y-102650300D01*
X132080000Y-93726000D02*
X130409700Y-93726000D01*
X129928200Y-93244500D02*
X130409700Y-93726000D01*
X125635600Y-93244500D02*
X129928200Y-93244500D01*
X116840000Y-84448900D02*
X125635600Y-93244500D01*
X116840000Y-83185000D02*
X116840000Y-84448900D01*
X111840000Y-79375000D02*
X111840000Y-78890000D01*
X111840000Y-75645000D02*
X111760000Y-75565000D01*
X111840000Y-78890000D02*
X111840000Y-75645000D01*
X115423700Y-82473700D02*
X115423700Y-83185000D01*
X111840000Y-78890000D02*
X115423700Y-82473700D01*
X116840000Y-83185000D02*
X115423700Y-83185000D01*
X101600000Y-97790000D02*
X101600000Y-98425000D01*
X127228900Y-120650000D02*
X132080000Y-120650000D01*
X120412200Y-113833300D02*
X127228900Y-120650000D01*
X100870100Y-113833300D02*
X120412200Y-113833300D01*
X95250000Y-108213200D02*
X100870100Y-113833300D01*
X95250000Y-100978200D02*
X95250000Y-108213200D01*
X96412200Y-99816000D02*
X95250000Y-100978200D01*
X100209000Y-99816000D02*
X96412200Y-99816000D01*
X101600000Y-98425000D02*
X100209000Y-99816000D01*
X101600000Y-75565000D02*
X101600000Y-76200000D01*
X133750300Y-123701100D02*
X133750300Y-115570000D01*
X132991400Y-124460000D02*
X133750300Y-123701100D01*
X119384500Y-124460000D02*
X132991400Y-124460000D01*
X117606500Y-126238000D02*
X119384500Y-124460000D01*
X116030200Y-126238000D02*
X117606500Y-126238000D01*
X115841000Y-126048800D02*
X116030200Y-126238000D01*
X106176300Y-126048800D02*
X115841000Y-126048800D01*
X105340300Y-126884800D02*
X106176300Y-126048800D01*
X105340300Y-127635000D02*
X105340300Y-126884800D01*
X104140000Y-127635000D02*
X105340300Y-127635000D01*
X132080000Y-115570000D02*
X133750300Y-115570000D01*
X122341500Y-113030000D02*
X132080000Y-113030000D01*
X113167900Y-103856400D02*
X122341500Y-113030000D01*
X106143700Y-103856400D02*
X113167900Y-103856400D01*
X105340300Y-104659800D02*
X106143700Y-103856400D01*
X105340300Y-105410000D02*
X105340300Y-104659800D01*
X104140000Y-105410000D02*
X105340300Y-105410000D01*
X133750300Y-105914900D02*
X133750300Y-108966000D01*
X132991400Y-105156000D02*
X133750300Y-105914900D01*
X131190700Y-105156000D02*
X132991400Y-105156000D01*
X120700300Y-94665600D02*
X131190700Y-105156000D01*
X120700300Y-90066300D02*
X120700300Y-94665600D01*
X112253900Y-81619900D02*
X120700300Y-90066300D01*
X106155200Y-81619900D02*
X112253900Y-81619900D01*
X105340300Y-82434800D02*
X106155200Y-81619900D01*
X105340300Y-83185000D02*
X105340300Y-82434800D01*
X104140000Y-83185000D02*
X105340300Y-83185000D01*
X132080000Y-108966000D02*
X133750300Y-108966000D01*
D25*
X85090000Y-95758000D02*
X85090000Y-88646000D01*
X83820000Y-120650000D02*
X85598000Y-118872000D01*
X85090000Y-95758000D02*
X85090000Y-99060000D01*
X85598000Y-99568000D02*
X85598000Y-100330000D01*
X85090000Y-99060000D02*
X85598000Y-99568000D01*
X85598000Y-100330000D02*
X85598000Y-118872000D01*
X87630000Y-86868000D02*
X88900000Y-86868000D01*
X87630000Y-88646000D02*
X87630000Y-86868000D01*
X85090000Y-88646000D02*
X87630000Y-88646000D01*
X87630000Y-92202000D02*
X87630000Y-91694000D01*
X87630000Y-92202000D02*
X87630000Y-94742000D01*
X85852000Y-96520000D02*
X85852000Y-98806000D01*
X85852000Y-98806000D02*
X86360000Y-99314000D01*
X86360000Y-99314000D02*
X86360000Y-120650000D01*
X83820000Y-123190000D02*
X86360000Y-120650000D01*
X87630000Y-94742000D02*
X85852000Y-96520000D01*
X87630000Y-91694000D02*
X88900000Y-90424000D01*
X88900000Y-93980000D02*
X88900000Y-94996000D01*
X87122000Y-122428000D02*
X83820000Y-125730000D01*
X87122000Y-96774000D02*
X87122000Y-122428000D01*
X88900000Y-94996000D02*
X87122000Y-96774000D01*
D24*
G36*
X133862000Y-90439591D02*
X133666198Y-90146553D01*
X133189296Y-89827897D01*
X132626751Y-89716000D01*
X131533249Y-89716000D01*
X130970704Y-89827897D01*
X130493802Y-90146553D01*
X130175146Y-90623455D01*
X130063249Y-91186000D01*
X130175146Y-91748545D01*
X130493802Y-92225447D01*
X130857889Y-92468722D01*
X130529018Y-92690089D01*
X130211984Y-93168075D01*
X130120889Y-93491104D01*
X130279010Y-93721000D01*
X132075000Y-93721000D01*
X132075000Y-93701000D01*
X132085000Y-93701000D01*
X132085000Y-93721000D01*
X132105000Y-93721000D01*
X132105000Y-93731000D01*
X132085000Y-93731000D01*
X132085000Y-93751000D01*
X132075000Y-93751000D01*
X132075000Y-93731000D01*
X130279010Y-93731000D01*
X130120889Y-93960896D01*
X130211984Y-94283925D01*
X130529018Y-94761911D01*
X130857889Y-94983278D01*
X130493802Y-95226553D01*
X130175146Y-95703455D01*
X130063249Y-96266000D01*
X130175146Y-96828545D01*
X130493802Y-97305447D01*
X130838849Y-97536000D01*
X130493802Y-97766553D01*
X130175146Y-98243455D01*
X130063249Y-98806000D01*
X130175146Y-99368545D01*
X130493802Y-99845447D01*
X130838849Y-100076000D01*
X130493802Y-100306553D01*
X130175146Y-100783455D01*
X130063249Y-101346000D01*
X130175146Y-101908545D01*
X130493802Y-102385447D01*
X130838849Y-102616000D01*
X130493802Y-102846553D01*
X130362246Y-103043440D01*
X121608300Y-94289494D01*
X121608300Y-93767910D01*
X125427980Y-93767910D01*
X125427980Y-95467170D01*
X125477348Y-95729539D01*
X125632408Y-95970509D01*
X125869002Y-96132167D01*
X126149850Y-96189040D01*
X127849110Y-96189040D01*
X128111479Y-96139672D01*
X128352449Y-95984612D01*
X128514107Y-95748018D01*
X128570980Y-95467170D01*
X128570980Y-93767910D01*
X128521612Y-93505541D01*
X128366552Y-93264571D01*
X128129958Y-93102913D01*
X127849110Y-93046040D01*
X126149850Y-93046040D01*
X125887481Y-93095408D01*
X125646511Y-93250468D01*
X125484853Y-93487062D01*
X125427980Y-93767910D01*
X121608300Y-93767910D01*
X121608300Y-90066300D01*
X121539183Y-89718823D01*
X121342353Y-89424247D01*
X116796016Y-84877910D01*
X120347980Y-84877910D01*
X120347980Y-86577170D01*
X120397348Y-86839539D01*
X120552408Y-87080509D01*
X120789002Y-87242167D01*
X121069850Y-87299040D01*
X122769110Y-87299040D01*
X123031479Y-87249672D01*
X123272449Y-87094612D01*
X123434107Y-86858018D01*
X123490980Y-86577170D01*
X123490980Y-84877910D01*
X123441612Y-84615541D01*
X123286552Y-84374571D01*
X123049958Y-84212913D01*
X122769110Y-84156040D01*
X121069850Y-84156040D01*
X120807481Y-84205408D01*
X120566511Y-84360468D01*
X120404853Y-84597062D01*
X120347980Y-84877910D01*
X116796016Y-84877910D01*
X116672705Y-84754599D01*
X116682600Y-84756600D01*
X116835000Y-84756600D01*
X116835000Y-83190000D01*
X116845000Y-83190000D01*
X116845000Y-84756600D01*
X116997400Y-84756600D01*
X117598445Y-84635056D01*
X118107225Y-84292754D01*
X118446283Y-83781806D01*
X118543861Y-83435790D01*
X118386991Y-83190000D01*
X116845000Y-83190000D01*
X116835000Y-83190000D01*
X115293009Y-83190000D01*
X115220974Y-83302868D01*
X112895953Y-80977847D01*
X112601377Y-80781017D01*
X112359978Y-80733000D01*
X112730830Y-80733000D01*
X112991050Y-80625213D01*
X113190213Y-80426050D01*
X113298000Y-80165830D01*
X113298000Y-79557000D01*
X113121000Y-79380000D01*
X111845000Y-79380000D01*
X111845000Y-79400000D01*
X111835000Y-79400000D01*
X111835000Y-79380000D01*
X111815000Y-79380000D01*
X111815000Y-79370000D01*
X111835000Y-79370000D01*
X111835000Y-78194000D01*
X111845000Y-78194000D01*
X111845000Y-79370000D01*
X113121000Y-79370000D01*
X113298000Y-79193000D01*
X113298000Y-78584170D01*
X113190213Y-78323950D01*
X112991050Y-78124787D01*
X112730830Y-78017000D01*
X112022000Y-78017000D01*
X111845000Y-78194000D01*
X111835000Y-78194000D01*
X111658000Y-78017000D01*
X110949170Y-78017000D01*
X110688950Y-78124787D01*
X110489787Y-78323950D01*
X110483316Y-78339572D01*
X110407442Y-78221661D01*
X110170848Y-78060003D01*
X110048000Y-78035126D01*
X110048000Y-77176955D01*
X110286317Y-77017717D01*
X110502050Y-76694849D01*
X110697218Y-76984853D01*
X111187532Y-77310124D01*
X111519160Y-77403644D01*
X111755000Y-77245991D01*
X111755000Y-75570000D01*
X111765000Y-75570000D01*
X111765000Y-77245991D01*
X112000840Y-77403644D01*
X112332468Y-77310124D01*
X112822782Y-76984853D01*
X113151297Y-76496706D01*
X113268000Y-75920000D01*
X113268000Y-75570000D01*
X111765000Y-75570000D01*
X111755000Y-75570000D01*
X111735000Y-75570000D01*
X111735000Y-75560000D01*
X111755000Y-75560000D01*
X111755000Y-73884009D01*
X111765000Y-73884009D01*
X111765000Y-75560000D01*
X113268000Y-75560000D01*
X113268000Y-75210000D01*
X113151297Y-74633294D01*
X112822782Y-74145147D01*
X112332468Y-73819876D01*
X112000840Y-73726356D01*
X111765000Y-73884009D01*
X111755000Y-73884009D01*
X111519160Y-73726356D01*
X111187532Y-73819876D01*
X110697218Y-74145147D01*
X110502050Y-74435151D01*
X110286317Y-74112283D01*
X109797087Y-73785390D01*
X109220000Y-73670600D01*
X108642913Y-73785390D01*
X108153683Y-74112283D01*
X107950000Y-74417116D01*
X107746317Y-74112283D01*
X107257087Y-73785390D01*
X106680000Y-73670600D01*
X106102913Y-73785390D01*
X105613683Y-74112283D01*
X105410000Y-74417116D01*
X105206317Y-74112283D01*
X104717087Y-73785390D01*
X104140000Y-73670600D01*
X103562913Y-73785390D01*
X103073683Y-74112283D01*
X102870000Y-74417116D01*
X102666317Y-74112283D01*
X102177087Y-73785390D01*
X101600000Y-73670600D01*
X101022913Y-73785390D01*
X100533683Y-74112283D01*
X100330000Y-74417116D01*
X100126317Y-74112283D01*
X99637087Y-73785390D01*
X99060000Y-73670600D01*
X98482913Y-73785390D01*
X97993683Y-74112283D01*
X97790000Y-74417116D01*
X97586317Y-74112283D01*
X97097087Y-73785390D01*
X96520000Y-73670600D01*
X95942913Y-73785390D01*
X95453683Y-74112283D01*
X95250000Y-74417116D01*
X95046317Y-74112283D01*
X94557087Y-73785390D01*
X93980000Y-73670600D01*
X93402913Y-73785390D01*
X92913683Y-74112283D01*
X92586790Y-74601513D01*
X92472000Y-75178600D01*
X92472000Y-75951400D01*
X92586790Y-76528487D01*
X92913683Y-77017717D01*
X93402913Y-77344610D01*
X93980000Y-77459400D01*
X94557087Y-77344610D01*
X95046317Y-77017717D01*
X95250000Y-76712884D01*
X95453683Y-77017717D01*
X95942913Y-77344610D01*
X96520000Y-77459400D01*
X97097087Y-77344610D01*
X97586317Y-77017717D01*
X97790000Y-76712884D01*
X97993683Y-77017717D01*
X98482913Y-77344610D01*
X99060000Y-77459400D01*
X99637087Y-77344610D01*
X100126317Y-77017717D01*
X100330000Y-76712884D01*
X100533683Y-77017717D01*
X101022913Y-77344610D01*
X101600000Y-77459400D01*
X102177087Y-77344610D01*
X102666317Y-77017717D01*
X102870000Y-76712884D01*
X103073683Y-77017717D01*
X103562913Y-77344610D01*
X104140000Y-77459400D01*
X104717087Y-77344610D01*
X105206317Y-77017717D01*
X105410000Y-76712884D01*
X105613683Y-77017717D01*
X106102913Y-77344610D01*
X106680000Y-77459400D01*
X107257087Y-77344610D01*
X107746317Y-77017717D01*
X107950000Y-76712884D01*
X108153683Y-77017717D01*
X108232000Y-77070047D01*
X108232000Y-78032860D01*
X108127631Y-78052498D01*
X107886661Y-78207558D01*
X107725003Y-78444152D01*
X107668130Y-78725000D01*
X107668130Y-80025000D01*
X107717498Y-80287369D01*
X107872558Y-80528339D01*
X108109152Y-80689997D01*
X108217313Y-80711900D01*
X106155200Y-80711900D01*
X105807723Y-80781017D01*
X105513147Y-80977847D01*
X104937997Y-81552997D01*
X104717087Y-81405390D01*
X104140000Y-81290600D01*
X103562913Y-81405390D01*
X103073683Y-81732283D01*
X102870000Y-82037116D01*
X102666317Y-81732283D01*
X102177087Y-81405390D01*
X101600000Y-81290600D01*
X101022913Y-81405390D01*
X100533683Y-81732283D01*
X100330000Y-82037116D01*
X100126317Y-81732283D01*
X99637087Y-81405390D01*
X99060000Y-81290600D01*
X98482913Y-81405390D01*
X97993683Y-81732283D01*
X97790000Y-82037116D01*
X97586317Y-81732283D01*
X97428000Y-81626499D01*
X97428000Y-80732193D01*
X97612369Y-80697502D01*
X97853339Y-80542442D01*
X98014997Y-80305848D01*
X98071870Y-80025000D01*
X98071870Y-78725000D01*
X98022502Y-78462631D01*
X97867442Y-78221661D01*
X97630848Y-78060003D01*
X97350000Y-78003130D01*
X95850000Y-78003130D01*
X95587631Y-78052498D01*
X95346661Y-78207558D01*
X95256599Y-78339368D01*
X95250213Y-78323950D01*
X95051050Y-78124787D01*
X94790830Y-78017000D01*
X94082000Y-78017000D01*
X93905000Y-78194000D01*
X93905000Y-79370000D01*
X93925000Y-79370000D01*
X93925000Y-79380000D01*
X93905000Y-79380000D01*
X93905000Y-80556000D01*
X94082000Y-80733000D01*
X94790830Y-80733000D01*
X95051050Y-80625213D01*
X95250213Y-80426050D01*
X95256684Y-80410428D01*
X95332558Y-80528339D01*
X95569152Y-80689997D01*
X95612000Y-80698674D01*
X95612000Y-81626499D01*
X95453683Y-81732283D01*
X95237950Y-82055151D01*
X95042782Y-81765147D01*
X94552468Y-81439876D01*
X94220840Y-81346356D01*
X93985000Y-81504009D01*
X93985000Y-83180000D01*
X94005000Y-83180000D01*
X94005000Y-83190000D01*
X93985000Y-83190000D01*
X93985000Y-84865991D01*
X94220840Y-85023644D01*
X94552468Y-84930124D01*
X95042782Y-84604853D01*
X95237950Y-84314849D01*
X95453683Y-84637717D01*
X95942913Y-84964610D01*
X96520000Y-85079400D01*
X97029040Y-84978146D01*
X97782947Y-85732053D01*
X98077523Y-85928883D01*
X98425000Y-85998000D01*
X105378306Y-85998000D01*
X105359962Y-86016312D01*
X105122271Y-86588735D01*
X105121730Y-87208546D01*
X105282385Y-87597359D01*
X105165003Y-87769152D01*
X105108130Y-88050000D01*
X105108130Y-89750000D01*
X105157498Y-90012369D01*
X105312558Y-90253339D01*
X105549152Y-90414997D01*
X105830000Y-90471870D01*
X107530000Y-90471870D01*
X107792369Y-90422502D01*
X108033339Y-90267442D01*
X108194997Y-90030848D01*
X108251870Y-89750000D01*
X108251870Y-88050000D01*
X108202502Y-87787631D01*
X108078451Y-87594850D01*
X108237729Y-87211265D01*
X108238270Y-86591454D01*
X108001578Y-86018617D01*
X107980997Y-85998000D01*
X110114102Y-85998000D01*
X110236342Y-86120144D01*
X110438215Y-86608714D01*
X110876001Y-87047265D01*
X111448289Y-87284899D01*
X112067953Y-87285440D01*
X112640654Y-87048805D01*
X113079205Y-86611019D01*
X113316839Y-86038731D01*
X113317380Y-85419067D01*
X113080745Y-84846366D01*
X112829576Y-84594758D01*
X113151297Y-84116706D01*
X113204364Y-83854470D01*
X119792300Y-90442406D01*
X119792300Y-94665600D01*
X119861417Y-95013077D01*
X120058247Y-95307653D01*
X125442594Y-100692000D01*
X118525769Y-100692000D01*
X118597775Y-100330000D01*
X118478144Y-99728575D01*
X118181903Y-99285219D01*
X118359339Y-99171042D01*
X118520997Y-98934448D01*
X118577870Y-98653600D01*
X118577870Y-96926400D01*
X118528502Y-96664031D01*
X118373442Y-96423061D01*
X118136848Y-96261403D01*
X117856000Y-96204530D01*
X115824000Y-96204530D01*
X115561631Y-96253898D01*
X115320661Y-96408958D01*
X115208000Y-96573843D01*
X115208000Y-95525500D01*
X115544954Y-95525500D01*
X115956001Y-95937265D01*
X116528289Y-96174899D01*
X117147953Y-96175440D01*
X117720654Y-95938805D01*
X118159205Y-95501019D01*
X118396839Y-94928731D01*
X118397380Y-94309067D01*
X118160745Y-93736366D01*
X117722959Y-93297815D01*
X117150671Y-93060181D01*
X116531007Y-93059640D01*
X115958306Y-93296275D01*
X115544359Y-93709500D01*
X114303000Y-93709500D01*
X114160421Y-93737861D01*
X114016175Y-93755992D01*
X113987683Y-93772220D01*
X113955523Y-93778617D01*
X113834646Y-93859385D01*
X113708323Y-93931334D01*
X113705323Y-93933934D01*
X113686171Y-93958593D01*
X113660947Y-93975447D01*
X113660228Y-93976523D01*
X113657947Y-93978047D01*
X113577181Y-94098922D01*
X113488005Y-94213739D01*
X113479333Y-94245361D01*
X113461117Y-94272623D01*
X113432756Y-94415203D01*
X113394307Y-94555408D01*
X113398396Y-94587942D01*
X113392000Y-94620100D01*
X113392000Y-96023194D01*
X112931653Y-95562847D01*
X112637077Y-95366017D01*
X112289600Y-95296900D01*
X108715200Y-95296900D01*
X108367723Y-95366017D01*
X108169129Y-95498714D01*
X108073147Y-95562847D01*
X107477997Y-96157997D01*
X107257087Y-96010390D01*
X106680000Y-95895600D01*
X106102913Y-96010390D01*
X105613683Y-96337283D01*
X105410000Y-96642116D01*
X105206317Y-96337283D01*
X104717087Y-96010390D01*
X104140000Y-95895600D01*
X103562913Y-96010390D01*
X103073683Y-96337283D01*
X102870000Y-96642116D01*
X102666317Y-96337283D01*
X102177087Y-96010390D01*
X101600000Y-95895600D01*
X101022913Y-96010390D01*
X100533683Y-96337283D01*
X100330000Y-96642116D01*
X100126317Y-96337283D01*
X99637087Y-96010390D01*
X99060000Y-95895600D01*
X98482913Y-96010390D01*
X97993683Y-96337283D01*
X97790000Y-96642116D01*
X97586317Y-96337283D01*
X97097087Y-96010390D01*
X96520000Y-95895600D01*
X95942913Y-96010390D01*
X95453683Y-96337283D01*
X95250000Y-96642116D01*
X95046317Y-96337283D01*
X94557087Y-96010390D01*
X93980000Y-95895600D01*
X93402913Y-96010390D01*
X92913683Y-96337283D01*
X92586790Y-96826513D01*
X92472000Y-97403600D01*
X92472000Y-98176400D01*
X92586790Y-98753487D01*
X92913683Y-99242717D01*
X93402913Y-99569610D01*
X93980000Y-99684400D01*
X94557087Y-99569610D01*
X95046317Y-99242717D01*
X95250000Y-98937884D01*
X95453683Y-99242717D01*
X95602165Y-99341929D01*
X94702094Y-100242000D01*
X94082000Y-100242000D01*
X93905000Y-100419000D01*
X93905000Y-101595000D01*
X93925000Y-101595000D01*
X93925000Y-101605000D01*
X93905000Y-101605000D01*
X93905000Y-102781000D01*
X94082000Y-102958000D01*
X94342000Y-102958000D01*
X94342000Y-103605523D01*
X94220840Y-103571356D01*
X93985000Y-103729009D01*
X93985000Y-105405000D01*
X94005000Y-105405000D01*
X94005000Y-105415000D01*
X93985000Y-105415000D01*
X93985000Y-107090991D01*
X94220840Y-107248644D01*
X94342000Y-107214477D01*
X94342000Y-108213200D01*
X94411117Y-108560677D01*
X94607947Y-108855253D01*
X98480824Y-112728130D01*
X98210000Y-112728130D01*
X97947631Y-112777498D01*
X97706661Y-112932558D01*
X97545003Y-113169152D01*
X97488130Y-113450000D01*
X97488130Y-115150000D01*
X97537498Y-115412369D01*
X97661549Y-115605150D01*
X97502271Y-115988735D01*
X97501730Y-116608546D01*
X97738422Y-117181383D01*
X98176312Y-117620038D01*
X98748735Y-117857729D01*
X99368546Y-117858270D01*
X99941383Y-117621578D01*
X100380038Y-117183688D01*
X100617729Y-116611265D01*
X100618270Y-115991454D01*
X100457615Y-115602641D01*
X100574997Y-115430848D01*
X100631870Y-115150000D01*
X100631870Y-114693913D01*
X100870100Y-114741300D01*
X102418130Y-114741300D01*
X102418130Y-116316000D01*
X102467498Y-116578369D01*
X102622558Y-116819339D01*
X102859152Y-116980997D01*
X103140000Y-117037870D01*
X105140000Y-117037870D01*
X105402369Y-116988502D01*
X105643339Y-116833442D01*
X105699448Y-116751324D01*
X105711232Y-116763128D01*
X106338767Y-117023703D01*
X107018252Y-117024296D01*
X107646240Y-116764816D01*
X108127128Y-116284768D01*
X108387703Y-115657233D01*
X108388296Y-114977748D01*
X108290597Y-114741300D01*
X120036094Y-114741300D01*
X126586847Y-121292053D01*
X126881423Y-121488883D01*
X127228900Y-121558000D01*
X130405972Y-121558000D01*
X130493802Y-121689447D01*
X130838849Y-121920000D01*
X130493802Y-122150553D01*
X130405400Y-122282855D01*
X130062223Y-122351117D01*
X129767647Y-122547947D01*
X129525594Y-122790000D01*
X118525769Y-122790000D01*
X118597775Y-122428000D01*
X118478144Y-121826575D01*
X118181903Y-121383219D01*
X118359339Y-121269042D01*
X118520997Y-121032448D01*
X118577870Y-120751600D01*
X118577870Y-119024400D01*
X118528502Y-118762031D01*
X118373442Y-118521061D01*
X118136848Y-118359403D01*
X117856000Y-118302530D01*
X117384914Y-118302530D01*
X117720654Y-118163805D01*
X118159205Y-117726019D01*
X118396839Y-117153731D01*
X118397380Y-116534067D01*
X118160745Y-115961366D01*
X117722959Y-115522815D01*
X117150671Y-115285181D01*
X116531007Y-115284640D01*
X115958306Y-115521275D01*
X115543858Y-115935000D01*
X114303000Y-115935000D01*
X114215754Y-115952354D01*
X114126790Y-115952261D01*
X114043695Y-115986579D01*
X113955523Y-116004117D01*
X113952533Y-116006115D01*
X113952523Y-116006117D01*
X113881537Y-116053548D01*
X113799333Y-116087498D01*
X113796332Y-116089498D01*
X113732696Y-116153001D01*
X113657947Y-116202947D01*
X113608524Y-116276914D01*
X113545553Y-116339753D01*
X113511063Y-116422773D01*
X113461117Y-116497523D01*
X113443761Y-116584776D01*
X113409633Y-116666927D01*
X113409539Y-116756826D01*
X113392000Y-116845000D01*
X113392000Y-121920000D01*
X113461117Y-122267477D01*
X113657947Y-122562053D01*
X114032241Y-122936347D01*
X113853247Y-123055947D01*
X113298000Y-123611194D01*
X113298000Y-123034170D01*
X113190213Y-122773950D01*
X112991050Y-122574787D01*
X112730830Y-122467000D01*
X112022000Y-122467000D01*
X111845000Y-122644000D01*
X111845000Y-123820000D01*
X111865000Y-123820000D01*
X111865000Y-123830000D01*
X111845000Y-123830000D01*
X111845000Y-123850000D01*
X111835000Y-123850000D01*
X111835000Y-123830000D01*
X111815000Y-123830000D01*
X111815000Y-123820000D01*
X111835000Y-123820000D01*
X111835000Y-122644000D01*
X111658000Y-122467000D01*
X110949170Y-122467000D01*
X110688950Y-122574787D01*
X110489787Y-122773950D01*
X110483316Y-122789572D01*
X110407442Y-122671661D01*
X110170848Y-122510003D01*
X110048000Y-122485126D01*
X110048000Y-121626955D01*
X110286317Y-121467717D01*
X110502050Y-121144849D01*
X110697218Y-121434853D01*
X111187532Y-121760124D01*
X111519160Y-121853644D01*
X111755000Y-121695991D01*
X111755000Y-120020000D01*
X111765000Y-120020000D01*
X111765000Y-121695991D01*
X112000840Y-121853644D01*
X112332468Y-121760124D01*
X112822782Y-121434853D01*
X113151297Y-120946706D01*
X113268000Y-120370000D01*
X113268000Y-120020000D01*
X111765000Y-120020000D01*
X111755000Y-120020000D01*
X111735000Y-120020000D01*
X111735000Y-120010000D01*
X111755000Y-120010000D01*
X111755000Y-118334009D01*
X111765000Y-118334009D01*
X111765000Y-120010000D01*
X113268000Y-120010000D01*
X113268000Y-119660000D01*
X113151297Y-119083294D01*
X112822782Y-118595147D01*
X112332468Y-118269876D01*
X112000840Y-118176356D01*
X111765000Y-118334009D01*
X111755000Y-118334009D01*
X111519160Y-118176356D01*
X111187532Y-118269876D01*
X110697218Y-118595147D01*
X110502050Y-118885151D01*
X110286317Y-118562283D01*
X109797087Y-118235390D01*
X109220000Y-118120600D01*
X108642913Y-118235390D01*
X108153683Y-118562283D01*
X107950000Y-118867116D01*
X107746317Y-118562283D01*
X107257087Y-118235390D01*
X106680000Y-118120600D01*
X106102913Y-118235390D01*
X105613683Y-118562283D01*
X105410000Y-118867116D01*
X105206317Y-118562283D01*
X104717087Y-118235390D01*
X104140000Y-118120600D01*
X103562913Y-118235390D01*
X103073683Y-118562283D01*
X102870000Y-118867116D01*
X102666317Y-118562283D01*
X102177087Y-118235390D01*
X101600000Y-118120600D01*
X101022913Y-118235390D01*
X100533683Y-118562283D01*
X100330000Y-118867116D01*
X100126317Y-118562283D01*
X99637087Y-118235390D01*
X99060000Y-118120600D01*
X98482913Y-118235390D01*
X97993683Y-118562283D01*
X97790000Y-118867116D01*
X97586317Y-118562283D01*
X97097087Y-118235390D01*
X96520000Y-118120600D01*
X95942913Y-118235390D01*
X95453683Y-118562283D01*
X95250000Y-118867116D01*
X95046317Y-118562283D01*
X94557087Y-118235390D01*
X93980000Y-118120600D01*
X93402913Y-118235390D01*
X92913683Y-118562283D01*
X92586790Y-119051513D01*
X92472000Y-119628600D01*
X92472000Y-120401400D01*
X92586790Y-120978487D01*
X92913683Y-121467717D01*
X93402913Y-121794610D01*
X93980000Y-121909400D01*
X94557087Y-121794610D01*
X95046317Y-121467717D01*
X95250000Y-121162884D01*
X95453683Y-121467717D01*
X95942913Y-121794610D01*
X96520000Y-121909400D01*
X97097087Y-121794610D01*
X97586317Y-121467717D01*
X97790000Y-121162884D01*
X97993683Y-121467717D01*
X98482913Y-121794610D01*
X99060000Y-121909400D01*
X99637087Y-121794610D01*
X100126317Y-121467717D01*
X100330000Y-121162884D01*
X100533683Y-121467717D01*
X101022913Y-121794610D01*
X101600000Y-121909400D01*
X102177087Y-121794610D01*
X102397997Y-121647003D01*
X105938996Y-125188002D01*
X105828824Y-125209916D01*
X105534247Y-125406747D01*
X104937997Y-126002997D01*
X104717087Y-125855390D01*
X104140000Y-125740600D01*
X103562913Y-125855390D01*
X103073683Y-126182283D01*
X102870000Y-126487116D01*
X102666317Y-126182283D01*
X102177087Y-125855390D01*
X101600000Y-125740600D01*
X101022913Y-125855390D01*
X100533683Y-126182283D01*
X100330000Y-126487116D01*
X100126317Y-126182283D01*
X99637087Y-125855390D01*
X99060000Y-125740600D01*
X98482913Y-125855390D01*
X97993683Y-126182283D01*
X97790000Y-126487116D01*
X97586317Y-126182283D01*
X97508000Y-126129953D01*
X97508000Y-125167140D01*
X97612369Y-125147502D01*
X97853339Y-124992442D01*
X98014997Y-124755848D01*
X98071870Y-124475000D01*
X98071870Y-123175000D01*
X98022502Y-122912631D01*
X97867442Y-122671661D01*
X97630848Y-122510003D01*
X97350000Y-122453130D01*
X95850000Y-122453130D01*
X95587631Y-122502498D01*
X95346661Y-122657558D01*
X95256599Y-122789368D01*
X95250213Y-122773950D01*
X95051050Y-122574787D01*
X94790830Y-122467000D01*
X94082000Y-122467000D01*
X93905000Y-122644000D01*
X93905000Y-123820000D01*
X93925000Y-123820000D01*
X93925000Y-123830000D01*
X93905000Y-123830000D01*
X93905000Y-125006000D01*
X94082000Y-125183000D01*
X94790830Y-125183000D01*
X95051050Y-125075213D01*
X95250213Y-124876050D01*
X95256684Y-124860428D01*
X95332558Y-124978339D01*
X95569152Y-125139997D01*
X95692000Y-125164874D01*
X95692000Y-126023045D01*
X95453683Y-126182283D01*
X95237950Y-126505151D01*
X95042782Y-126215147D01*
X94552468Y-125889876D01*
X94220840Y-125796356D01*
X93985000Y-125954009D01*
X93985000Y-127630000D01*
X94005000Y-127630000D01*
X94005000Y-127640000D01*
X93985000Y-127640000D01*
X93985000Y-129315991D01*
X94220840Y-129473644D01*
X94552468Y-129380124D01*
X95042782Y-129054853D01*
X95237950Y-128764849D01*
X95453683Y-129087717D01*
X95942913Y-129414610D01*
X96520000Y-129529400D01*
X97029040Y-129428146D01*
X97782947Y-130182053D01*
X98077523Y-130378883D01*
X98425000Y-130448000D01*
X98537098Y-130448000D01*
X98093760Y-130631184D01*
X97612872Y-131111232D01*
X97352297Y-131738767D01*
X97351704Y-132418252D01*
X97611184Y-133046240D01*
X98091232Y-133527128D01*
X98718767Y-133787703D01*
X99398252Y-133788296D01*
X100026240Y-133528816D01*
X100039169Y-133515910D01*
X100082558Y-133583339D01*
X100319152Y-133744997D01*
X100600000Y-133801870D01*
X102600000Y-133801870D01*
X102862369Y-133752502D01*
X103103339Y-133597442D01*
X103264997Y-133360848D01*
X103321870Y-133080000D01*
X103321870Y-131080000D01*
X103272502Y-130817631D01*
X103117442Y-130576661D01*
X102929141Y-130448000D01*
X105378306Y-130448000D01*
X105359962Y-130466312D01*
X105122271Y-131038735D01*
X105121730Y-131658546D01*
X105282385Y-132047359D01*
X105165003Y-132219152D01*
X105108130Y-132500000D01*
X105108130Y-134200000D01*
X105157498Y-134462369D01*
X105312558Y-134703339D01*
X105549152Y-134864997D01*
X105830000Y-134921870D01*
X107530000Y-134921870D01*
X107792369Y-134872502D01*
X108033339Y-134717442D01*
X108194997Y-134480848D01*
X108251870Y-134200000D01*
X108251870Y-133053252D01*
X117036704Y-133053252D01*
X117296184Y-133681240D01*
X117776232Y-134162128D01*
X118403767Y-134422703D01*
X119083252Y-134423296D01*
X119711240Y-134163816D01*
X120192128Y-133683768D01*
X120452703Y-133056233D01*
X120453296Y-132376748D01*
X120193816Y-131748760D01*
X119713768Y-131267872D01*
X119086233Y-131007297D01*
X118406748Y-131006704D01*
X117778760Y-131266184D01*
X117297872Y-131746232D01*
X117037297Y-132373767D01*
X117036704Y-133053252D01*
X108251870Y-133053252D01*
X108251870Y-132500000D01*
X108202502Y-132237631D01*
X108078451Y-132044850D01*
X108237729Y-131661265D01*
X108238270Y-131041454D01*
X108001578Y-130468617D01*
X107980997Y-130448000D01*
X110201613Y-130448000D01*
X110201580Y-130486013D01*
X110438215Y-131058714D01*
X110876001Y-131497265D01*
X111448289Y-131734899D01*
X112067953Y-131735440D01*
X112640654Y-131498805D01*
X113079205Y-131061019D01*
X113316839Y-130488731D01*
X113317380Y-129869067D01*
X113093779Y-129327910D01*
X120347980Y-129327910D01*
X120347980Y-131027170D01*
X120397348Y-131289539D01*
X120552408Y-131530509D01*
X120789002Y-131692167D01*
X121069850Y-131749040D01*
X122769110Y-131749040D01*
X123031479Y-131699672D01*
X123272449Y-131544612D01*
X123434107Y-131308018D01*
X123490980Y-131027170D01*
X123490980Y-129327910D01*
X123441612Y-129065541D01*
X123286552Y-128824571D01*
X123049958Y-128662913D01*
X122769110Y-128606040D01*
X121069850Y-128606040D01*
X120807481Y-128655408D01*
X120566511Y-128810468D01*
X120404853Y-129047062D01*
X120347980Y-129327910D01*
X113093779Y-129327910D01*
X113080745Y-129296366D01*
X112829576Y-129044758D01*
X113151297Y-128566706D01*
X113268000Y-127990000D01*
X113268000Y-127758790D01*
X115136139Y-127758790D01*
X115233717Y-128104806D01*
X115572775Y-128615754D01*
X116081555Y-128958056D01*
X116682600Y-129079600D01*
X116835000Y-129079600D01*
X116835000Y-127513000D01*
X116845000Y-127513000D01*
X116845000Y-129079600D01*
X116997400Y-129079600D01*
X117598445Y-128958056D01*
X118107225Y-128615754D01*
X118446283Y-128104806D01*
X118543861Y-127758790D01*
X118386991Y-127513000D01*
X116845000Y-127513000D01*
X116835000Y-127513000D01*
X115293009Y-127513000D01*
X115136139Y-127758790D01*
X113268000Y-127758790D01*
X113268000Y-127640000D01*
X111765000Y-127640000D01*
X111765000Y-127660000D01*
X111755000Y-127660000D01*
X111755000Y-127640000D01*
X111735000Y-127640000D01*
X111735000Y-127630000D01*
X111755000Y-127630000D01*
X111755000Y-127610000D01*
X111765000Y-127610000D01*
X111765000Y-127630000D01*
X113268000Y-127630000D01*
X113268000Y-127280000D01*
X113202597Y-126956800D01*
X115220856Y-126956800D01*
X115136139Y-127257210D01*
X115293009Y-127503000D01*
X116835000Y-127503000D01*
X116835000Y-127483000D01*
X116845000Y-127483000D01*
X116845000Y-127503000D01*
X118386991Y-127503000D01*
X118543861Y-127257210D01*
X118446283Y-126911194D01*
X118354989Y-126773617D01*
X119216606Y-125912000D01*
X120382000Y-125912000D01*
X120382000Y-126520830D01*
X120489787Y-126781050D01*
X120688950Y-126980213D01*
X120949170Y-127088000D01*
X121658000Y-127088000D01*
X121835000Y-126911000D01*
X121835000Y-125735000D01*
X120559000Y-125735000D01*
X120382000Y-125912000D01*
X119216606Y-125912000D01*
X119760606Y-125368000D01*
X120382000Y-125368000D01*
X120382000Y-125548000D01*
X120559000Y-125725000D01*
X121835000Y-125725000D01*
X121835000Y-125705000D01*
X121845000Y-125705000D01*
X121845000Y-125725000D01*
X121865000Y-125725000D01*
X121865000Y-125735000D01*
X121845000Y-125735000D01*
X121845000Y-126911000D01*
X122022000Y-127088000D01*
X122730830Y-127088000D01*
X122991050Y-126980213D01*
X123190213Y-126781050D01*
X123196684Y-126765428D01*
X123272558Y-126883339D01*
X123509152Y-127044997D01*
X123790000Y-127101870D01*
X125290000Y-127101870D01*
X125552369Y-127052502D01*
X125793339Y-126897442D01*
X125954997Y-126660848D01*
X125959624Y-126638000D01*
X130405972Y-126638000D01*
X130493802Y-126769447D01*
X130838849Y-127000000D01*
X130493802Y-127230553D01*
X130175146Y-127707455D01*
X130063249Y-128270000D01*
X130175146Y-128832545D01*
X130493802Y-129309447D01*
X130838849Y-129540000D01*
X130493802Y-129770553D01*
X130175146Y-130247455D01*
X130063249Y-130810000D01*
X130175146Y-131372545D01*
X130493802Y-131849447D01*
X130970704Y-132168103D01*
X131533249Y-132280000D01*
X132626751Y-132280000D01*
X133189296Y-132168103D01*
X133666198Y-131849447D01*
X133862000Y-131556409D01*
X133862000Y-131766026D01*
X133036026Y-132592000D01*
X121920000Y-132592000D01*
X121629925Y-132649699D01*
X121384013Y-132814013D01*
X119066026Y-135132000D01*
X86673974Y-135132000D01*
X84595226Y-133053252D01*
X85921704Y-133053252D01*
X86181184Y-133681240D01*
X86661232Y-134162128D01*
X87288767Y-134422703D01*
X87968252Y-134423296D01*
X88596240Y-134163816D01*
X89077128Y-133683768D01*
X89337703Y-133056233D01*
X89338296Y-132376748D01*
X89078816Y-131748760D01*
X88598768Y-131267872D01*
X87971233Y-131007297D01*
X87291748Y-131006704D01*
X86663760Y-131266184D01*
X86182872Y-131746232D01*
X85922297Y-132373767D01*
X85921704Y-133053252D01*
X84595226Y-133053252D01*
X84355987Y-132814013D01*
X84110074Y-132649699D01*
X83820000Y-132592000D01*
X82038000Y-132592000D01*
X82038000Y-131556409D01*
X82233802Y-131849447D01*
X82710704Y-132168103D01*
X83273249Y-132280000D01*
X84366751Y-132280000D01*
X84929296Y-132168103D01*
X85406198Y-131849447D01*
X85724854Y-131372545D01*
X85836751Y-130810000D01*
X85724854Y-130247455D01*
X85406198Y-129770553D01*
X85061151Y-129540000D01*
X85406198Y-129309447D01*
X85724854Y-128832545D01*
X85836751Y-128270000D01*
X85760327Y-127885790D01*
X87196139Y-127885790D01*
X87293717Y-128231806D01*
X87632775Y-128742754D01*
X88141555Y-129085056D01*
X88742600Y-129206600D01*
X88895000Y-129206600D01*
X88895000Y-127640000D01*
X88905000Y-127640000D01*
X88905000Y-129206600D01*
X89057400Y-129206600D01*
X89658445Y-129085056D01*
X90167225Y-128742754D01*
X90506283Y-128231806D01*
X90603861Y-127885790D01*
X90446991Y-127640000D01*
X92472000Y-127640000D01*
X92472000Y-127990000D01*
X92588703Y-128566706D01*
X92917218Y-129054853D01*
X93407532Y-129380124D01*
X93739160Y-129473644D01*
X93975000Y-129315991D01*
X93975000Y-127640000D01*
X92472000Y-127640000D01*
X90446991Y-127640000D01*
X88905000Y-127640000D01*
X88895000Y-127640000D01*
X87353009Y-127640000D01*
X87196139Y-127885790D01*
X85760327Y-127885790D01*
X85724854Y-127707455D01*
X85406198Y-127230553D01*
X85061151Y-127000000D01*
X85406198Y-126769447D01*
X85724854Y-126292545D01*
X85836751Y-125730000D01*
X85724854Y-125167455D01*
X85673219Y-125090177D01*
X87400089Y-123363306D01*
X87602536Y-123666289D01*
X87840064Y-123825000D01*
X87602536Y-123983711D01*
X87261856Y-124493575D01*
X87142225Y-125095000D01*
X87261856Y-125696425D01*
X87602536Y-126206289D01*
X87857055Y-126376353D01*
X87632775Y-126527246D01*
X87293717Y-127038194D01*
X87196139Y-127384210D01*
X87353009Y-127630000D01*
X88895000Y-127630000D01*
X88895000Y-127610000D01*
X88905000Y-127610000D01*
X88905000Y-127630000D01*
X90446991Y-127630000D01*
X90603861Y-127384210D01*
X90574474Y-127280000D01*
X92472000Y-127280000D01*
X92472000Y-127630000D01*
X93975000Y-127630000D01*
X93975000Y-125954009D01*
X93739160Y-125796356D01*
X93407532Y-125889876D01*
X92917218Y-126215147D01*
X92588703Y-126703294D01*
X92472000Y-127280000D01*
X90574474Y-127280000D01*
X90506283Y-127038194D01*
X90167225Y-126527246D01*
X89942945Y-126376353D01*
X90197464Y-126206289D01*
X90538144Y-125696425D01*
X90657775Y-125095000D01*
X90538144Y-124493575D01*
X90213026Y-124007000D01*
X92442000Y-124007000D01*
X92442000Y-124615830D01*
X92549787Y-124876050D01*
X92748950Y-125075213D01*
X93009170Y-125183000D01*
X93718000Y-125183000D01*
X93895000Y-125006000D01*
X93895000Y-123830000D01*
X92619000Y-123830000D01*
X92442000Y-124007000D01*
X90213026Y-124007000D01*
X90197464Y-123983711D01*
X89959936Y-123825000D01*
X90197464Y-123666289D01*
X90538144Y-123156425D01*
X90562462Y-123034170D01*
X92442000Y-123034170D01*
X92442000Y-123643000D01*
X92619000Y-123820000D01*
X93895000Y-123820000D01*
X93895000Y-122644000D01*
X93718000Y-122467000D01*
X93009170Y-122467000D01*
X92748950Y-122574787D01*
X92549787Y-122773950D01*
X92442000Y-123034170D01*
X90562462Y-123034170D01*
X90657775Y-122555000D01*
X90538144Y-121953575D01*
X90241903Y-121510219D01*
X90419339Y-121396042D01*
X90580997Y-121159448D01*
X90637870Y-120878600D01*
X90637870Y-119151400D01*
X90588502Y-118889031D01*
X90433442Y-118648061D01*
X90196848Y-118486403D01*
X89916000Y-118429530D01*
X87980000Y-118429530D01*
X87980000Y-106751363D01*
X88141555Y-106860056D01*
X88742600Y-106981600D01*
X88895000Y-106981600D01*
X88895000Y-105415000D01*
X88905000Y-105415000D01*
X88905000Y-106981600D01*
X89057400Y-106981600D01*
X89658445Y-106860056D01*
X90167225Y-106517754D01*
X90506283Y-106006806D01*
X90603861Y-105660790D01*
X90446991Y-105415000D01*
X92472000Y-105415000D01*
X92472000Y-105765000D01*
X92588703Y-106341706D01*
X92917218Y-106829853D01*
X93407532Y-107155124D01*
X93739160Y-107248644D01*
X93975000Y-107090991D01*
X93975000Y-105415000D01*
X92472000Y-105415000D01*
X90446991Y-105415000D01*
X88905000Y-105415000D01*
X88895000Y-105415000D01*
X88875000Y-105415000D01*
X88875000Y-105405000D01*
X88895000Y-105405000D01*
X88895000Y-105385000D01*
X88905000Y-105385000D01*
X88905000Y-105405000D01*
X90446991Y-105405000D01*
X90603861Y-105159210D01*
X90574474Y-105055000D01*
X92472000Y-105055000D01*
X92472000Y-105405000D01*
X93975000Y-105405000D01*
X93975000Y-103729009D01*
X93739160Y-103571356D01*
X93407532Y-103664876D01*
X92917218Y-103990147D01*
X92588703Y-104478294D01*
X92472000Y-105055000D01*
X90574474Y-105055000D01*
X90506283Y-104813194D01*
X90167225Y-104302246D01*
X89942945Y-104151353D01*
X90197464Y-103981289D01*
X90538144Y-103471425D01*
X90657775Y-102870000D01*
X90538144Y-102268575D01*
X90213026Y-101782000D01*
X92442000Y-101782000D01*
X92442000Y-102390830D01*
X92549787Y-102651050D01*
X92748950Y-102850213D01*
X93009170Y-102958000D01*
X93718000Y-102958000D01*
X93895000Y-102781000D01*
X93895000Y-101605000D01*
X92619000Y-101605000D01*
X92442000Y-101782000D01*
X90213026Y-101782000D01*
X90197464Y-101758711D01*
X89959936Y-101600000D01*
X90197464Y-101441289D01*
X90538144Y-100931425D01*
X90562462Y-100809170D01*
X92442000Y-100809170D01*
X92442000Y-101418000D01*
X92619000Y-101595000D01*
X93895000Y-101595000D01*
X93895000Y-100419000D01*
X93718000Y-100242000D01*
X93009170Y-100242000D01*
X92748950Y-100349787D01*
X92549787Y-100548950D01*
X92442000Y-100809170D01*
X90562462Y-100809170D01*
X90657775Y-100330000D01*
X90538144Y-99728575D01*
X90241903Y-99285219D01*
X90419339Y-99171042D01*
X90580997Y-98934448D01*
X90637870Y-98653600D01*
X90637870Y-96926400D01*
X90588502Y-96664031D01*
X90433442Y-96423061D01*
X90196848Y-96261403D01*
X89916000Y-96204530D01*
X88904865Y-96204530D01*
X89488725Y-95620670D01*
X89501425Y-95618144D01*
X90011289Y-95277464D01*
X90351969Y-94767600D01*
X90471600Y-94166175D01*
X90471600Y-93793825D01*
X90351969Y-93192400D01*
X90011289Y-92682536D01*
X89501425Y-92341856D01*
X88900000Y-92222225D01*
X88488000Y-92304177D01*
X88488000Y-92099823D01*
X88900000Y-92181775D01*
X89501425Y-92062144D01*
X90011289Y-91721464D01*
X90343015Y-91225000D01*
X97488130Y-91225000D01*
X97488130Y-92925000D01*
X97537498Y-93187369D01*
X97661549Y-93380150D01*
X97502271Y-93763735D01*
X97501730Y-94383546D01*
X97738422Y-94956383D01*
X98176312Y-95395038D01*
X98748735Y-95632729D01*
X99368546Y-95633270D01*
X99941383Y-95396578D01*
X100380038Y-94958688D01*
X100617729Y-94386265D01*
X100618270Y-93766454D01*
X100457615Y-93377641D01*
X100574997Y-93205848D01*
X100631870Y-92925000D01*
X100631870Y-91964000D01*
X102418130Y-91964000D01*
X102418130Y-93964000D01*
X102467498Y-94226369D01*
X102622558Y-94467339D01*
X102859152Y-94628997D01*
X103140000Y-94685870D01*
X105140000Y-94685870D01*
X105402369Y-94636502D01*
X105643339Y-94481442D01*
X105699448Y-94399324D01*
X105711232Y-94411128D01*
X106338767Y-94671703D01*
X107018252Y-94672296D01*
X107646240Y-94412816D01*
X108127128Y-93932768D01*
X108387703Y-93305233D01*
X108388296Y-92625748D01*
X108128816Y-91997760D01*
X107648768Y-91516872D01*
X107021233Y-91256297D01*
X106341748Y-91255704D01*
X105713760Y-91515184D01*
X105700831Y-91528090D01*
X105657442Y-91460661D01*
X105420848Y-91299003D01*
X105140000Y-91242130D01*
X103140000Y-91242130D01*
X102877631Y-91291498D01*
X102636661Y-91446558D01*
X102475003Y-91683152D01*
X102418130Y-91964000D01*
X100631870Y-91964000D01*
X100631870Y-91225000D01*
X100582502Y-90962631D01*
X100427442Y-90721661D01*
X100190848Y-90560003D01*
X99910000Y-90503130D01*
X98210000Y-90503130D01*
X97947631Y-90552498D01*
X97706661Y-90707558D01*
X97545003Y-90944152D01*
X97488130Y-91225000D01*
X90343015Y-91225000D01*
X90351969Y-91211600D01*
X90471600Y-90610175D01*
X90471600Y-90237825D01*
X90351969Y-89636400D01*
X90011289Y-89126536D01*
X89501425Y-88785856D01*
X88900000Y-88666225D01*
X88466839Y-88752386D01*
X88488000Y-88646000D01*
X88488000Y-88543823D01*
X88900000Y-88625775D01*
X89501425Y-88506144D01*
X89926299Y-88222252D01*
X97351704Y-88222252D01*
X97611184Y-88850240D01*
X98091232Y-89331128D01*
X98718767Y-89591703D01*
X99398252Y-89592296D01*
X100026240Y-89332816D01*
X100039169Y-89319910D01*
X100082558Y-89387339D01*
X100319152Y-89548997D01*
X100600000Y-89605870D01*
X102600000Y-89605870D01*
X102862369Y-89556502D01*
X103103339Y-89401442D01*
X103264997Y-89164848D01*
X103321870Y-88884000D01*
X103321870Y-86884000D01*
X103272502Y-86621631D01*
X103117442Y-86380661D01*
X102880848Y-86219003D01*
X102600000Y-86162130D01*
X100600000Y-86162130D01*
X100337631Y-86211498D01*
X100096661Y-86366558D01*
X100040552Y-86448676D01*
X100028768Y-86436872D01*
X99401233Y-86176297D01*
X98721748Y-86175704D01*
X98093760Y-86435184D01*
X97612872Y-86915232D01*
X97352297Y-87542767D01*
X97351704Y-88222252D01*
X89926299Y-88222252D01*
X90011289Y-88165464D01*
X90351969Y-87655600D01*
X90471600Y-87054175D01*
X90471600Y-86681825D01*
X90351969Y-86080400D01*
X90011289Y-85570536D01*
X89501425Y-85229856D01*
X88900000Y-85110225D01*
X88298575Y-85229856D01*
X87788711Y-85570536D01*
X87618647Y-85825055D01*
X87467754Y-85600775D01*
X86956806Y-85261717D01*
X86610790Y-85164139D01*
X86365000Y-85321009D01*
X86365000Y-86863000D01*
X86385000Y-86863000D01*
X86385000Y-86873000D01*
X86365000Y-86873000D01*
X86365000Y-86893000D01*
X86355000Y-86893000D01*
X86355000Y-86873000D01*
X86335000Y-86873000D01*
X86335000Y-86863000D01*
X86355000Y-86863000D01*
X86355000Y-85321009D01*
X86109210Y-85164139D01*
X85763194Y-85261717D01*
X85330050Y-85549145D01*
X85201042Y-85348661D01*
X84964448Y-85187003D01*
X84683600Y-85130130D01*
X82956400Y-85130130D01*
X82694031Y-85179498D01*
X82453061Y-85334558D01*
X82291403Y-85571152D01*
X82234530Y-85852000D01*
X82234530Y-87884000D01*
X82283898Y-88146369D01*
X82438958Y-88387339D01*
X82675552Y-88548997D01*
X82956400Y-88605870D01*
X84239982Y-88605870D01*
X84232000Y-88646000D01*
X84232000Y-88686130D01*
X82956400Y-88686130D01*
X82694031Y-88735498D01*
X82453061Y-88890558D01*
X82291403Y-89127152D01*
X82234530Y-89408000D01*
X82234530Y-91440000D01*
X82283898Y-91702369D01*
X82438958Y-91943339D01*
X82675552Y-92104997D01*
X82956400Y-92161870D01*
X84232000Y-92161870D01*
X84232000Y-92242130D01*
X82956400Y-92242130D01*
X82694031Y-92291498D01*
X82453061Y-92446558D01*
X82291403Y-92683152D01*
X82234530Y-92964000D01*
X82234530Y-94996000D01*
X82283898Y-95258369D01*
X82438958Y-95499339D01*
X82675552Y-95660997D01*
X82956400Y-95717870D01*
X84232000Y-95717870D01*
X84232000Y-98860000D01*
X83273249Y-98860000D01*
X82710704Y-98971897D01*
X82233802Y-99290553D01*
X82038000Y-99583591D01*
X82038000Y-83308790D01*
X87196139Y-83308790D01*
X87293717Y-83654806D01*
X87632775Y-84165754D01*
X88141555Y-84508056D01*
X88742600Y-84629600D01*
X88895000Y-84629600D01*
X88895000Y-83063000D01*
X88905000Y-83063000D01*
X88905000Y-84629600D01*
X89057400Y-84629600D01*
X89658445Y-84508056D01*
X90167225Y-84165754D01*
X90506283Y-83654806D01*
X90603861Y-83308790D01*
X90528046Y-83190000D01*
X92472000Y-83190000D01*
X92472000Y-83540000D01*
X92588703Y-84116706D01*
X92917218Y-84604853D01*
X93407532Y-84930124D01*
X93739160Y-85023644D01*
X93975000Y-84865991D01*
X93975000Y-83190000D01*
X92472000Y-83190000D01*
X90528046Y-83190000D01*
X90446991Y-83063000D01*
X88905000Y-83063000D01*
X88895000Y-83063000D01*
X87353009Y-83063000D01*
X87196139Y-83308790D01*
X82038000Y-83308790D01*
X82038000Y-77978000D01*
X87142225Y-77978000D01*
X87261856Y-78579425D01*
X87602536Y-79089289D01*
X87840064Y-79248000D01*
X87602536Y-79406711D01*
X87261856Y-79916575D01*
X87142225Y-80518000D01*
X87261856Y-81119425D01*
X87602536Y-81629289D01*
X87857055Y-81799353D01*
X87632775Y-81950246D01*
X87293717Y-82461194D01*
X87196139Y-82807210D01*
X87353009Y-83053000D01*
X88895000Y-83053000D01*
X88895000Y-83033000D01*
X88905000Y-83033000D01*
X88905000Y-83053000D01*
X90446991Y-83053000D01*
X90589315Y-82830000D01*
X92472000Y-82830000D01*
X92472000Y-83180000D01*
X93975000Y-83180000D01*
X93975000Y-81504009D01*
X93739160Y-81346356D01*
X93407532Y-81439876D01*
X92917218Y-81765147D01*
X92588703Y-82253294D01*
X92472000Y-82830000D01*
X90589315Y-82830000D01*
X90603861Y-82807210D01*
X90506283Y-82461194D01*
X90167225Y-81950246D01*
X89942945Y-81799353D01*
X90197464Y-81629289D01*
X90538144Y-81119425D01*
X90657775Y-80518000D01*
X90538144Y-79916575D01*
X90297884Y-79557000D01*
X92442000Y-79557000D01*
X92442000Y-80165830D01*
X92549787Y-80426050D01*
X92748950Y-80625213D01*
X93009170Y-80733000D01*
X93718000Y-80733000D01*
X93895000Y-80556000D01*
X93895000Y-79380000D01*
X92619000Y-79380000D01*
X92442000Y-79557000D01*
X90297884Y-79557000D01*
X90197464Y-79406711D01*
X89959936Y-79248000D01*
X90197464Y-79089289D01*
X90534973Y-78584170D01*
X92442000Y-78584170D01*
X92442000Y-79193000D01*
X92619000Y-79370000D01*
X93895000Y-79370000D01*
X93895000Y-78194000D01*
X93718000Y-78017000D01*
X93009170Y-78017000D01*
X92748950Y-78124787D01*
X92549787Y-78323950D01*
X92442000Y-78584170D01*
X90534973Y-78584170D01*
X90538144Y-78579425D01*
X90657775Y-77978000D01*
X90538144Y-77376575D01*
X90241903Y-76933219D01*
X90419339Y-76819042D01*
X90580997Y-76582448D01*
X90637870Y-76301600D01*
X90637870Y-74574400D01*
X90588502Y-74312031D01*
X90433442Y-74071061D01*
X90196848Y-73909403D01*
X89916000Y-73852530D01*
X87884000Y-73852530D01*
X87621631Y-73901898D01*
X87380661Y-74056958D01*
X87219003Y-74293552D01*
X87162130Y-74574400D01*
X87162130Y-76301600D01*
X87211498Y-76563969D01*
X87366558Y-76804939D01*
X87556907Y-76934999D01*
X87261856Y-77376575D01*
X87142225Y-77978000D01*
X82038000Y-77978000D01*
X82038000Y-70823252D01*
X82746704Y-70823252D01*
X83006184Y-71451240D01*
X83486232Y-71932128D01*
X84113767Y-72192703D01*
X84793252Y-72193296D01*
X85421240Y-71933816D01*
X85902128Y-71453768D01*
X86162703Y-70826233D01*
X86163296Y-70146748D01*
X85903816Y-69518760D01*
X85423768Y-69037872D01*
X85332562Y-69000000D01*
X97488130Y-69000000D01*
X97488130Y-70700000D01*
X97537498Y-70962369D01*
X97661549Y-71155150D01*
X97502271Y-71538735D01*
X97501730Y-72158546D01*
X97738422Y-72731383D01*
X98176312Y-73170038D01*
X98748735Y-73407729D01*
X99368546Y-73408270D01*
X99941383Y-73171578D01*
X100380038Y-72733688D01*
X100617729Y-72161265D01*
X100618270Y-71541454D01*
X100457615Y-71152641D01*
X100574997Y-70980848D01*
X100631870Y-70700000D01*
X100631870Y-69866000D01*
X102418130Y-69866000D01*
X102418130Y-71866000D01*
X102467498Y-72128369D01*
X102622558Y-72369339D01*
X102859152Y-72530997D01*
X103140000Y-72587870D01*
X105140000Y-72587870D01*
X105402369Y-72538502D01*
X105643339Y-72383442D01*
X105699448Y-72301324D01*
X105711232Y-72313128D01*
X106338767Y-72573703D01*
X107018252Y-72574296D01*
X107451938Y-72395100D01*
X113392000Y-72395100D01*
X113392000Y-78105000D01*
X113461117Y-78452477D01*
X113657947Y-78747053D01*
X113952523Y-78943883D01*
X114300000Y-79013000D01*
X115406703Y-79013000D01*
X115542536Y-79216289D01*
X115780064Y-79375000D01*
X115542536Y-79533711D01*
X115201856Y-80043575D01*
X115082225Y-80645000D01*
X115201856Y-81246425D01*
X115542536Y-81756289D01*
X115797055Y-81926353D01*
X115572775Y-82077246D01*
X115233717Y-82588194D01*
X115136139Y-82934210D01*
X115293009Y-83180000D01*
X116835000Y-83180000D01*
X116835000Y-83160000D01*
X116845000Y-83160000D01*
X116845000Y-83180000D01*
X118386991Y-83180000D01*
X118543861Y-82934210D01*
X118446283Y-82588194D01*
X118107225Y-82077246D01*
X117882945Y-81926353D01*
X118137464Y-81756289D01*
X118478144Y-81246425D01*
X118597775Y-80645000D01*
X118478144Y-80043575D01*
X118137464Y-79533711D01*
X117899936Y-79375000D01*
X118137464Y-79216289D01*
X118478144Y-78706425D01*
X118597775Y-78105000D01*
X118478144Y-77503575D01*
X118181903Y-77060219D01*
X118359339Y-76946042D01*
X118520997Y-76709448D01*
X118577870Y-76428600D01*
X118577870Y-74701400D01*
X118528502Y-74439031D01*
X118373442Y-74198061D01*
X118136848Y-74036403D01*
X117856000Y-73979530D01*
X115824000Y-73979530D01*
X115561631Y-74028898D01*
X115320661Y-74183958D01*
X115208000Y-74348843D01*
X115208000Y-73300500D01*
X115544954Y-73300500D01*
X115956001Y-73712265D01*
X116528289Y-73949899D01*
X117147953Y-73950440D01*
X117720654Y-73713805D01*
X118159205Y-73276019D01*
X118396839Y-72703731D01*
X118397380Y-72084067D01*
X118173779Y-71542910D01*
X125427980Y-71542910D01*
X125427980Y-73242170D01*
X125477348Y-73504539D01*
X125632408Y-73745509D01*
X125869002Y-73907167D01*
X126149850Y-73964040D01*
X127849110Y-73964040D01*
X128111479Y-73914672D01*
X128352449Y-73759612D01*
X128514107Y-73523018D01*
X128570980Y-73242170D01*
X128570980Y-71542910D01*
X128521612Y-71280541D01*
X128366552Y-71039571D01*
X128129958Y-70877913D01*
X127860034Y-70823252D01*
X129736704Y-70823252D01*
X129996184Y-71451240D01*
X130476232Y-71932128D01*
X131103767Y-72192703D01*
X131783252Y-72193296D01*
X132411240Y-71933816D01*
X132892128Y-71453768D01*
X133152703Y-70826233D01*
X133153296Y-70146748D01*
X132893816Y-69518760D01*
X132413768Y-69037872D01*
X131786233Y-68777297D01*
X131106748Y-68776704D01*
X130478760Y-69036184D01*
X129997872Y-69516232D01*
X129737297Y-70143767D01*
X129736704Y-70823252D01*
X127860034Y-70823252D01*
X127849110Y-70821040D01*
X126149850Y-70821040D01*
X125887481Y-70870408D01*
X125646511Y-71025468D01*
X125484853Y-71262062D01*
X125427980Y-71542910D01*
X118173779Y-71542910D01*
X118160745Y-71511366D01*
X117722959Y-71072815D01*
X117150671Y-70835181D01*
X116531007Y-70834640D01*
X115958306Y-71071275D01*
X115544359Y-71484500D01*
X114303000Y-71484500D01*
X114160421Y-71512861D01*
X114016175Y-71530992D01*
X113987683Y-71547220D01*
X113955523Y-71553617D01*
X113834646Y-71634385D01*
X113708323Y-71706334D01*
X113705323Y-71708934D01*
X113686171Y-71733593D01*
X113660947Y-71750447D01*
X113660228Y-71751523D01*
X113657947Y-71753047D01*
X113577181Y-71873922D01*
X113488005Y-71988739D01*
X113479333Y-72020361D01*
X113461117Y-72047623D01*
X113432756Y-72190203D01*
X113394307Y-72330408D01*
X113398396Y-72362942D01*
X113392000Y-72395100D01*
X107451938Y-72395100D01*
X107646240Y-72314816D01*
X108127128Y-71834768D01*
X108387703Y-71207233D01*
X108388296Y-70527748D01*
X108128816Y-69899760D01*
X107648768Y-69418872D01*
X107021233Y-69158297D01*
X106341748Y-69157704D01*
X105713760Y-69417184D01*
X105700831Y-69430090D01*
X105657442Y-69362661D01*
X105420848Y-69201003D01*
X105140000Y-69144130D01*
X103140000Y-69144130D01*
X102877631Y-69193498D01*
X102636661Y-69348558D01*
X102475003Y-69585152D01*
X102418130Y-69866000D01*
X100631870Y-69866000D01*
X100631870Y-69000000D01*
X100582502Y-68737631D01*
X100427442Y-68496661D01*
X100190848Y-68335003D01*
X99910000Y-68278130D01*
X98210000Y-68278130D01*
X97947631Y-68327498D01*
X97706661Y-68482558D01*
X97545003Y-68719152D01*
X97488130Y-69000000D01*
X85332562Y-69000000D01*
X84796233Y-68777297D01*
X84116748Y-68776704D01*
X83488760Y-69036184D01*
X83007872Y-69516232D01*
X82747297Y-70143767D01*
X82746704Y-70823252D01*
X82038000Y-70823252D01*
X82038000Y-68068000D01*
X133862000Y-68068000D01*
X133862000Y-90439591D01*
X133862000Y-90439591D01*
G37*
X133862000Y-90439591D02*
X133666198Y-90146553D01*
X133189296Y-89827897D01*
X132626751Y-89716000D01*
X131533249Y-89716000D01*
X130970704Y-89827897D01*
X130493802Y-90146553D01*
X130175146Y-90623455D01*
X130063249Y-91186000D01*
X130175146Y-91748545D01*
X130493802Y-92225447D01*
X130857889Y-92468722D01*
X130529018Y-92690089D01*
X130211984Y-93168075D01*
X130120889Y-93491104D01*
X130279010Y-93721000D01*
X132075000Y-93721000D01*
X132075000Y-93701000D01*
X132085000Y-93701000D01*
X132085000Y-93721000D01*
X132105000Y-93721000D01*
X132105000Y-93731000D01*
X132085000Y-93731000D01*
X132085000Y-93751000D01*
X132075000Y-93751000D01*
X132075000Y-93731000D01*
X130279010Y-93731000D01*
X130120889Y-93960896D01*
X130211984Y-94283925D01*
X130529018Y-94761911D01*
X130857889Y-94983278D01*
X130493802Y-95226553D01*
X130175146Y-95703455D01*
X130063249Y-96266000D01*
X130175146Y-96828545D01*
X130493802Y-97305447D01*
X130838849Y-97536000D01*
X130493802Y-97766553D01*
X130175146Y-98243455D01*
X130063249Y-98806000D01*
X130175146Y-99368545D01*
X130493802Y-99845447D01*
X130838849Y-100076000D01*
X130493802Y-100306553D01*
X130175146Y-100783455D01*
X130063249Y-101346000D01*
X130175146Y-101908545D01*
X130493802Y-102385447D01*
X130838849Y-102616000D01*
X130493802Y-102846553D01*
X130362246Y-103043440D01*
X121608300Y-94289494D01*
X121608300Y-93767910D01*
X125427980Y-93767910D01*
X125427980Y-95467170D01*
X125477348Y-95729539D01*
X125632408Y-95970509D01*
X125869002Y-96132167D01*
X126149850Y-96189040D01*
X127849110Y-96189040D01*
X128111479Y-96139672D01*
X128352449Y-95984612D01*
X128514107Y-95748018D01*
X128570980Y-95467170D01*
X128570980Y-93767910D01*
X128521612Y-93505541D01*
X128366552Y-93264571D01*
X128129958Y-93102913D01*
X127849110Y-93046040D01*
X126149850Y-93046040D01*
X125887481Y-93095408D01*
X125646511Y-93250468D01*
X125484853Y-93487062D01*
X125427980Y-93767910D01*
X121608300Y-93767910D01*
X121608300Y-90066300D01*
X121539183Y-89718823D01*
X121342353Y-89424247D01*
X116796016Y-84877910D01*
X120347980Y-84877910D01*
X120347980Y-86577170D01*
X120397348Y-86839539D01*
X120552408Y-87080509D01*
X120789002Y-87242167D01*
X121069850Y-87299040D01*
X122769110Y-87299040D01*
X123031479Y-87249672D01*
X123272449Y-87094612D01*
X123434107Y-86858018D01*
X123490980Y-86577170D01*
X123490980Y-84877910D01*
X123441612Y-84615541D01*
X123286552Y-84374571D01*
X123049958Y-84212913D01*
X122769110Y-84156040D01*
X121069850Y-84156040D01*
X120807481Y-84205408D01*
X120566511Y-84360468D01*
X120404853Y-84597062D01*
X120347980Y-84877910D01*
X116796016Y-84877910D01*
X116672705Y-84754599D01*
X116682600Y-84756600D01*
X116835000Y-84756600D01*
X116835000Y-83190000D01*
X116845000Y-83190000D01*
X116845000Y-84756600D01*
X116997400Y-84756600D01*
X117598445Y-84635056D01*
X118107225Y-84292754D01*
X118446283Y-83781806D01*
X118543861Y-83435790D01*
X118386991Y-83190000D01*
X116845000Y-83190000D01*
X116835000Y-83190000D01*
X115293009Y-83190000D01*
X115220974Y-83302868D01*
X112895953Y-80977847D01*
X112601377Y-80781017D01*
X112359978Y-80733000D01*
X112730830Y-80733000D01*
X112991050Y-80625213D01*
X113190213Y-80426050D01*
X113298000Y-80165830D01*
X113298000Y-79557000D01*
X113121000Y-79380000D01*
X111845000Y-79380000D01*
X111845000Y-79400000D01*
X111835000Y-79400000D01*
X111835000Y-79380000D01*
X111815000Y-79380000D01*
X111815000Y-79370000D01*
X111835000Y-79370000D01*
X111835000Y-78194000D01*
X111845000Y-78194000D01*
X111845000Y-79370000D01*
X113121000Y-79370000D01*
X113298000Y-79193000D01*
X113298000Y-78584170D01*
X113190213Y-78323950D01*
X112991050Y-78124787D01*
X112730830Y-78017000D01*
X112022000Y-78017000D01*
X111845000Y-78194000D01*
X111835000Y-78194000D01*
X111658000Y-78017000D01*
X110949170Y-78017000D01*
X110688950Y-78124787D01*
X110489787Y-78323950D01*
X110483316Y-78339572D01*
X110407442Y-78221661D01*
X110170848Y-78060003D01*
X110048000Y-78035126D01*
X110048000Y-77176955D01*
X110286317Y-77017717D01*
X110502050Y-76694849D01*
X110697218Y-76984853D01*
X111187532Y-77310124D01*
X111519160Y-77403644D01*
X111755000Y-77245991D01*
X111755000Y-75570000D01*
X111765000Y-75570000D01*
X111765000Y-77245991D01*
X112000840Y-77403644D01*
X112332468Y-77310124D01*
X112822782Y-76984853D01*
X113151297Y-76496706D01*
X113268000Y-75920000D01*
X113268000Y-75570000D01*
X111765000Y-75570000D01*
X111755000Y-75570000D01*
X111735000Y-75570000D01*
X111735000Y-75560000D01*
X111755000Y-75560000D01*
X111755000Y-73884009D01*
X111765000Y-73884009D01*
X111765000Y-75560000D01*
X113268000Y-75560000D01*
X113268000Y-75210000D01*
X113151297Y-74633294D01*
X112822782Y-74145147D01*
X112332468Y-73819876D01*
X112000840Y-73726356D01*
X111765000Y-73884009D01*
X111755000Y-73884009D01*
X111519160Y-73726356D01*
X111187532Y-73819876D01*
X110697218Y-74145147D01*
X110502050Y-74435151D01*
X110286317Y-74112283D01*
X109797087Y-73785390D01*
X109220000Y-73670600D01*
X108642913Y-73785390D01*
X108153683Y-74112283D01*
X107950000Y-74417116D01*
X107746317Y-74112283D01*
X107257087Y-73785390D01*
X106680000Y-73670600D01*
X106102913Y-73785390D01*
X105613683Y-74112283D01*
X105410000Y-74417116D01*
X105206317Y-74112283D01*
X104717087Y-73785390D01*
X104140000Y-73670600D01*
X103562913Y-73785390D01*
X103073683Y-74112283D01*
X102870000Y-74417116D01*
X102666317Y-74112283D01*
X102177087Y-73785390D01*
X101600000Y-73670600D01*
X101022913Y-73785390D01*
X100533683Y-74112283D01*
X100330000Y-74417116D01*
X100126317Y-74112283D01*
X99637087Y-73785390D01*
X99060000Y-73670600D01*
X98482913Y-73785390D01*
X97993683Y-74112283D01*
X97790000Y-74417116D01*
X97586317Y-74112283D01*
X97097087Y-73785390D01*
X96520000Y-73670600D01*
X95942913Y-73785390D01*
X95453683Y-74112283D01*
X95250000Y-74417116D01*
X95046317Y-74112283D01*
X94557087Y-73785390D01*
X93980000Y-73670600D01*
X93402913Y-73785390D01*
X92913683Y-74112283D01*
X92586790Y-74601513D01*
X92472000Y-75178600D01*
X92472000Y-75951400D01*
X92586790Y-76528487D01*
X92913683Y-77017717D01*
X93402913Y-77344610D01*
X93980000Y-77459400D01*
X94557087Y-77344610D01*
X95046317Y-77017717D01*
X95250000Y-76712884D01*
X95453683Y-77017717D01*
X95942913Y-77344610D01*
X96520000Y-77459400D01*
X97097087Y-77344610D01*
X97586317Y-77017717D01*
X97790000Y-76712884D01*
X97993683Y-77017717D01*
X98482913Y-77344610D01*
X99060000Y-77459400D01*
X99637087Y-77344610D01*
X100126317Y-77017717D01*
X100330000Y-76712884D01*
X100533683Y-77017717D01*
X101022913Y-77344610D01*
X101600000Y-77459400D01*
X102177087Y-77344610D01*
X102666317Y-77017717D01*
X102870000Y-76712884D01*
X103073683Y-77017717D01*
X103562913Y-77344610D01*
X104140000Y-77459400D01*
X104717087Y-77344610D01*
X105206317Y-77017717D01*
X105410000Y-76712884D01*
X105613683Y-77017717D01*
X106102913Y-77344610D01*
X106680000Y-77459400D01*
X107257087Y-77344610D01*
X107746317Y-77017717D01*
X107950000Y-76712884D01*
X108153683Y-77017717D01*
X108232000Y-77070047D01*
X108232000Y-78032860D01*
X108127631Y-78052498D01*
X107886661Y-78207558D01*
X107725003Y-78444152D01*
X107668130Y-78725000D01*
X107668130Y-80025000D01*
X107717498Y-80287369D01*
X107872558Y-80528339D01*
X108109152Y-80689997D01*
X108217313Y-80711900D01*
X106155200Y-80711900D01*
X105807723Y-80781017D01*
X105513147Y-80977847D01*
X104937997Y-81552997D01*
X104717087Y-81405390D01*
X104140000Y-81290600D01*
X103562913Y-81405390D01*
X103073683Y-81732283D01*
X102870000Y-82037116D01*
X102666317Y-81732283D01*
X102177087Y-81405390D01*
X101600000Y-81290600D01*
X101022913Y-81405390D01*
X100533683Y-81732283D01*
X100330000Y-82037116D01*
X100126317Y-81732283D01*
X99637087Y-81405390D01*
X99060000Y-81290600D01*
X98482913Y-81405390D01*
X97993683Y-81732283D01*
X97790000Y-82037116D01*
X97586317Y-81732283D01*
X97428000Y-81626499D01*
X97428000Y-80732193D01*
X97612369Y-80697502D01*
X97853339Y-80542442D01*
X98014997Y-80305848D01*
X98071870Y-80025000D01*
X98071870Y-78725000D01*
X98022502Y-78462631D01*
X97867442Y-78221661D01*
X97630848Y-78060003D01*
X97350000Y-78003130D01*
X95850000Y-78003130D01*
X95587631Y-78052498D01*
X95346661Y-78207558D01*
X95256599Y-78339368D01*
X95250213Y-78323950D01*
X95051050Y-78124787D01*
X94790830Y-78017000D01*
X94082000Y-78017000D01*
X93905000Y-78194000D01*
X93905000Y-79370000D01*
X93925000Y-79370000D01*
X93925000Y-79380000D01*
X93905000Y-79380000D01*
X93905000Y-80556000D01*
X94082000Y-80733000D01*
X94790830Y-80733000D01*
X95051050Y-80625213D01*
X95250213Y-80426050D01*
X95256684Y-80410428D01*
X95332558Y-80528339D01*
X95569152Y-80689997D01*
X95612000Y-80698674D01*
X95612000Y-81626499D01*
X95453683Y-81732283D01*
X95237950Y-82055151D01*
X95042782Y-81765147D01*
X94552468Y-81439876D01*
X94220840Y-81346356D01*
X93985000Y-81504009D01*
X93985000Y-83180000D01*
X94005000Y-83180000D01*
X94005000Y-83190000D01*
X93985000Y-83190000D01*
X93985000Y-84865991D01*
X94220840Y-85023644D01*
X94552468Y-84930124D01*
X95042782Y-84604853D01*
X95237950Y-84314849D01*
X95453683Y-84637717D01*
X95942913Y-84964610D01*
X96520000Y-85079400D01*
X97029040Y-84978146D01*
X97782947Y-85732053D01*
X98077523Y-85928883D01*
X98425000Y-85998000D01*
X105378306Y-85998000D01*
X105359962Y-86016312D01*
X105122271Y-86588735D01*
X105121730Y-87208546D01*
X105282385Y-87597359D01*
X105165003Y-87769152D01*
X105108130Y-88050000D01*
X105108130Y-89750000D01*
X105157498Y-90012369D01*
X105312558Y-90253339D01*
X105549152Y-90414997D01*
X105830000Y-90471870D01*
X107530000Y-90471870D01*
X107792369Y-90422502D01*
X108033339Y-90267442D01*
X108194997Y-90030848D01*
X108251870Y-89750000D01*
X108251870Y-88050000D01*
X108202502Y-87787631D01*
X108078451Y-87594850D01*
X108237729Y-87211265D01*
X108238270Y-86591454D01*
X108001578Y-86018617D01*
X107980997Y-85998000D01*
X110114102Y-85998000D01*
X110236342Y-86120144D01*
X110438215Y-86608714D01*
X110876001Y-87047265D01*
X111448289Y-87284899D01*
X112067953Y-87285440D01*
X112640654Y-87048805D01*
X113079205Y-86611019D01*
X113316839Y-86038731D01*
X113317380Y-85419067D01*
X113080745Y-84846366D01*
X112829576Y-84594758D01*
X113151297Y-84116706D01*
X113204364Y-83854470D01*
X119792300Y-90442406D01*
X119792300Y-94665600D01*
X119861417Y-95013077D01*
X120058247Y-95307653D01*
X125442594Y-100692000D01*
X118525769Y-100692000D01*
X118597775Y-100330000D01*
X118478144Y-99728575D01*
X118181903Y-99285219D01*
X118359339Y-99171042D01*
X118520997Y-98934448D01*
X118577870Y-98653600D01*
X118577870Y-96926400D01*
X118528502Y-96664031D01*
X118373442Y-96423061D01*
X118136848Y-96261403D01*
X117856000Y-96204530D01*
X115824000Y-96204530D01*
X115561631Y-96253898D01*
X115320661Y-96408958D01*
X115208000Y-96573843D01*
X115208000Y-95525500D01*
X115544954Y-95525500D01*
X115956001Y-95937265D01*
X116528289Y-96174899D01*
X117147953Y-96175440D01*
X117720654Y-95938805D01*
X118159205Y-95501019D01*
X118396839Y-94928731D01*
X118397380Y-94309067D01*
X118160745Y-93736366D01*
X117722959Y-93297815D01*
X117150671Y-93060181D01*
X116531007Y-93059640D01*
X115958306Y-93296275D01*
X115544359Y-93709500D01*
X114303000Y-93709500D01*
X114160421Y-93737861D01*
X114016175Y-93755992D01*
X113987683Y-93772220D01*
X113955523Y-93778617D01*
X113834646Y-93859385D01*
X113708323Y-93931334D01*
X113705323Y-93933934D01*
X113686171Y-93958593D01*
X113660947Y-93975447D01*
X113660228Y-93976523D01*
X113657947Y-93978047D01*
X113577181Y-94098922D01*
X113488005Y-94213739D01*
X113479333Y-94245361D01*
X113461117Y-94272623D01*
X113432756Y-94415203D01*
X113394307Y-94555408D01*
X113398396Y-94587942D01*
X113392000Y-94620100D01*
X113392000Y-96023194D01*
X112931653Y-95562847D01*
X112637077Y-95366017D01*
X112289600Y-95296900D01*
X108715200Y-95296900D01*
X108367723Y-95366017D01*
X108169129Y-95498714D01*
X108073147Y-95562847D01*
X107477997Y-96157997D01*
X107257087Y-96010390D01*
X106680000Y-95895600D01*
X106102913Y-96010390D01*
X105613683Y-96337283D01*
X105410000Y-96642116D01*
X105206317Y-96337283D01*
X104717087Y-96010390D01*
X104140000Y-95895600D01*
X103562913Y-96010390D01*
X103073683Y-96337283D01*
X102870000Y-96642116D01*
X102666317Y-96337283D01*
X102177087Y-96010390D01*
X101600000Y-95895600D01*
X101022913Y-96010390D01*
X100533683Y-96337283D01*
X100330000Y-96642116D01*
X100126317Y-96337283D01*
X99637087Y-96010390D01*
X99060000Y-95895600D01*
X98482913Y-96010390D01*
X97993683Y-96337283D01*
X97790000Y-96642116D01*
X97586317Y-96337283D01*
X97097087Y-96010390D01*
X96520000Y-95895600D01*
X95942913Y-96010390D01*
X95453683Y-96337283D01*
X95250000Y-96642116D01*
X95046317Y-96337283D01*
X94557087Y-96010390D01*
X93980000Y-95895600D01*
X93402913Y-96010390D01*
X92913683Y-96337283D01*
X92586790Y-96826513D01*
X92472000Y-97403600D01*
X92472000Y-98176400D01*
X92586790Y-98753487D01*
X92913683Y-99242717D01*
X93402913Y-99569610D01*
X93980000Y-99684400D01*
X94557087Y-99569610D01*
X95046317Y-99242717D01*
X95250000Y-98937884D01*
X95453683Y-99242717D01*
X95602165Y-99341929D01*
X94702094Y-100242000D01*
X94082000Y-100242000D01*
X93905000Y-100419000D01*
X93905000Y-101595000D01*
X93925000Y-101595000D01*
X93925000Y-101605000D01*
X93905000Y-101605000D01*
X93905000Y-102781000D01*
X94082000Y-102958000D01*
X94342000Y-102958000D01*
X94342000Y-103605523D01*
X94220840Y-103571356D01*
X93985000Y-103729009D01*
X93985000Y-105405000D01*
X94005000Y-105405000D01*
X94005000Y-105415000D01*
X93985000Y-105415000D01*
X93985000Y-107090991D01*
X94220840Y-107248644D01*
X94342000Y-107214477D01*
X94342000Y-108213200D01*
X94411117Y-108560677D01*
X94607947Y-108855253D01*
X98480824Y-112728130D01*
X98210000Y-112728130D01*
X97947631Y-112777498D01*
X97706661Y-112932558D01*
X97545003Y-113169152D01*
X97488130Y-113450000D01*
X97488130Y-115150000D01*
X97537498Y-115412369D01*
X97661549Y-115605150D01*
X97502271Y-115988735D01*
X97501730Y-116608546D01*
X97738422Y-117181383D01*
X98176312Y-117620038D01*
X98748735Y-117857729D01*
X99368546Y-117858270D01*
X99941383Y-117621578D01*
X100380038Y-117183688D01*
X100617729Y-116611265D01*
X100618270Y-115991454D01*
X100457615Y-115602641D01*
X100574997Y-115430848D01*
X100631870Y-115150000D01*
X100631870Y-114693913D01*
X100870100Y-114741300D01*
X102418130Y-114741300D01*
X102418130Y-116316000D01*
X102467498Y-116578369D01*
X102622558Y-116819339D01*
X102859152Y-116980997D01*
X103140000Y-117037870D01*
X105140000Y-117037870D01*
X105402369Y-116988502D01*
X105643339Y-116833442D01*
X105699448Y-116751324D01*
X105711232Y-116763128D01*
X106338767Y-117023703D01*
X107018252Y-117024296D01*
X107646240Y-116764816D01*
X108127128Y-116284768D01*
X108387703Y-115657233D01*
X108388296Y-114977748D01*
X108290597Y-114741300D01*
X120036094Y-114741300D01*
X126586847Y-121292053D01*
X126881423Y-121488883D01*
X127228900Y-121558000D01*
X130405972Y-121558000D01*
X130493802Y-121689447D01*
X130838849Y-121920000D01*
X130493802Y-122150553D01*
X130405400Y-122282855D01*
X130062223Y-122351117D01*
X129767647Y-122547947D01*
X129525594Y-122790000D01*
X118525769Y-122790000D01*
X118597775Y-122428000D01*
X118478144Y-121826575D01*
X118181903Y-121383219D01*
X118359339Y-121269042D01*
X118520997Y-121032448D01*
X118577870Y-120751600D01*
X118577870Y-119024400D01*
X118528502Y-118762031D01*
X118373442Y-118521061D01*
X118136848Y-118359403D01*
X117856000Y-118302530D01*
X117384914Y-118302530D01*
X117720654Y-118163805D01*
X118159205Y-117726019D01*
X118396839Y-117153731D01*
X118397380Y-116534067D01*
X118160745Y-115961366D01*
X117722959Y-115522815D01*
X117150671Y-115285181D01*
X116531007Y-115284640D01*
X115958306Y-115521275D01*
X115543858Y-115935000D01*
X114303000Y-115935000D01*
X114215754Y-115952354D01*
X114126790Y-115952261D01*
X114043695Y-115986579D01*
X113955523Y-116004117D01*
X113952533Y-116006115D01*
X113952523Y-116006117D01*
X113881537Y-116053548D01*
X113799333Y-116087498D01*
X113796332Y-116089498D01*
X113732696Y-116153001D01*
X113657947Y-116202947D01*
X113608524Y-116276914D01*
X113545553Y-116339753D01*
X113511063Y-116422773D01*
X113461117Y-116497523D01*
X113443761Y-116584776D01*
X113409633Y-116666927D01*
X113409539Y-116756826D01*
X113392000Y-116845000D01*
X113392000Y-121920000D01*
X113461117Y-122267477D01*
X113657947Y-122562053D01*
X114032241Y-122936347D01*
X113853247Y-123055947D01*
X113298000Y-123611194D01*
X113298000Y-123034170D01*
X113190213Y-122773950D01*
X112991050Y-122574787D01*
X112730830Y-122467000D01*
X112022000Y-122467000D01*
X111845000Y-122644000D01*
X111845000Y-123820000D01*
X111865000Y-123820000D01*
X111865000Y-123830000D01*
X111845000Y-123830000D01*
X111845000Y-123850000D01*
X111835000Y-123850000D01*
X111835000Y-123830000D01*
X111815000Y-123830000D01*
X111815000Y-123820000D01*
X111835000Y-123820000D01*
X111835000Y-122644000D01*
X111658000Y-122467000D01*
X110949170Y-122467000D01*
X110688950Y-122574787D01*
X110489787Y-122773950D01*
X110483316Y-122789572D01*
X110407442Y-122671661D01*
X110170848Y-122510003D01*
X110048000Y-122485126D01*
X110048000Y-121626955D01*
X110286317Y-121467717D01*
X110502050Y-121144849D01*
X110697218Y-121434853D01*
X111187532Y-121760124D01*
X111519160Y-121853644D01*
X111755000Y-121695991D01*
X111755000Y-120020000D01*
X111765000Y-120020000D01*
X111765000Y-121695991D01*
X112000840Y-121853644D01*
X112332468Y-121760124D01*
X112822782Y-121434853D01*
X113151297Y-120946706D01*
X113268000Y-120370000D01*
X113268000Y-120020000D01*
X111765000Y-120020000D01*
X111755000Y-120020000D01*
X111735000Y-120020000D01*
X111735000Y-120010000D01*
X111755000Y-120010000D01*
X111755000Y-118334009D01*
X111765000Y-118334009D01*
X111765000Y-120010000D01*
X113268000Y-120010000D01*
X113268000Y-119660000D01*
X113151297Y-119083294D01*
X112822782Y-118595147D01*
X112332468Y-118269876D01*
X112000840Y-118176356D01*
X111765000Y-118334009D01*
X111755000Y-118334009D01*
X111519160Y-118176356D01*
X111187532Y-118269876D01*
X110697218Y-118595147D01*
X110502050Y-118885151D01*
X110286317Y-118562283D01*
X109797087Y-118235390D01*
X109220000Y-118120600D01*
X108642913Y-118235390D01*
X108153683Y-118562283D01*
X107950000Y-118867116D01*
X107746317Y-118562283D01*
X107257087Y-118235390D01*
X106680000Y-118120600D01*
X106102913Y-118235390D01*
X105613683Y-118562283D01*
X105410000Y-118867116D01*
X105206317Y-118562283D01*
X104717087Y-118235390D01*
X104140000Y-118120600D01*
X103562913Y-118235390D01*
X103073683Y-118562283D01*
X102870000Y-118867116D01*
X102666317Y-118562283D01*
X102177087Y-118235390D01*
X101600000Y-118120600D01*
X101022913Y-118235390D01*
X100533683Y-118562283D01*
X100330000Y-118867116D01*
X100126317Y-118562283D01*
X99637087Y-118235390D01*
X99060000Y-118120600D01*
X98482913Y-118235390D01*
X97993683Y-118562283D01*
X97790000Y-118867116D01*
X97586317Y-118562283D01*
X97097087Y-118235390D01*
X96520000Y-118120600D01*
X95942913Y-118235390D01*
X95453683Y-118562283D01*
X95250000Y-118867116D01*
X95046317Y-118562283D01*
X94557087Y-118235390D01*
X93980000Y-118120600D01*
X93402913Y-118235390D01*
X92913683Y-118562283D01*
X92586790Y-119051513D01*
X92472000Y-119628600D01*
X92472000Y-120401400D01*
X92586790Y-120978487D01*
X92913683Y-121467717D01*
X93402913Y-121794610D01*
X93980000Y-121909400D01*
X94557087Y-121794610D01*
X95046317Y-121467717D01*
X95250000Y-121162884D01*
X95453683Y-121467717D01*
X95942913Y-121794610D01*
X96520000Y-121909400D01*
X97097087Y-121794610D01*
X97586317Y-121467717D01*
X97790000Y-121162884D01*
X97993683Y-121467717D01*
X98482913Y-121794610D01*
X99060000Y-121909400D01*
X99637087Y-121794610D01*
X100126317Y-121467717D01*
X100330000Y-121162884D01*
X100533683Y-121467717D01*
X101022913Y-121794610D01*
X101600000Y-121909400D01*
X102177087Y-121794610D01*
X102397997Y-121647003D01*
X105938996Y-125188002D01*
X105828824Y-125209916D01*
X105534247Y-125406747D01*
X104937997Y-126002997D01*
X104717087Y-125855390D01*
X104140000Y-125740600D01*
X103562913Y-125855390D01*
X103073683Y-126182283D01*
X102870000Y-126487116D01*
X102666317Y-126182283D01*
X102177087Y-125855390D01*
X101600000Y-125740600D01*
X101022913Y-125855390D01*
X100533683Y-126182283D01*
X100330000Y-126487116D01*
X100126317Y-126182283D01*
X99637087Y-125855390D01*
X99060000Y-125740600D01*
X98482913Y-125855390D01*
X97993683Y-126182283D01*
X97790000Y-126487116D01*
X97586317Y-126182283D01*
X97508000Y-126129953D01*
X97508000Y-125167140D01*
X97612369Y-125147502D01*
X97853339Y-124992442D01*
X98014997Y-124755848D01*
X98071870Y-124475000D01*
X98071870Y-123175000D01*
X98022502Y-122912631D01*
X97867442Y-122671661D01*
X97630848Y-122510003D01*
X97350000Y-122453130D01*
X95850000Y-122453130D01*
X95587631Y-122502498D01*
X95346661Y-122657558D01*
X95256599Y-122789368D01*
X95250213Y-122773950D01*
X95051050Y-122574787D01*
X94790830Y-122467000D01*
X94082000Y-122467000D01*
X93905000Y-122644000D01*
X93905000Y-123820000D01*
X93925000Y-123820000D01*
X93925000Y-123830000D01*
X93905000Y-123830000D01*
X93905000Y-125006000D01*
X94082000Y-125183000D01*
X94790830Y-125183000D01*
X95051050Y-125075213D01*
X95250213Y-124876050D01*
X95256684Y-124860428D01*
X95332558Y-124978339D01*
X95569152Y-125139997D01*
X95692000Y-125164874D01*
X95692000Y-126023045D01*
X95453683Y-126182283D01*
X95237950Y-126505151D01*
X95042782Y-126215147D01*
X94552468Y-125889876D01*
X94220840Y-125796356D01*
X93985000Y-125954009D01*
X93985000Y-127630000D01*
X94005000Y-127630000D01*
X94005000Y-127640000D01*
X93985000Y-127640000D01*
X93985000Y-129315991D01*
X94220840Y-129473644D01*
X94552468Y-129380124D01*
X95042782Y-129054853D01*
X95237950Y-128764849D01*
X95453683Y-129087717D01*
X95942913Y-129414610D01*
X96520000Y-129529400D01*
X97029040Y-129428146D01*
X97782947Y-130182053D01*
X98077523Y-130378883D01*
X98425000Y-130448000D01*
X98537098Y-130448000D01*
X98093760Y-130631184D01*
X97612872Y-131111232D01*
X97352297Y-131738767D01*
X97351704Y-132418252D01*
X97611184Y-133046240D01*
X98091232Y-133527128D01*
X98718767Y-133787703D01*
X99398252Y-133788296D01*
X100026240Y-133528816D01*
X100039169Y-133515910D01*
X100082558Y-133583339D01*
X100319152Y-133744997D01*
X100600000Y-133801870D01*
X102600000Y-133801870D01*
X102862369Y-133752502D01*
X103103339Y-133597442D01*
X103264997Y-133360848D01*
X103321870Y-133080000D01*
X103321870Y-131080000D01*
X103272502Y-130817631D01*
X103117442Y-130576661D01*
X102929141Y-130448000D01*
X105378306Y-130448000D01*
X105359962Y-130466312D01*
X105122271Y-131038735D01*
X105121730Y-131658546D01*
X105282385Y-132047359D01*
X105165003Y-132219152D01*
X105108130Y-132500000D01*
X105108130Y-134200000D01*
X105157498Y-134462369D01*
X105312558Y-134703339D01*
X105549152Y-134864997D01*
X105830000Y-134921870D01*
X107530000Y-134921870D01*
X107792369Y-134872502D01*
X108033339Y-134717442D01*
X108194997Y-134480848D01*
X108251870Y-134200000D01*
X108251870Y-133053252D01*
X117036704Y-133053252D01*
X117296184Y-133681240D01*
X117776232Y-134162128D01*
X118403767Y-134422703D01*
X119083252Y-134423296D01*
X119711240Y-134163816D01*
X120192128Y-133683768D01*
X120452703Y-133056233D01*
X120453296Y-132376748D01*
X120193816Y-131748760D01*
X119713768Y-131267872D01*
X119086233Y-131007297D01*
X118406748Y-131006704D01*
X117778760Y-131266184D01*
X117297872Y-131746232D01*
X117037297Y-132373767D01*
X117036704Y-133053252D01*
X108251870Y-133053252D01*
X108251870Y-132500000D01*
X108202502Y-132237631D01*
X108078451Y-132044850D01*
X108237729Y-131661265D01*
X108238270Y-131041454D01*
X108001578Y-130468617D01*
X107980997Y-130448000D01*
X110201613Y-130448000D01*
X110201580Y-130486013D01*
X110438215Y-131058714D01*
X110876001Y-131497265D01*
X111448289Y-131734899D01*
X112067953Y-131735440D01*
X112640654Y-131498805D01*
X113079205Y-131061019D01*
X113316839Y-130488731D01*
X113317380Y-129869067D01*
X113093779Y-129327910D01*
X120347980Y-129327910D01*
X120347980Y-131027170D01*
X120397348Y-131289539D01*
X120552408Y-131530509D01*
X120789002Y-131692167D01*
X121069850Y-131749040D01*
X122769110Y-131749040D01*
X123031479Y-131699672D01*
X123272449Y-131544612D01*
X123434107Y-131308018D01*
X123490980Y-131027170D01*
X123490980Y-129327910D01*
X123441612Y-129065541D01*
X123286552Y-128824571D01*
X123049958Y-128662913D01*
X122769110Y-128606040D01*
X121069850Y-128606040D01*
X120807481Y-128655408D01*
X120566511Y-128810468D01*
X120404853Y-129047062D01*
X120347980Y-129327910D01*
X113093779Y-129327910D01*
X113080745Y-129296366D01*
X112829576Y-129044758D01*
X113151297Y-128566706D01*
X113268000Y-127990000D01*
X113268000Y-127758790D01*
X115136139Y-127758790D01*
X115233717Y-128104806D01*
X115572775Y-128615754D01*
X116081555Y-128958056D01*
X116682600Y-129079600D01*
X116835000Y-129079600D01*
X116835000Y-127513000D01*
X116845000Y-127513000D01*
X116845000Y-129079600D01*
X116997400Y-129079600D01*
X117598445Y-128958056D01*
X118107225Y-128615754D01*
X118446283Y-128104806D01*
X118543861Y-127758790D01*
X118386991Y-127513000D01*
X116845000Y-127513000D01*
X116835000Y-127513000D01*
X115293009Y-127513000D01*
X115136139Y-127758790D01*
X113268000Y-127758790D01*
X113268000Y-127640000D01*
X111765000Y-127640000D01*
X111765000Y-127660000D01*
X111755000Y-127660000D01*
X111755000Y-127640000D01*
X111735000Y-127640000D01*
X111735000Y-127630000D01*
X111755000Y-127630000D01*
X111755000Y-127610000D01*
X111765000Y-127610000D01*
X111765000Y-127630000D01*
X113268000Y-127630000D01*
X113268000Y-127280000D01*
X113202597Y-126956800D01*
X115220856Y-126956800D01*
X115136139Y-127257210D01*
X115293009Y-127503000D01*
X116835000Y-127503000D01*
X116835000Y-127483000D01*
X116845000Y-127483000D01*
X116845000Y-127503000D01*
X118386991Y-127503000D01*
X118543861Y-127257210D01*
X118446283Y-126911194D01*
X118354989Y-126773617D01*
X119216606Y-125912000D01*
X120382000Y-125912000D01*
X120382000Y-126520830D01*
X120489787Y-126781050D01*
X120688950Y-126980213D01*
X120949170Y-127088000D01*
X121658000Y-127088000D01*
X121835000Y-126911000D01*
X121835000Y-125735000D01*
X120559000Y-125735000D01*
X120382000Y-125912000D01*
X119216606Y-125912000D01*
X119760606Y-125368000D01*
X120382000Y-125368000D01*
X120382000Y-125548000D01*
X120559000Y-125725000D01*
X121835000Y-125725000D01*
X121835000Y-125705000D01*
X121845000Y-125705000D01*
X121845000Y-125725000D01*
X121865000Y-125725000D01*
X121865000Y-125735000D01*
X121845000Y-125735000D01*
X121845000Y-126911000D01*
X122022000Y-127088000D01*
X122730830Y-127088000D01*
X122991050Y-126980213D01*
X123190213Y-126781050D01*
X123196684Y-126765428D01*
X123272558Y-126883339D01*
X123509152Y-127044997D01*
X123790000Y-127101870D01*
X125290000Y-127101870D01*
X125552369Y-127052502D01*
X125793339Y-126897442D01*
X125954997Y-126660848D01*
X125959624Y-126638000D01*
X130405972Y-126638000D01*
X130493802Y-126769447D01*
X130838849Y-127000000D01*
X130493802Y-127230553D01*
X130175146Y-127707455D01*
X130063249Y-128270000D01*
X130175146Y-128832545D01*
X130493802Y-129309447D01*
X130838849Y-129540000D01*
X130493802Y-129770553D01*
X130175146Y-130247455D01*
X130063249Y-130810000D01*
X130175146Y-131372545D01*
X130493802Y-131849447D01*
X130970704Y-132168103D01*
X131533249Y-132280000D01*
X132626751Y-132280000D01*
X133189296Y-132168103D01*
X133666198Y-131849447D01*
X133862000Y-131556409D01*
X133862000Y-131766026D01*
X133036026Y-132592000D01*
X121920000Y-132592000D01*
X121629925Y-132649699D01*
X121384013Y-132814013D01*
X119066026Y-135132000D01*
X86673974Y-135132000D01*
X84595226Y-133053252D01*
X85921704Y-133053252D01*
X86181184Y-133681240D01*
X86661232Y-134162128D01*
X87288767Y-134422703D01*
X87968252Y-134423296D01*
X88596240Y-134163816D01*
X89077128Y-133683768D01*
X89337703Y-133056233D01*
X89338296Y-132376748D01*
X89078816Y-131748760D01*
X88598768Y-131267872D01*
X87971233Y-131007297D01*
X87291748Y-131006704D01*
X86663760Y-131266184D01*
X86182872Y-131746232D01*
X85922297Y-132373767D01*
X85921704Y-133053252D01*
X84595226Y-133053252D01*
X84355987Y-132814013D01*
X84110074Y-132649699D01*
X83820000Y-132592000D01*
X82038000Y-132592000D01*
X82038000Y-131556409D01*
X82233802Y-131849447D01*
X82710704Y-132168103D01*
X83273249Y-132280000D01*
X84366751Y-132280000D01*
X84929296Y-132168103D01*
X85406198Y-131849447D01*
X85724854Y-131372545D01*
X85836751Y-130810000D01*
X85724854Y-130247455D01*
X85406198Y-129770553D01*
X85061151Y-129540000D01*
X85406198Y-129309447D01*
X85724854Y-128832545D01*
X85836751Y-128270000D01*
X85760327Y-127885790D01*
X87196139Y-127885790D01*
X87293717Y-128231806D01*
X87632775Y-128742754D01*
X88141555Y-129085056D01*
X88742600Y-129206600D01*
X88895000Y-129206600D01*
X88895000Y-127640000D01*
X88905000Y-127640000D01*
X88905000Y-129206600D01*
X89057400Y-129206600D01*
X89658445Y-129085056D01*
X90167225Y-128742754D01*
X90506283Y-128231806D01*
X90603861Y-127885790D01*
X90446991Y-127640000D01*
X92472000Y-127640000D01*
X92472000Y-127990000D01*
X92588703Y-128566706D01*
X92917218Y-129054853D01*
X93407532Y-129380124D01*
X93739160Y-129473644D01*
X93975000Y-129315991D01*
X93975000Y-127640000D01*
X92472000Y-127640000D01*
X90446991Y-127640000D01*
X88905000Y-127640000D01*
X88895000Y-127640000D01*
X87353009Y-127640000D01*
X87196139Y-127885790D01*
X85760327Y-127885790D01*
X85724854Y-127707455D01*
X85406198Y-127230553D01*
X85061151Y-127000000D01*
X85406198Y-126769447D01*
X85724854Y-126292545D01*
X85836751Y-125730000D01*
X85724854Y-125167455D01*
X85673219Y-125090177D01*
X87400089Y-123363306D01*
X87602536Y-123666289D01*
X87840064Y-123825000D01*
X87602536Y-123983711D01*
X87261856Y-124493575D01*
X87142225Y-125095000D01*
X87261856Y-125696425D01*
X87602536Y-126206289D01*
X87857055Y-126376353D01*
X87632775Y-126527246D01*
X87293717Y-127038194D01*
X87196139Y-127384210D01*
X87353009Y-127630000D01*
X88895000Y-127630000D01*
X88895000Y-127610000D01*
X88905000Y-127610000D01*
X88905000Y-127630000D01*
X90446991Y-127630000D01*
X90603861Y-127384210D01*
X90574474Y-127280000D01*
X92472000Y-127280000D01*
X92472000Y-127630000D01*
X93975000Y-127630000D01*
X93975000Y-125954009D01*
X93739160Y-125796356D01*
X93407532Y-125889876D01*
X92917218Y-126215147D01*
X92588703Y-126703294D01*
X92472000Y-127280000D01*
X90574474Y-127280000D01*
X90506283Y-127038194D01*
X90167225Y-126527246D01*
X89942945Y-126376353D01*
X90197464Y-126206289D01*
X90538144Y-125696425D01*
X90657775Y-125095000D01*
X90538144Y-124493575D01*
X90213026Y-124007000D01*
X92442000Y-124007000D01*
X92442000Y-124615830D01*
X92549787Y-124876050D01*
X92748950Y-125075213D01*
X93009170Y-125183000D01*
X93718000Y-125183000D01*
X93895000Y-125006000D01*
X93895000Y-123830000D01*
X92619000Y-123830000D01*
X92442000Y-124007000D01*
X90213026Y-124007000D01*
X90197464Y-123983711D01*
X89959936Y-123825000D01*
X90197464Y-123666289D01*
X90538144Y-123156425D01*
X90562462Y-123034170D01*
X92442000Y-123034170D01*
X92442000Y-123643000D01*
X92619000Y-123820000D01*
X93895000Y-123820000D01*
X93895000Y-122644000D01*
X93718000Y-122467000D01*
X93009170Y-122467000D01*
X92748950Y-122574787D01*
X92549787Y-122773950D01*
X92442000Y-123034170D01*
X90562462Y-123034170D01*
X90657775Y-122555000D01*
X90538144Y-121953575D01*
X90241903Y-121510219D01*
X90419339Y-121396042D01*
X90580997Y-121159448D01*
X90637870Y-120878600D01*
X90637870Y-119151400D01*
X90588502Y-118889031D01*
X90433442Y-118648061D01*
X90196848Y-118486403D01*
X89916000Y-118429530D01*
X87980000Y-118429530D01*
X87980000Y-106751363D01*
X88141555Y-106860056D01*
X88742600Y-106981600D01*
X88895000Y-106981600D01*
X88895000Y-105415000D01*
X88905000Y-105415000D01*
X88905000Y-106981600D01*
X89057400Y-106981600D01*
X89658445Y-106860056D01*
X90167225Y-106517754D01*
X90506283Y-106006806D01*
X90603861Y-105660790D01*
X90446991Y-105415000D01*
X92472000Y-105415000D01*
X92472000Y-105765000D01*
X92588703Y-106341706D01*
X92917218Y-106829853D01*
X93407532Y-107155124D01*
X93739160Y-107248644D01*
X93975000Y-107090991D01*
X93975000Y-105415000D01*
X92472000Y-105415000D01*
X90446991Y-105415000D01*
X88905000Y-105415000D01*
X88895000Y-105415000D01*
X88875000Y-105415000D01*
X88875000Y-105405000D01*
X88895000Y-105405000D01*
X88895000Y-105385000D01*
X88905000Y-105385000D01*
X88905000Y-105405000D01*
X90446991Y-105405000D01*
X90603861Y-105159210D01*
X90574474Y-105055000D01*
X92472000Y-105055000D01*
X92472000Y-105405000D01*
X93975000Y-105405000D01*
X93975000Y-103729009D01*
X93739160Y-103571356D01*
X93407532Y-103664876D01*
X92917218Y-103990147D01*
X92588703Y-104478294D01*
X92472000Y-105055000D01*
X90574474Y-105055000D01*
X90506283Y-104813194D01*
X90167225Y-104302246D01*
X89942945Y-104151353D01*
X90197464Y-103981289D01*
X90538144Y-103471425D01*
X90657775Y-102870000D01*
X90538144Y-102268575D01*
X90213026Y-101782000D01*
X92442000Y-101782000D01*
X92442000Y-102390830D01*
X92549787Y-102651050D01*
X92748950Y-102850213D01*
X93009170Y-102958000D01*
X93718000Y-102958000D01*
X93895000Y-102781000D01*
X93895000Y-101605000D01*
X92619000Y-101605000D01*
X92442000Y-101782000D01*
X90213026Y-101782000D01*
X90197464Y-101758711D01*
X89959936Y-101600000D01*
X90197464Y-101441289D01*
X90538144Y-100931425D01*
X90562462Y-100809170D01*
X92442000Y-100809170D01*
X92442000Y-101418000D01*
X92619000Y-101595000D01*
X93895000Y-101595000D01*
X93895000Y-100419000D01*
X93718000Y-100242000D01*
X93009170Y-100242000D01*
X92748950Y-100349787D01*
X92549787Y-100548950D01*
X92442000Y-100809170D01*
X90562462Y-100809170D01*
X90657775Y-100330000D01*
X90538144Y-99728575D01*
X90241903Y-99285219D01*
X90419339Y-99171042D01*
X90580997Y-98934448D01*
X90637870Y-98653600D01*
X90637870Y-96926400D01*
X90588502Y-96664031D01*
X90433442Y-96423061D01*
X90196848Y-96261403D01*
X89916000Y-96204530D01*
X88904865Y-96204530D01*
X89488725Y-95620670D01*
X89501425Y-95618144D01*
X90011289Y-95277464D01*
X90351969Y-94767600D01*
X90471600Y-94166175D01*
X90471600Y-93793825D01*
X90351969Y-93192400D01*
X90011289Y-92682536D01*
X89501425Y-92341856D01*
X88900000Y-92222225D01*
X88488000Y-92304177D01*
X88488000Y-92099823D01*
X88900000Y-92181775D01*
X89501425Y-92062144D01*
X90011289Y-91721464D01*
X90343015Y-91225000D01*
X97488130Y-91225000D01*
X97488130Y-92925000D01*
X97537498Y-93187369D01*
X97661549Y-93380150D01*
X97502271Y-93763735D01*
X97501730Y-94383546D01*
X97738422Y-94956383D01*
X98176312Y-95395038D01*
X98748735Y-95632729D01*
X99368546Y-95633270D01*
X99941383Y-95396578D01*
X100380038Y-94958688D01*
X100617729Y-94386265D01*
X100618270Y-93766454D01*
X100457615Y-93377641D01*
X100574997Y-93205848D01*
X100631870Y-92925000D01*
X100631870Y-91964000D01*
X102418130Y-91964000D01*
X102418130Y-93964000D01*
X102467498Y-94226369D01*
X102622558Y-94467339D01*
X102859152Y-94628997D01*
X103140000Y-94685870D01*
X105140000Y-94685870D01*
X105402369Y-94636502D01*
X105643339Y-94481442D01*
X105699448Y-94399324D01*
X105711232Y-94411128D01*
X106338767Y-94671703D01*
X107018252Y-94672296D01*
X107646240Y-94412816D01*
X108127128Y-93932768D01*
X108387703Y-93305233D01*
X108388296Y-92625748D01*
X108128816Y-91997760D01*
X107648768Y-91516872D01*
X107021233Y-91256297D01*
X106341748Y-91255704D01*
X105713760Y-91515184D01*
X105700831Y-91528090D01*
X105657442Y-91460661D01*
X105420848Y-91299003D01*
X105140000Y-91242130D01*
X103140000Y-91242130D01*
X102877631Y-91291498D01*
X102636661Y-91446558D01*
X102475003Y-91683152D01*
X102418130Y-91964000D01*
X100631870Y-91964000D01*
X100631870Y-91225000D01*
X100582502Y-90962631D01*
X100427442Y-90721661D01*
X100190848Y-90560003D01*
X99910000Y-90503130D01*
X98210000Y-90503130D01*
X97947631Y-90552498D01*
X97706661Y-90707558D01*
X97545003Y-90944152D01*
X97488130Y-91225000D01*
X90343015Y-91225000D01*
X90351969Y-91211600D01*
X90471600Y-90610175D01*
X90471600Y-90237825D01*
X90351969Y-89636400D01*
X90011289Y-89126536D01*
X89501425Y-88785856D01*
X88900000Y-88666225D01*
X88466839Y-88752386D01*
X88488000Y-88646000D01*
X88488000Y-88543823D01*
X88900000Y-88625775D01*
X89501425Y-88506144D01*
X89926299Y-88222252D01*
X97351704Y-88222252D01*
X97611184Y-88850240D01*
X98091232Y-89331128D01*
X98718767Y-89591703D01*
X99398252Y-89592296D01*
X100026240Y-89332816D01*
X100039169Y-89319910D01*
X100082558Y-89387339D01*
X100319152Y-89548997D01*
X100600000Y-89605870D01*
X102600000Y-89605870D01*
X102862369Y-89556502D01*
X103103339Y-89401442D01*
X103264997Y-89164848D01*
X103321870Y-88884000D01*
X103321870Y-86884000D01*
X103272502Y-86621631D01*
X103117442Y-86380661D01*
X102880848Y-86219003D01*
X102600000Y-86162130D01*
X100600000Y-86162130D01*
X100337631Y-86211498D01*
X100096661Y-86366558D01*
X100040552Y-86448676D01*
X100028768Y-86436872D01*
X99401233Y-86176297D01*
X98721748Y-86175704D01*
X98093760Y-86435184D01*
X97612872Y-86915232D01*
X97352297Y-87542767D01*
X97351704Y-88222252D01*
X89926299Y-88222252D01*
X90011289Y-88165464D01*
X90351969Y-87655600D01*
X90471600Y-87054175D01*
X90471600Y-86681825D01*
X90351969Y-86080400D01*
X90011289Y-85570536D01*
X89501425Y-85229856D01*
X88900000Y-85110225D01*
X88298575Y-85229856D01*
X87788711Y-85570536D01*
X87618647Y-85825055D01*
X87467754Y-85600775D01*
X86956806Y-85261717D01*
X86610790Y-85164139D01*
X86365000Y-85321009D01*
X86365000Y-86863000D01*
X86385000Y-86863000D01*
X86385000Y-86873000D01*
X86365000Y-86873000D01*
X86365000Y-86893000D01*
X86355000Y-86893000D01*
X86355000Y-86873000D01*
X86335000Y-86873000D01*
X86335000Y-86863000D01*
X86355000Y-86863000D01*
X86355000Y-85321009D01*
X86109210Y-85164139D01*
X85763194Y-85261717D01*
X85330050Y-85549145D01*
X85201042Y-85348661D01*
X84964448Y-85187003D01*
X84683600Y-85130130D01*
X82956400Y-85130130D01*
X82694031Y-85179498D01*
X82453061Y-85334558D01*
X82291403Y-85571152D01*
X82234530Y-85852000D01*
X82234530Y-87884000D01*
X82283898Y-88146369D01*
X82438958Y-88387339D01*
X82675552Y-88548997D01*
X82956400Y-88605870D01*
X84239982Y-88605870D01*
X84232000Y-88646000D01*
X84232000Y-88686130D01*
X82956400Y-88686130D01*
X82694031Y-88735498D01*
X82453061Y-88890558D01*
X82291403Y-89127152D01*
X82234530Y-89408000D01*
X82234530Y-91440000D01*
X82283898Y-91702369D01*
X82438958Y-91943339D01*
X82675552Y-92104997D01*
X82956400Y-92161870D01*
X84232000Y-92161870D01*
X84232000Y-92242130D01*
X82956400Y-92242130D01*
X82694031Y-92291498D01*
X82453061Y-92446558D01*
X82291403Y-92683152D01*
X82234530Y-92964000D01*
X82234530Y-94996000D01*
X82283898Y-95258369D01*
X82438958Y-95499339D01*
X82675552Y-95660997D01*
X82956400Y-95717870D01*
X84232000Y-95717870D01*
X84232000Y-98860000D01*
X83273249Y-98860000D01*
X82710704Y-98971897D01*
X82233802Y-99290553D01*
X82038000Y-99583591D01*
X82038000Y-83308790D01*
X87196139Y-83308790D01*
X87293717Y-83654806D01*
X87632775Y-84165754D01*
X88141555Y-84508056D01*
X88742600Y-84629600D01*
X88895000Y-84629600D01*
X88895000Y-83063000D01*
X88905000Y-83063000D01*
X88905000Y-84629600D01*
X89057400Y-84629600D01*
X89658445Y-84508056D01*
X90167225Y-84165754D01*
X90506283Y-83654806D01*
X90603861Y-83308790D01*
X90528046Y-83190000D01*
X92472000Y-83190000D01*
X92472000Y-83540000D01*
X92588703Y-84116706D01*
X92917218Y-84604853D01*
X93407532Y-84930124D01*
X93739160Y-85023644D01*
X93975000Y-84865991D01*
X93975000Y-83190000D01*
X92472000Y-83190000D01*
X90528046Y-83190000D01*
X90446991Y-83063000D01*
X88905000Y-83063000D01*
X88895000Y-83063000D01*
X87353009Y-83063000D01*
X87196139Y-83308790D01*
X82038000Y-83308790D01*
X82038000Y-77978000D01*
X87142225Y-77978000D01*
X87261856Y-78579425D01*
X87602536Y-79089289D01*
X87840064Y-79248000D01*
X87602536Y-79406711D01*
X87261856Y-79916575D01*
X87142225Y-80518000D01*
X87261856Y-81119425D01*
X87602536Y-81629289D01*
X87857055Y-81799353D01*
X87632775Y-81950246D01*
X87293717Y-82461194D01*
X87196139Y-82807210D01*
X87353009Y-83053000D01*
X88895000Y-83053000D01*
X88895000Y-83033000D01*
X88905000Y-83033000D01*
X88905000Y-83053000D01*
X90446991Y-83053000D01*
X90589315Y-82830000D01*
X92472000Y-82830000D01*
X92472000Y-83180000D01*
X93975000Y-83180000D01*
X93975000Y-81504009D01*
X93739160Y-81346356D01*
X93407532Y-81439876D01*
X92917218Y-81765147D01*
X92588703Y-82253294D01*
X92472000Y-82830000D01*
X90589315Y-82830000D01*
X90603861Y-82807210D01*
X90506283Y-82461194D01*
X90167225Y-81950246D01*
X89942945Y-81799353D01*
X90197464Y-81629289D01*
X90538144Y-81119425D01*
X90657775Y-80518000D01*
X90538144Y-79916575D01*
X90297884Y-79557000D01*
X92442000Y-79557000D01*
X92442000Y-80165830D01*
X92549787Y-80426050D01*
X92748950Y-80625213D01*
X93009170Y-80733000D01*
X93718000Y-80733000D01*
X93895000Y-80556000D01*
X93895000Y-79380000D01*
X92619000Y-79380000D01*
X92442000Y-79557000D01*
X90297884Y-79557000D01*
X90197464Y-79406711D01*
X89959936Y-79248000D01*
X90197464Y-79089289D01*
X90534973Y-78584170D01*
X92442000Y-78584170D01*
X92442000Y-79193000D01*
X92619000Y-79370000D01*
X93895000Y-79370000D01*
X93895000Y-78194000D01*
X93718000Y-78017000D01*
X93009170Y-78017000D01*
X92748950Y-78124787D01*
X92549787Y-78323950D01*
X92442000Y-78584170D01*
X90534973Y-78584170D01*
X90538144Y-78579425D01*
X90657775Y-77978000D01*
X90538144Y-77376575D01*
X90241903Y-76933219D01*
X90419339Y-76819042D01*
X90580997Y-76582448D01*
X90637870Y-76301600D01*
X90637870Y-74574400D01*
X90588502Y-74312031D01*
X90433442Y-74071061D01*
X90196848Y-73909403D01*
X89916000Y-73852530D01*
X87884000Y-73852530D01*
X87621631Y-73901898D01*
X87380661Y-74056958D01*
X87219003Y-74293552D01*
X87162130Y-74574400D01*
X87162130Y-76301600D01*
X87211498Y-76563969D01*
X87366558Y-76804939D01*
X87556907Y-76934999D01*
X87261856Y-77376575D01*
X87142225Y-77978000D01*
X82038000Y-77978000D01*
X82038000Y-70823252D01*
X82746704Y-70823252D01*
X83006184Y-71451240D01*
X83486232Y-71932128D01*
X84113767Y-72192703D01*
X84793252Y-72193296D01*
X85421240Y-71933816D01*
X85902128Y-71453768D01*
X86162703Y-70826233D01*
X86163296Y-70146748D01*
X85903816Y-69518760D01*
X85423768Y-69037872D01*
X85332562Y-69000000D01*
X97488130Y-69000000D01*
X97488130Y-70700000D01*
X97537498Y-70962369D01*
X97661549Y-71155150D01*
X97502271Y-71538735D01*
X97501730Y-72158546D01*
X97738422Y-72731383D01*
X98176312Y-73170038D01*
X98748735Y-73407729D01*
X99368546Y-73408270D01*
X99941383Y-73171578D01*
X100380038Y-72733688D01*
X100617729Y-72161265D01*
X100618270Y-71541454D01*
X100457615Y-71152641D01*
X100574997Y-70980848D01*
X100631870Y-70700000D01*
X100631870Y-69866000D01*
X102418130Y-69866000D01*
X102418130Y-71866000D01*
X102467498Y-72128369D01*
X102622558Y-72369339D01*
X102859152Y-72530997D01*
X103140000Y-72587870D01*
X105140000Y-72587870D01*
X105402369Y-72538502D01*
X105643339Y-72383442D01*
X105699448Y-72301324D01*
X105711232Y-72313128D01*
X106338767Y-72573703D01*
X107018252Y-72574296D01*
X107451938Y-72395100D01*
X113392000Y-72395100D01*
X113392000Y-78105000D01*
X113461117Y-78452477D01*
X113657947Y-78747053D01*
X113952523Y-78943883D01*
X114300000Y-79013000D01*
X115406703Y-79013000D01*
X115542536Y-79216289D01*
X115780064Y-79375000D01*
X115542536Y-79533711D01*
X115201856Y-80043575D01*
X115082225Y-80645000D01*
X115201856Y-81246425D01*
X115542536Y-81756289D01*
X115797055Y-81926353D01*
X115572775Y-82077246D01*
X115233717Y-82588194D01*
X115136139Y-82934210D01*
X115293009Y-83180000D01*
X116835000Y-83180000D01*
X116835000Y-83160000D01*
X116845000Y-83160000D01*
X116845000Y-83180000D01*
X118386991Y-83180000D01*
X118543861Y-82934210D01*
X118446283Y-82588194D01*
X118107225Y-82077246D01*
X117882945Y-81926353D01*
X118137464Y-81756289D01*
X118478144Y-81246425D01*
X118597775Y-80645000D01*
X118478144Y-80043575D01*
X118137464Y-79533711D01*
X117899936Y-79375000D01*
X118137464Y-79216289D01*
X118478144Y-78706425D01*
X118597775Y-78105000D01*
X118478144Y-77503575D01*
X118181903Y-77060219D01*
X118359339Y-76946042D01*
X118520997Y-76709448D01*
X118577870Y-76428600D01*
X118577870Y-74701400D01*
X118528502Y-74439031D01*
X118373442Y-74198061D01*
X118136848Y-74036403D01*
X117856000Y-73979530D01*
X115824000Y-73979530D01*
X115561631Y-74028898D01*
X115320661Y-74183958D01*
X115208000Y-74348843D01*
X115208000Y-73300500D01*
X115544954Y-73300500D01*
X115956001Y-73712265D01*
X116528289Y-73949899D01*
X117147953Y-73950440D01*
X117720654Y-73713805D01*
X118159205Y-73276019D01*
X118396839Y-72703731D01*
X118397380Y-72084067D01*
X118173779Y-71542910D01*
X125427980Y-71542910D01*
X125427980Y-73242170D01*
X125477348Y-73504539D01*
X125632408Y-73745509D01*
X125869002Y-73907167D01*
X126149850Y-73964040D01*
X127849110Y-73964040D01*
X128111479Y-73914672D01*
X128352449Y-73759612D01*
X128514107Y-73523018D01*
X128570980Y-73242170D01*
X128570980Y-71542910D01*
X128521612Y-71280541D01*
X128366552Y-71039571D01*
X128129958Y-70877913D01*
X127860034Y-70823252D01*
X129736704Y-70823252D01*
X129996184Y-71451240D01*
X130476232Y-71932128D01*
X131103767Y-72192703D01*
X131783252Y-72193296D01*
X132411240Y-71933816D01*
X132892128Y-71453768D01*
X133152703Y-70826233D01*
X133153296Y-70146748D01*
X132893816Y-69518760D01*
X132413768Y-69037872D01*
X131786233Y-68777297D01*
X131106748Y-68776704D01*
X130478760Y-69036184D01*
X129997872Y-69516232D01*
X129737297Y-70143767D01*
X129736704Y-70823252D01*
X127860034Y-70823252D01*
X127849110Y-70821040D01*
X126149850Y-70821040D01*
X125887481Y-70870408D01*
X125646511Y-71025468D01*
X125484853Y-71262062D01*
X125427980Y-71542910D01*
X118173779Y-71542910D01*
X118160745Y-71511366D01*
X117722959Y-71072815D01*
X117150671Y-70835181D01*
X116531007Y-70834640D01*
X115958306Y-71071275D01*
X115544359Y-71484500D01*
X114303000Y-71484500D01*
X114160421Y-71512861D01*
X114016175Y-71530992D01*
X113987683Y-71547220D01*
X113955523Y-71553617D01*
X113834646Y-71634385D01*
X113708323Y-71706334D01*
X113705323Y-71708934D01*
X113686171Y-71733593D01*
X113660947Y-71750447D01*
X113660228Y-71751523D01*
X113657947Y-71753047D01*
X113577181Y-71873922D01*
X113488005Y-71988739D01*
X113479333Y-72020361D01*
X113461117Y-72047623D01*
X113432756Y-72190203D01*
X113394307Y-72330408D01*
X113398396Y-72362942D01*
X113392000Y-72395100D01*
X107451938Y-72395100D01*
X107646240Y-72314816D01*
X108127128Y-71834768D01*
X108387703Y-71207233D01*
X108388296Y-70527748D01*
X108128816Y-69899760D01*
X107648768Y-69418872D01*
X107021233Y-69158297D01*
X106341748Y-69157704D01*
X105713760Y-69417184D01*
X105700831Y-69430090D01*
X105657442Y-69362661D01*
X105420848Y-69201003D01*
X105140000Y-69144130D01*
X103140000Y-69144130D01*
X102877631Y-69193498D01*
X102636661Y-69348558D01*
X102475003Y-69585152D01*
X102418130Y-69866000D01*
X100631870Y-69866000D01*
X100631870Y-69000000D01*
X100582502Y-68737631D01*
X100427442Y-68496661D01*
X100190848Y-68335003D01*
X99910000Y-68278130D01*
X98210000Y-68278130D01*
X97947631Y-68327498D01*
X97706661Y-68482558D01*
X97545003Y-68719152D01*
X97488130Y-69000000D01*
X85332562Y-69000000D01*
X84796233Y-68777297D01*
X84116748Y-68776704D01*
X83488760Y-69036184D01*
X83007872Y-69516232D01*
X82747297Y-70143767D01*
X82746704Y-70823252D01*
X82038000Y-70823252D01*
X82038000Y-68068000D01*
X133862000Y-68068000D01*
X133862000Y-90439591D01*
G36*
X121699447Y-113672053D02*
X121994024Y-113868884D01*
X122341500Y-113938000D01*
X130405972Y-113938000D01*
X130493802Y-114069447D01*
X130838849Y-114300000D01*
X130493802Y-114530553D01*
X130175146Y-115007455D01*
X130063249Y-115570000D01*
X130175146Y-116132545D01*
X130493802Y-116609447D01*
X130838849Y-116840000D01*
X130493802Y-117070553D01*
X130175146Y-117547455D01*
X130063249Y-118110000D01*
X130175146Y-118672545D01*
X130493802Y-119149447D01*
X130838849Y-119380000D01*
X130493802Y-119610553D01*
X130405972Y-119742000D01*
X127605006Y-119742000D01*
X126277046Y-118414040D01*
X127849110Y-118414040D01*
X128111479Y-118364672D01*
X128352449Y-118209612D01*
X128514107Y-117973018D01*
X128570980Y-117692170D01*
X128570980Y-115992910D01*
X128521612Y-115730541D01*
X128366552Y-115489571D01*
X128129958Y-115327913D01*
X127849110Y-115271040D01*
X126149850Y-115271040D01*
X125887481Y-115320408D01*
X125646511Y-115475468D01*
X125484853Y-115712062D01*
X125427980Y-115992910D01*
X125427980Y-117564974D01*
X121054253Y-113191247D01*
X120759677Y-112994417D01*
X120412200Y-112925300D01*
X101246206Y-112925300D01*
X99831986Y-111511080D01*
X100026240Y-111430816D01*
X100039169Y-111417910D01*
X100082558Y-111485339D01*
X100319152Y-111646997D01*
X100600000Y-111703870D01*
X102600000Y-111703870D01*
X102862369Y-111654502D01*
X103103339Y-111499442D01*
X103264997Y-111262848D01*
X103321870Y-110982000D01*
X103321870Y-108982000D01*
X103272502Y-108719631D01*
X103117442Y-108478661D01*
X102880848Y-108317003D01*
X102600000Y-108260130D01*
X100600000Y-108260130D01*
X100337631Y-108309498D01*
X100096661Y-108464558D01*
X100040552Y-108546676D01*
X100028768Y-108534872D01*
X99401233Y-108274297D01*
X98721748Y-108273704D01*
X98093760Y-108533184D01*
X97612872Y-109013232D01*
X97531090Y-109210184D01*
X96158000Y-107837094D01*
X96158000Y-107232394D01*
X96520000Y-107304400D01*
X97029040Y-107203146D01*
X97782947Y-107957053D01*
X98077523Y-108153883D01*
X98425000Y-108223000D01*
X105378306Y-108223000D01*
X105359962Y-108241312D01*
X105122271Y-108813735D01*
X105121730Y-109433546D01*
X105282385Y-109822359D01*
X105165003Y-109994152D01*
X105108130Y-110275000D01*
X105108130Y-111975000D01*
X105157498Y-112237369D01*
X105312558Y-112478339D01*
X105549152Y-112639997D01*
X105830000Y-112696870D01*
X107530000Y-112696870D01*
X107792369Y-112647502D01*
X108033339Y-112492442D01*
X108194997Y-112255848D01*
X108251870Y-111975000D01*
X108251870Y-110275000D01*
X108202502Y-110012631D01*
X108078451Y-109819850D01*
X108237729Y-109436265D01*
X108238270Y-108816454D01*
X108001578Y-108243617D01*
X107980997Y-108223000D01*
X110113894Y-108223000D01*
X110236556Y-108345662D01*
X110438215Y-108833714D01*
X110876001Y-109272265D01*
X111448289Y-109509899D01*
X112067953Y-109510440D01*
X112640654Y-109273805D01*
X113079205Y-108836019D01*
X113316839Y-108263731D01*
X113317380Y-107644067D01*
X113080745Y-107071366D01*
X112829576Y-106819758D01*
X113151297Y-106341706D01*
X113268000Y-105765000D01*
X113268000Y-105415000D01*
X111765000Y-105415000D01*
X111765000Y-105435000D01*
X111755000Y-105435000D01*
X111755000Y-105415000D01*
X111735000Y-105415000D01*
X111735000Y-105405000D01*
X111755000Y-105405000D01*
X111755000Y-105385000D01*
X111765000Y-105385000D01*
X111765000Y-105405000D01*
X113268000Y-105405000D01*
X113268000Y-105240606D01*
X121699447Y-113672053D01*
X121699447Y-113672053D01*
G37*
X121699447Y-113672053D02*
X121994024Y-113868884D01*
X122341500Y-113938000D01*
X130405972Y-113938000D01*
X130493802Y-114069447D01*
X130838849Y-114300000D01*
X130493802Y-114530553D01*
X130175146Y-115007455D01*
X130063249Y-115570000D01*
X130175146Y-116132545D01*
X130493802Y-116609447D01*
X130838849Y-116840000D01*
X130493802Y-117070553D01*
X130175146Y-117547455D01*
X130063249Y-118110000D01*
X130175146Y-118672545D01*
X130493802Y-119149447D01*
X130838849Y-119380000D01*
X130493802Y-119610553D01*
X130405972Y-119742000D01*
X127605006Y-119742000D01*
X126277046Y-118414040D01*
X127849110Y-118414040D01*
X128111479Y-118364672D01*
X128352449Y-118209612D01*
X128514107Y-117973018D01*
X128570980Y-117692170D01*
X128570980Y-115992910D01*
X128521612Y-115730541D01*
X128366552Y-115489571D01*
X128129958Y-115327913D01*
X127849110Y-115271040D01*
X126149850Y-115271040D01*
X125887481Y-115320408D01*
X125646511Y-115475468D01*
X125484853Y-115712062D01*
X125427980Y-115992910D01*
X125427980Y-117564974D01*
X121054253Y-113191247D01*
X120759677Y-112994417D01*
X120412200Y-112925300D01*
X101246206Y-112925300D01*
X99831986Y-111511080D01*
X100026240Y-111430816D01*
X100039169Y-111417910D01*
X100082558Y-111485339D01*
X100319152Y-111646997D01*
X100600000Y-111703870D01*
X102600000Y-111703870D01*
X102862369Y-111654502D01*
X103103339Y-111499442D01*
X103264997Y-111262848D01*
X103321870Y-110982000D01*
X103321870Y-108982000D01*
X103272502Y-108719631D01*
X103117442Y-108478661D01*
X102880848Y-108317003D01*
X102600000Y-108260130D01*
X100600000Y-108260130D01*
X100337631Y-108309498D01*
X100096661Y-108464558D01*
X100040552Y-108546676D01*
X100028768Y-108534872D01*
X99401233Y-108274297D01*
X98721748Y-108273704D01*
X98093760Y-108533184D01*
X97612872Y-109013232D01*
X97531090Y-109210184D01*
X96158000Y-107837094D01*
X96158000Y-107232394D01*
X96520000Y-107304400D01*
X97029040Y-107203146D01*
X97782947Y-107957053D01*
X98077523Y-108153883D01*
X98425000Y-108223000D01*
X105378306Y-108223000D01*
X105359962Y-108241312D01*
X105122271Y-108813735D01*
X105121730Y-109433546D01*
X105282385Y-109822359D01*
X105165003Y-109994152D01*
X105108130Y-110275000D01*
X105108130Y-111975000D01*
X105157498Y-112237369D01*
X105312558Y-112478339D01*
X105549152Y-112639997D01*
X105830000Y-112696870D01*
X107530000Y-112696870D01*
X107792369Y-112647502D01*
X108033339Y-112492442D01*
X108194997Y-112255848D01*
X108251870Y-111975000D01*
X108251870Y-110275000D01*
X108202502Y-110012631D01*
X108078451Y-109819850D01*
X108237729Y-109436265D01*
X108238270Y-108816454D01*
X108001578Y-108243617D01*
X107980997Y-108223000D01*
X110113894Y-108223000D01*
X110236556Y-108345662D01*
X110438215Y-108833714D01*
X110876001Y-109272265D01*
X111448289Y-109509899D01*
X112067953Y-109510440D01*
X112640654Y-109273805D01*
X113079205Y-108836019D01*
X113316839Y-108263731D01*
X113317380Y-107644067D01*
X113080745Y-107071366D01*
X112829576Y-106819758D01*
X113151297Y-106341706D01*
X113268000Y-105765000D01*
X113268000Y-105415000D01*
X111765000Y-105415000D01*
X111765000Y-105435000D01*
X111755000Y-105435000D01*
X111755000Y-105415000D01*
X111735000Y-105415000D01*
X111735000Y-105405000D01*
X111755000Y-105405000D01*
X111755000Y-105385000D01*
X111765000Y-105385000D01*
X111765000Y-105405000D01*
X113268000Y-105405000D01*
X113268000Y-105240606D01*
X121699447Y-113672053D01*
G36*
X129767647Y-107068053D02*
X130062223Y-107264883D01*
X130405400Y-107333145D01*
X130493802Y-107465447D01*
X130838849Y-107696000D01*
X130493802Y-107926553D01*
X130175146Y-108403455D01*
X130063249Y-108966000D01*
X130175146Y-109528545D01*
X130493802Y-110005447D01*
X130970704Y-110324103D01*
X131533249Y-110436000D01*
X132626751Y-110436000D01*
X133189296Y-110324103D01*
X133666198Y-110005447D01*
X133754600Y-109873145D01*
X133862000Y-109851782D01*
X133862000Y-112283591D01*
X133666198Y-111990553D01*
X133189296Y-111671897D01*
X132626751Y-111560000D01*
X131533249Y-111560000D01*
X130970704Y-111671897D01*
X130493802Y-111990553D01*
X130405972Y-112122000D01*
X122717606Y-112122000D01*
X117698516Y-107102910D01*
X120347980Y-107102910D01*
X120347980Y-108802170D01*
X120397348Y-109064539D01*
X120552408Y-109305509D01*
X120789002Y-109467167D01*
X121069850Y-109524040D01*
X122769110Y-109524040D01*
X123031479Y-109474672D01*
X123272449Y-109319612D01*
X123434107Y-109083018D01*
X123490980Y-108802170D01*
X123490980Y-107102910D01*
X123441612Y-106840541D01*
X123286552Y-106599571D01*
X123049958Y-106437913D01*
X122769110Y-106381040D01*
X121069850Y-106381040D01*
X120807481Y-106430408D01*
X120566511Y-106585468D01*
X120404853Y-106822062D01*
X120347980Y-107102910D01*
X117698516Y-107102910D01*
X117479679Y-106884073D01*
X117598445Y-106860056D01*
X118107225Y-106517754D01*
X118446283Y-106006806D01*
X118543861Y-105660790D01*
X118386991Y-105415000D01*
X116845000Y-105415000D01*
X116845000Y-105435000D01*
X116835000Y-105435000D01*
X116835000Y-105415000D01*
X116815000Y-105415000D01*
X116815000Y-105405000D01*
X116835000Y-105405000D01*
X116835000Y-105385000D01*
X116845000Y-105385000D01*
X116845000Y-105405000D01*
X118386991Y-105405000D01*
X118543861Y-105159210D01*
X118446283Y-104813194D01*
X118107225Y-104302246D01*
X117882945Y-104151353D01*
X118137464Y-103981289D01*
X118478144Y-103471425D01*
X118597775Y-102870000D01*
X118525769Y-102508000D01*
X125207594Y-102508000D01*
X129767647Y-107068053D01*
X129767647Y-107068053D01*
G37*
X129767647Y-107068053D02*
X130062223Y-107264883D01*
X130405400Y-107333145D01*
X130493802Y-107465447D01*
X130838849Y-107696000D01*
X130493802Y-107926553D01*
X130175146Y-108403455D01*
X130063249Y-108966000D01*
X130175146Y-109528545D01*
X130493802Y-110005447D01*
X130970704Y-110324103D01*
X131533249Y-110436000D01*
X132626751Y-110436000D01*
X133189296Y-110324103D01*
X133666198Y-110005447D01*
X133754600Y-109873145D01*
X133862000Y-109851782D01*
X133862000Y-112283591D01*
X133666198Y-111990553D01*
X133189296Y-111671897D01*
X132626751Y-111560000D01*
X131533249Y-111560000D01*
X130970704Y-111671897D01*
X130493802Y-111990553D01*
X130405972Y-112122000D01*
X122717606Y-112122000D01*
X117698516Y-107102910D01*
X120347980Y-107102910D01*
X120347980Y-108802170D01*
X120397348Y-109064539D01*
X120552408Y-109305509D01*
X120789002Y-109467167D01*
X121069850Y-109524040D01*
X122769110Y-109524040D01*
X123031479Y-109474672D01*
X123272449Y-109319612D01*
X123434107Y-109083018D01*
X123490980Y-108802170D01*
X123490980Y-107102910D01*
X123441612Y-106840541D01*
X123286552Y-106599571D01*
X123049958Y-106437913D01*
X122769110Y-106381040D01*
X121069850Y-106381040D01*
X120807481Y-106430408D01*
X120566511Y-106585468D01*
X120404853Y-106822062D01*
X120347980Y-107102910D01*
X117698516Y-107102910D01*
X117479679Y-106884073D01*
X117598445Y-106860056D01*
X118107225Y-106517754D01*
X118446283Y-106006806D01*
X118543861Y-105660790D01*
X118386991Y-105415000D01*
X116845000Y-105415000D01*
X116845000Y-105435000D01*
X116835000Y-105435000D01*
X116835000Y-105415000D01*
X116815000Y-105415000D01*
X116815000Y-105405000D01*
X116835000Y-105405000D01*
X116835000Y-105385000D01*
X116845000Y-105385000D01*
X116845000Y-105405000D01*
X118386991Y-105405000D01*
X118543861Y-105159210D01*
X118446283Y-104813194D01*
X118107225Y-104302246D01*
X117882945Y-104151353D01*
X118137464Y-103981289D01*
X118478144Y-103471425D01*
X118597775Y-102870000D01*
X118525769Y-102508000D01*
X125207594Y-102508000D01*
X129767647Y-107068053D01*
G36*
X83825000Y-107945000D02*
X83845000Y-107945000D01*
X83845000Y-107955000D01*
X83825000Y-107955000D01*
X83825000Y-110485000D01*
X83845000Y-110485000D01*
X83845000Y-110495000D01*
X83825000Y-110495000D01*
X83825000Y-110515000D01*
X83815000Y-110515000D01*
X83815000Y-110495000D01*
X83795000Y-110495000D01*
X83795000Y-110485000D01*
X83815000Y-110485000D01*
X83815000Y-107955000D01*
X83795000Y-107955000D01*
X83795000Y-107945000D01*
X83815000Y-107945000D01*
X83815000Y-107925000D01*
X83825000Y-107925000D01*
X83825000Y-107945000D01*
X83825000Y-107945000D01*
G37*
X83825000Y-107945000D02*
X83845000Y-107945000D01*
X83845000Y-107955000D01*
X83825000Y-107955000D01*
X83825000Y-110485000D01*
X83845000Y-110485000D01*
X83845000Y-110495000D01*
X83825000Y-110495000D01*
X83825000Y-110515000D01*
X83815000Y-110515000D01*
X83815000Y-110495000D01*
X83795000Y-110495000D01*
X83795000Y-110485000D01*
X83815000Y-110485000D01*
X83815000Y-107955000D01*
X83795000Y-107955000D01*
X83795000Y-107945000D01*
X83815000Y-107945000D01*
X83815000Y-107925000D01*
X83825000Y-107925000D01*
X83825000Y-107945000D01*
G36*
X111765000Y-97785000D02*
X111785000Y-97785000D01*
X111785000Y-97795000D01*
X111765000Y-97795000D01*
X111765000Y-99470991D01*
X112000840Y-99628644D01*
X112332468Y-99535124D01*
X112497400Y-99425709D01*
X112497400Y-100242000D01*
X112022000Y-100242000D01*
X111845000Y-100419000D01*
X111845000Y-101595000D01*
X113121000Y-101595000D01*
X113251697Y-101464303D01*
X114029447Y-102242053D01*
X114324023Y-102438883D01*
X114671500Y-102508000D01*
X115154231Y-102508000D01*
X115082225Y-102870000D01*
X115201856Y-103471425D01*
X115542536Y-103981289D01*
X115797055Y-104151353D01*
X115572775Y-104302246D01*
X115303556Y-104707950D01*
X113809953Y-103214347D01*
X113515377Y-103017517D01*
X113167900Y-102948400D01*
X112754006Y-102948400D01*
X112991050Y-102850213D01*
X113190213Y-102651050D01*
X113298000Y-102390830D01*
X113298000Y-101782000D01*
X113121000Y-101605000D01*
X111845000Y-101605000D01*
X111845000Y-101625000D01*
X111835000Y-101625000D01*
X111835000Y-101605000D01*
X111815000Y-101605000D01*
X111815000Y-101595000D01*
X111835000Y-101595000D01*
X111835000Y-100419000D01*
X111658000Y-100242000D01*
X110949170Y-100242000D01*
X110688950Y-100349787D01*
X110489787Y-100548950D01*
X110483316Y-100564572D01*
X110407442Y-100446661D01*
X110170848Y-100285003D01*
X110048000Y-100260126D01*
X110048000Y-99401955D01*
X110286317Y-99242717D01*
X110502050Y-98919849D01*
X110697218Y-99209853D01*
X111187532Y-99535124D01*
X111519160Y-99628644D01*
X111755000Y-99470991D01*
X111755000Y-97795000D01*
X111735000Y-97795000D01*
X111735000Y-97785000D01*
X111755000Y-97785000D01*
X111755000Y-97765000D01*
X111765000Y-97765000D01*
X111765000Y-97785000D01*
X111765000Y-97785000D01*
G37*
X111765000Y-97785000D02*
X111785000Y-97785000D01*
X111785000Y-97795000D01*
X111765000Y-97795000D01*
X111765000Y-99470991D01*
X112000840Y-99628644D01*
X112332468Y-99535124D01*
X112497400Y-99425709D01*
X112497400Y-100242000D01*
X112022000Y-100242000D01*
X111845000Y-100419000D01*
X111845000Y-101595000D01*
X113121000Y-101595000D01*
X113251697Y-101464303D01*
X114029447Y-102242053D01*
X114324023Y-102438883D01*
X114671500Y-102508000D01*
X115154231Y-102508000D01*
X115082225Y-102870000D01*
X115201856Y-103471425D01*
X115542536Y-103981289D01*
X115797055Y-104151353D01*
X115572775Y-104302246D01*
X115303556Y-104707950D01*
X113809953Y-103214347D01*
X113515377Y-103017517D01*
X113167900Y-102948400D01*
X112754006Y-102948400D01*
X112991050Y-102850213D01*
X113190213Y-102651050D01*
X113298000Y-102390830D01*
X113298000Y-101782000D01*
X113121000Y-101605000D01*
X111845000Y-101605000D01*
X111845000Y-101625000D01*
X111835000Y-101625000D01*
X111835000Y-101605000D01*
X111815000Y-101605000D01*
X111815000Y-101595000D01*
X111835000Y-101595000D01*
X111835000Y-100419000D01*
X111658000Y-100242000D01*
X110949170Y-100242000D01*
X110688950Y-100349787D01*
X110489787Y-100548950D01*
X110483316Y-100564572D01*
X110407442Y-100446661D01*
X110170848Y-100285003D01*
X110048000Y-100260126D01*
X110048000Y-99401955D01*
X110286317Y-99242717D01*
X110502050Y-98919849D01*
X110697218Y-99209853D01*
X111187532Y-99535124D01*
X111519160Y-99628644D01*
X111755000Y-99470991D01*
X111755000Y-97795000D01*
X111735000Y-97795000D01*
X111735000Y-97785000D01*
X111755000Y-97785000D01*
X111755000Y-97765000D01*
X111765000Y-97765000D01*
X111765000Y-97785000D01*
G36*
X86365000Y-90419000D02*
X86385000Y-90419000D01*
X86385000Y-90429000D01*
X86365000Y-90429000D01*
X86365000Y-91970991D01*
X86610790Y-92127861D01*
X86772000Y-92082399D01*
X86772000Y-92321601D01*
X86610790Y-92276139D01*
X86365000Y-92433009D01*
X86365000Y-93975000D01*
X86385000Y-93975000D01*
X86385000Y-93985000D01*
X86365000Y-93985000D01*
X86365000Y-94005000D01*
X86355000Y-94005000D01*
X86355000Y-93985000D01*
X86335000Y-93985000D01*
X86335000Y-93975000D01*
X86355000Y-93975000D01*
X86355000Y-92433009D01*
X86109210Y-92276139D01*
X85948000Y-92321601D01*
X85948000Y-92082399D01*
X86109210Y-92127861D01*
X86355000Y-91970991D01*
X86355000Y-90429000D01*
X86335000Y-90429000D01*
X86335000Y-90419000D01*
X86355000Y-90419000D01*
X86355000Y-90399000D01*
X86365000Y-90399000D01*
X86365000Y-90419000D01*
X86365000Y-90419000D01*
G37*
X86365000Y-90419000D02*
X86385000Y-90419000D01*
X86385000Y-90429000D01*
X86365000Y-90429000D01*
X86365000Y-91970991D01*
X86610790Y-92127861D01*
X86772000Y-92082399D01*
X86772000Y-92321601D01*
X86610790Y-92276139D01*
X86365000Y-92433009D01*
X86365000Y-93975000D01*
X86385000Y-93975000D01*
X86385000Y-93985000D01*
X86365000Y-93985000D01*
X86365000Y-94005000D01*
X86355000Y-94005000D01*
X86355000Y-93985000D01*
X86335000Y-93985000D01*
X86335000Y-93975000D01*
X86355000Y-93975000D01*
X86355000Y-92433009D01*
X86109210Y-92276139D01*
X85948000Y-92321601D01*
X85948000Y-92082399D01*
X86109210Y-92127861D01*
X86355000Y-91970991D01*
X86355000Y-90429000D01*
X86335000Y-90429000D01*
X86335000Y-90419000D01*
X86355000Y-90419000D01*
X86355000Y-90399000D01*
X86365000Y-90399000D01*
X86365000Y-90419000D01*
G36*
X111765000Y-83180000D02*
X111785000Y-83180000D01*
X111785000Y-83190000D01*
X111765000Y-83190000D01*
X111765000Y-83210000D01*
X111755000Y-83210000D01*
X111755000Y-83190000D01*
X111735000Y-83190000D01*
X111735000Y-83180000D01*
X111755000Y-83180000D01*
X111755000Y-83160000D01*
X111765000Y-83160000D01*
X111765000Y-83180000D01*
X111765000Y-83180000D01*
G37*
X111765000Y-83180000D02*
X111785000Y-83180000D01*
X111785000Y-83190000D01*
X111765000Y-83190000D01*
X111765000Y-83210000D01*
X111755000Y-83210000D01*
X111755000Y-83190000D01*
X111735000Y-83190000D01*
X111735000Y-83180000D01*
X111755000Y-83180000D01*
X111755000Y-83160000D01*
X111765000Y-83160000D01*
X111765000Y-83180000D01*
M02*
