G04 #@! TF.FileFunction,Legend,Top*
%FSLAX46Y46*%
G04 Gerber Fmt 4.6, Leading zero omitted, Abs format (unit mm)*
G04 Created by KiCad (PCBNEW 4.0.2+e4-6225~38~ubuntu16.04.1-stable) date Mo 27 Jun 2016 13:05:28 CEST*
%MOMM*%
G01*
G04 APERTURE LIST*
%ADD10C,0.100000*%
%ADD11C,0.125000*%
%ADD12C,0.300000*%
%ADD13C,0.150000*%
%ADD14C,0.010000*%
G04 APERTURE END LIST*
D10*
D11*
X85740954Y-102596190D02*
X86050477Y-102596190D01*
X85883811Y-102786667D01*
X85955239Y-102786667D01*
X86002858Y-102810476D01*
X86026668Y-102834286D01*
X86050477Y-102881905D01*
X86050477Y-103000952D01*
X86026668Y-103048571D01*
X86002858Y-103072381D01*
X85955239Y-103096190D01*
X85812382Y-103096190D01*
X85764763Y-103072381D01*
X85740954Y-103048571D01*
X86193334Y-102596190D02*
X86360001Y-103096190D01*
X86526667Y-102596190D01*
X86645715Y-102596190D02*
X86955238Y-102596190D01*
X86788572Y-102786667D01*
X86860000Y-102786667D01*
X86907619Y-102810476D01*
X86931429Y-102834286D01*
X86955238Y-102881905D01*
X86955238Y-103000952D01*
X86931429Y-103048571D01*
X86907619Y-103072381D01*
X86860000Y-103096190D01*
X86717143Y-103096190D01*
X86669524Y-103072381D01*
X86645715Y-103048571D01*
X128730477Y-91269333D02*
X128968572Y-91269333D01*
X128682858Y-91412190D02*
X128849525Y-90912190D01*
X129016191Y-91412190D01*
X129468572Y-91412190D02*
X129301905Y-91174095D01*
X129182858Y-91412190D02*
X129182858Y-90912190D01*
X129373334Y-90912190D01*
X129420953Y-90936000D01*
X129444762Y-90959810D01*
X129468572Y-91007429D01*
X129468572Y-91078857D01*
X129444762Y-91126476D01*
X129420953Y-91150286D01*
X129373334Y-91174095D01*
X129182858Y-91174095D01*
X129682858Y-91150286D02*
X129849524Y-91150286D01*
X129920953Y-91412190D02*
X129682858Y-91412190D01*
X129682858Y-90912190D01*
X129920953Y-90912190D01*
X130301905Y-91150286D02*
X130135239Y-91150286D01*
X130135239Y-91412190D02*
X130135239Y-90912190D01*
X130373334Y-90912190D01*
X129159047Y-93476000D02*
X129111428Y-93452190D01*
X129040000Y-93452190D01*
X128968571Y-93476000D01*
X128920952Y-93523619D01*
X128897143Y-93571238D01*
X128873333Y-93666476D01*
X128873333Y-93737905D01*
X128897143Y-93833143D01*
X128920952Y-93880762D01*
X128968571Y-93928381D01*
X129040000Y-93952190D01*
X129087619Y-93952190D01*
X129159047Y-93928381D01*
X129182857Y-93904571D01*
X129182857Y-93737905D01*
X129087619Y-93737905D01*
X129397143Y-93952190D02*
X129397143Y-93452190D01*
X129682857Y-93952190D01*
X129682857Y-93452190D01*
X129920953Y-93952190D02*
X129920953Y-93452190D01*
X130040000Y-93452190D01*
X130111429Y-93476000D01*
X130159048Y-93523619D01*
X130182857Y-93571238D01*
X130206667Y-93666476D01*
X130206667Y-93737905D01*
X130182857Y-93833143D01*
X130159048Y-93880762D01*
X130111429Y-93928381D01*
X130040000Y-93952190D01*
X129920953Y-93952190D01*
X129444762Y-96492190D02*
X129159048Y-96492190D01*
X129301905Y-96492190D02*
X129301905Y-95992190D01*
X129254286Y-96063619D01*
X129206667Y-96111238D01*
X129159048Y-96135048D01*
X129611429Y-95992190D02*
X129920952Y-95992190D01*
X129754286Y-96182667D01*
X129825714Y-96182667D01*
X129873333Y-96206476D01*
X129897143Y-96230286D01*
X129920952Y-96277905D01*
X129920952Y-96396952D01*
X129897143Y-96444571D01*
X129873333Y-96468381D01*
X129825714Y-96492190D01*
X129682857Y-96492190D01*
X129635238Y-96468381D01*
X129611429Y-96444571D01*
X129444762Y-99032190D02*
X129159048Y-99032190D01*
X129301905Y-99032190D02*
X129301905Y-98532190D01*
X129254286Y-98603619D01*
X129206667Y-98651238D01*
X129159048Y-98675048D01*
X129635238Y-98579810D02*
X129659048Y-98556000D01*
X129706667Y-98532190D01*
X129825714Y-98532190D01*
X129873333Y-98556000D01*
X129897143Y-98579810D01*
X129920952Y-98627429D01*
X129920952Y-98675048D01*
X129897143Y-98746476D01*
X129611429Y-99032190D01*
X129920952Y-99032190D01*
X129444762Y-101572190D02*
X129159048Y-101572190D01*
X129301905Y-101572190D02*
X129301905Y-101072190D01*
X129254286Y-101143619D01*
X129206667Y-101191238D01*
X129159048Y-101215048D01*
X129920952Y-101572190D02*
X129635238Y-101572190D01*
X129778095Y-101572190D02*
X129778095Y-101072190D01*
X129730476Y-101143619D01*
X129682857Y-101191238D01*
X129635238Y-101215048D01*
X129444762Y-104112190D02*
X129159048Y-104112190D01*
X129301905Y-104112190D02*
X129301905Y-103612190D01*
X129254286Y-103683619D01*
X129206667Y-103731238D01*
X129159048Y-103755048D01*
X129754286Y-103612190D02*
X129801905Y-103612190D01*
X129849524Y-103636000D01*
X129873333Y-103659810D01*
X129897143Y-103707429D01*
X129920952Y-103802667D01*
X129920952Y-103921714D01*
X129897143Y-104016952D01*
X129873333Y-104064571D01*
X129849524Y-104088381D01*
X129801905Y-104112190D01*
X129754286Y-104112190D01*
X129706667Y-104088381D01*
X129682857Y-104064571D01*
X129659048Y-104016952D01*
X129635238Y-103921714D01*
X129635238Y-103802667D01*
X129659048Y-103707429D01*
X129682857Y-103659810D01*
X129706667Y-103636000D01*
X129754286Y-103612190D01*
X129444762Y-106652190D02*
X129540000Y-106652190D01*
X129587619Y-106628381D01*
X129611429Y-106604571D01*
X129659048Y-106533143D01*
X129682857Y-106437905D01*
X129682857Y-106247429D01*
X129659048Y-106199810D01*
X129635238Y-106176000D01*
X129587619Y-106152190D01*
X129492381Y-106152190D01*
X129444762Y-106176000D01*
X129420953Y-106199810D01*
X129397143Y-106247429D01*
X129397143Y-106366476D01*
X129420953Y-106414095D01*
X129444762Y-106437905D01*
X129492381Y-106461714D01*
X129587619Y-106461714D01*
X129635238Y-106437905D01*
X129659048Y-106414095D01*
X129682857Y-106366476D01*
X129492381Y-108906476D02*
X129444762Y-108882667D01*
X129420953Y-108858857D01*
X129397143Y-108811238D01*
X129397143Y-108787429D01*
X129420953Y-108739810D01*
X129444762Y-108716000D01*
X129492381Y-108692190D01*
X129587619Y-108692190D01*
X129635238Y-108716000D01*
X129659048Y-108739810D01*
X129682857Y-108787429D01*
X129682857Y-108811238D01*
X129659048Y-108858857D01*
X129635238Y-108882667D01*
X129587619Y-108906476D01*
X129492381Y-108906476D01*
X129444762Y-108930286D01*
X129420953Y-108954095D01*
X129397143Y-109001714D01*
X129397143Y-109096952D01*
X129420953Y-109144571D01*
X129444762Y-109168381D01*
X129492381Y-109192190D01*
X129587619Y-109192190D01*
X129635238Y-109168381D01*
X129659048Y-109144571D01*
X129682857Y-109096952D01*
X129682857Y-109001714D01*
X129659048Y-108954095D01*
X129635238Y-108930286D01*
X129587619Y-108906476D01*
X129373334Y-112756190D02*
X129706667Y-112756190D01*
X129492381Y-113256190D01*
X129635238Y-115296190D02*
X129540000Y-115296190D01*
X129492381Y-115320000D01*
X129468572Y-115343810D01*
X129420953Y-115415238D01*
X129397143Y-115510476D01*
X129397143Y-115700952D01*
X129420953Y-115748571D01*
X129444762Y-115772381D01*
X129492381Y-115796190D01*
X129587619Y-115796190D01*
X129635238Y-115772381D01*
X129659048Y-115748571D01*
X129682857Y-115700952D01*
X129682857Y-115581905D01*
X129659048Y-115534286D01*
X129635238Y-115510476D01*
X129587619Y-115486667D01*
X129492381Y-115486667D01*
X129444762Y-115510476D01*
X129420953Y-115534286D01*
X129397143Y-115581905D01*
X129659048Y-117836190D02*
X129420953Y-117836190D01*
X129397143Y-118074286D01*
X129420953Y-118050476D01*
X129468572Y-118026667D01*
X129587619Y-118026667D01*
X129635238Y-118050476D01*
X129659048Y-118074286D01*
X129682857Y-118121905D01*
X129682857Y-118240952D01*
X129659048Y-118288571D01*
X129635238Y-118312381D01*
X129587619Y-118336190D01*
X129468572Y-118336190D01*
X129420953Y-118312381D01*
X129397143Y-118288571D01*
X129635238Y-120542857D02*
X129635238Y-120876190D01*
X129516191Y-120352381D02*
X129397143Y-120709524D01*
X129706667Y-120709524D01*
X129373334Y-122916190D02*
X129682857Y-122916190D01*
X129516191Y-123106667D01*
X129587619Y-123106667D01*
X129635238Y-123130476D01*
X129659048Y-123154286D01*
X129682857Y-123201905D01*
X129682857Y-123320952D01*
X129659048Y-123368571D01*
X129635238Y-123392381D01*
X129587619Y-123416190D01*
X129444762Y-123416190D01*
X129397143Y-123392381D01*
X129373334Y-123368571D01*
X129397143Y-125503810D02*
X129420953Y-125480000D01*
X129468572Y-125456190D01*
X129587619Y-125456190D01*
X129635238Y-125480000D01*
X129659048Y-125503810D01*
X129682857Y-125551429D01*
X129682857Y-125599048D01*
X129659048Y-125670476D01*
X129373334Y-125956190D01*
X129682857Y-125956190D01*
X129159048Y-127996190D02*
X129444762Y-127996190D01*
X129301905Y-128496190D02*
X129301905Y-127996190D01*
X129563810Y-127996190D02*
X129897143Y-128496190D01*
X129897143Y-127996190D02*
X129563810Y-128496190D01*
X129456667Y-131036190D02*
X129290000Y-130798095D01*
X129170953Y-131036190D02*
X129170953Y-130536190D01*
X129361429Y-130536190D01*
X129409048Y-130560000D01*
X129432857Y-130583810D01*
X129456667Y-130631429D01*
X129456667Y-130702857D01*
X129432857Y-130750476D01*
X129409048Y-130774286D01*
X129361429Y-130798095D01*
X129170953Y-130798095D01*
X129623334Y-130536190D02*
X129956667Y-131036190D01*
X129956667Y-130536190D02*
X129623334Y-131036190D01*
X85752858Y-130893333D02*
X85990953Y-130893333D01*
X85705239Y-131036190D02*
X85871906Y-130536190D01*
X86038572Y-131036190D01*
X86205239Y-131036190D02*
X86205239Y-130536190D01*
X86324286Y-130536190D01*
X86395715Y-130560000D01*
X86443334Y-130607619D01*
X86467143Y-130655238D01*
X86490953Y-130750476D01*
X86490953Y-130821905D01*
X86467143Y-130917143D01*
X86443334Y-130964762D01*
X86395715Y-131012381D01*
X86324286Y-131036190D01*
X86205239Y-131036190D01*
X86943334Y-130536190D02*
X86705239Y-130536190D01*
X86681429Y-130774286D01*
X86705239Y-130750476D01*
X86752858Y-130726667D01*
X86871905Y-130726667D01*
X86919524Y-130750476D01*
X86943334Y-130774286D01*
X86967143Y-130821905D01*
X86967143Y-130940952D01*
X86943334Y-130988571D01*
X86919524Y-131012381D01*
X86871905Y-131036190D01*
X86752858Y-131036190D01*
X86705239Y-131012381D01*
X86681429Y-130988571D01*
X85752858Y-128353333D02*
X85990953Y-128353333D01*
X85705239Y-128496190D02*
X85871906Y-127996190D01*
X86038572Y-128496190D01*
X86205239Y-128496190D02*
X86205239Y-127996190D01*
X86324286Y-127996190D01*
X86395715Y-128020000D01*
X86443334Y-128067619D01*
X86467143Y-128115238D01*
X86490953Y-128210476D01*
X86490953Y-128281905D01*
X86467143Y-128377143D01*
X86443334Y-128424762D01*
X86395715Y-128472381D01*
X86324286Y-128496190D01*
X86205239Y-128496190D01*
X86919524Y-128162857D02*
X86919524Y-128496190D01*
X86800477Y-127972381D02*
X86681429Y-128329524D01*
X86990953Y-128329524D01*
X85752858Y-125813333D02*
X85990953Y-125813333D01*
X85705239Y-125956190D02*
X85871906Y-125456190D01*
X86038572Y-125956190D01*
X86205239Y-125956190D02*
X86205239Y-125456190D01*
X86324286Y-125456190D01*
X86395715Y-125480000D01*
X86443334Y-125527619D01*
X86467143Y-125575238D01*
X86490953Y-125670476D01*
X86490953Y-125741905D01*
X86467143Y-125837143D01*
X86443334Y-125884762D01*
X86395715Y-125932381D01*
X86324286Y-125956190D01*
X86205239Y-125956190D01*
X86657620Y-125456190D02*
X86967143Y-125456190D01*
X86800477Y-125646667D01*
X86871905Y-125646667D01*
X86919524Y-125670476D01*
X86943334Y-125694286D01*
X86967143Y-125741905D01*
X86967143Y-125860952D01*
X86943334Y-125908571D01*
X86919524Y-125932381D01*
X86871905Y-125956190D01*
X86729048Y-125956190D01*
X86681429Y-125932381D01*
X86657620Y-125908571D01*
X85752858Y-123273333D02*
X85990953Y-123273333D01*
X85705239Y-123416190D02*
X85871906Y-122916190D01*
X86038572Y-123416190D01*
X86205239Y-123416190D02*
X86205239Y-122916190D01*
X86324286Y-122916190D01*
X86395715Y-122940000D01*
X86443334Y-122987619D01*
X86467143Y-123035238D01*
X86490953Y-123130476D01*
X86490953Y-123201905D01*
X86467143Y-123297143D01*
X86443334Y-123344762D01*
X86395715Y-123392381D01*
X86324286Y-123416190D01*
X86205239Y-123416190D01*
X86681429Y-122963810D02*
X86705239Y-122940000D01*
X86752858Y-122916190D01*
X86871905Y-122916190D01*
X86919524Y-122940000D01*
X86943334Y-122963810D01*
X86967143Y-123011429D01*
X86967143Y-123059048D01*
X86943334Y-123130476D01*
X86657620Y-123416190D01*
X86967143Y-123416190D01*
X85752858Y-120733333D02*
X85990953Y-120733333D01*
X85705239Y-120876190D02*
X85871906Y-120376190D01*
X86038572Y-120876190D01*
X86205239Y-120876190D02*
X86205239Y-120376190D01*
X86324286Y-120376190D01*
X86395715Y-120400000D01*
X86443334Y-120447619D01*
X86467143Y-120495238D01*
X86490953Y-120590476D01*
X86490953Y-120661905D01*
X86467143Y-120757143D01*
X86443334Y-120804762D01*
X86395715Y-120852381D01*
X86324286Y-120876190D01*
X86205239Y-120876190D01*
X86967143Y-120876190D02*
X86681429Y-120876190D01*
X86824286Y-120876190D02*
X86824286Y-120376190D01*
X86776667Y-120447619D01*
X86729048Y-120495238D01*
X86681429Y-120519048D01*
X85752858Y-118193333D02*
X85990953Y-118193333D01*
X85705239Y-118336190D02*
X85871906Y-117836190D01*
X86038572Y-118336190D01*
X86205239Y-118336190D02*
X86205239Y-117836190D01*
X86324286Y-117836190D01*
X86395715Y-117860000D01*
X86443334Y-117907619D01*
X86467143Y-117955238D01*
X86490953Y-118050476D01*
X86490953Y-118121905D01*
X86467143Y-118217143D01*
X86443334Y-118264762D01*
X86395715Y-118312381D01*
X86324286Y-118336190D01*
X86205239Y-118336190D01*
X86800477Y-117836190D02*
X86848096Y-117836190D01*
X86895715Y-117860000D01*
X86919524Y-117883810D01*
X86943334Y-117931429D01*
X86967143Y-118026667D01*
X86967143Y-118145714D01*
X86943334Y-118240952D01*
X86919524Y-118288571D01*
X86895715Y-118312381D01*
X86848096Y-118336190D01*
X86800477Y-118336190D01*
X86752858Y-118312381D01*
X86729048Y-118288571D01*
X86705239Y-118240952D01*
X86681429Y-118145714D01*
X86681429Y-118026667D01*
X86705239Y-117931429D01*
X86729048Y-117883810D01*
X86752858Y-117860000D01*
X86800477Y-117836190D01*
X83272381Y-114534190D02*
X83439048Y-115034190D01*
X83605714Y-114534190D01*
X83772381Y-115034190D02*
X83772381Y-114534190D01*
X84010476Y-115034190D02*
X84010476Y-114534190D01*
X84296190Y-115034190D01*
X84296190Y-114534190D01*
X85979047Y-107700000D02*
X85931428Y-107676190D01*
X85860000Y-107676190D01*
X85788571Y-107700000D01*
X85740952Y-107747619D01*
X85717143Y-107795238D01*
X85693333Y-107890476D01*
X85693333Y-107961905D01*
X85717143Y-108057143D01*
X85740952Y-108104762D01*
X85788571Y-108152381D01*
X85860000Y-108176190D01*
X85907619Y-108176190D01*
X85979047Y-108152381D01*
X86002857Y-108128571D01*
X86002857Y-107961905D01*
X85907619Y-107961905D01*
X86217143Y-108176190D02*
X86217143Y-107676190D01*
X86502857Y-108176190D01*
X86502857Y-107676190D01*
X86740953Y-108176190D02*
X86740953Y-107676190D01*
X86860000Y-107676190D01*
X86931429Y-107700000D01*
X86979048Y-107747619D01*
X87002857Y-107795238D01*
X87026667Y-107890476D01*
X87026667Y-107961905D01*
X87002857Y-108057143D01*
X86979048Y-108104762D01*
X86931429Y-108152381D01*
X86860000Y-108176190D01*
X86740953Y-108176190D01*
X86264763Y-105136190D02*
X86026668Y-105136190D01*
X86002858Y-105374286D01*
X86026668Y-105350476D01*
X86074287Y-105326667D01*
X86193334Y-105326667D01*
X86240953Y-105350476D01*
X86264763Y-105374286D01*
X86288572Y-105421905D01*
X86288572Y-105540952D01*
X86264763Y-105588571D01*
X86240953Y-105612381D01*
X86193334Y-105636190D01*
X86074287Y-105636190D01*
X86026668Y-105612381D01*
X86002858Y-105588571D01*
X86431429Y-105136190D02*
X86598096Y-105636190D01*
X86764762Y-105136190D01*
X86086191Y-100556190D02*
X85919524Y-100318095D01*
X85800477Y-100556190D02*
X85800477Y-100056190D01*
X85990953Y-100056190D01*
X86038572Y-100080000D01*
X86062381Y-100103810D01*
X86086191Y-100151429D01*
X86086191Y-100222857D01*
X86062381Y-100270476D01*
X86038572Y-100294286D01*
X85990953Y-100318095D01*
X85800477Y-100318095D01*
X86276667Y-100532381D02*
X86348096Y-100556190D01*
X86467143Y-100556190D01*
X86514762Y-100532381D01*
X86538572Y-100508571D01*
X86562381Y-100460952D01*
X86562381Y-100413333D01*
X86538572Y-100365714D01*
X86514762Y-100341905D01*
X86467143Y-100318095D01*
X86371905Y-100294286D01*
X86324286Y-100270476D01*
X86300477Y-100246667D01*
X86276667Y-100199048D01*
X86276667Y-100151429D01*
X86300477Y-100103810D01*
X86324286Y-100080000D01*
X86371905Y-100056190D01*
X86490953Y-100056190D01*
X86562381Y-100080000D01*
X86705238Y-100056190D02*
X86990952Y-100056190D01*
X86848095Y-100556190D02*
X86848095Y-100056190D01*
D12*
X119868571Y-100513571D02*
X119868571Y-99013571D01*
X120368571Y-100085000D01*
X120868571Y-99013571D01*
X120868571Y-100513571D01*
X121797143Y-100513571D02*
X121654285Y-100442143D01*
X121582857Y-100370714D01*
X121511428Y-100227857D01*
X121511428Y-99799286D01*
X121582857Y-99656429D01*
X121654285Y-99585000D01*
X121797143Y-99513571D01*
X122011428Y-99513571D01*
X122154285Y-99585000D01*
X122225714Y-99656429D01*
X122297143Y-99799286D01*
X122297143Y-100227857D01*
X122225714Y-100370714D01*
X122154285Y-100442143D01*
X122011428Y-100513571D01*
X121797143Y-100513571D01*
X122725714Y-99513571D02*
X123297143Y-99513571D01*
X122940000Y-99013571D02*
X122940000Y-100299286D01*
X123011428Y-100442143D01*
X123154286Y-100513571D01*
X123297143Y-100513571D01*
X123797143Y-100513571D02*
X123797143Y-99513571D01*
X123797143Y-99013571D02*
X123725714Y-99085000D01*
X123797143Y-99156429D01*
X123868571Y-99085000D01*
X123797143Y-99013571D01*
X123797143Y-99156429D01*
X124725715Y-100513571D02*
X124582857Y-100442143D01*
X124511429Y-100370714D01*
X124440000Y-100227857D01*
X124440000Y-99799286D01*
X124511429Y-99656429D01*
X124582857Y-99585000D01*
X124725715Y-99513571D01*
X124940000Y-99513571D01*
X125082857Y-99585000D01*
X125154286Y-99656429D01*
X125225715Y-99799286D01*
X125225715Y-100227857D01*
X125154286Y-100370714D01*
X125082857Y-100442143D01*
X124940000Y-100513571D01*
X124725715Y-100513571D01*
X125868572Y-99513571D02*
X125868572Y-100513571D01*
X125868572Y-99656429D02*
X125940000Y-99585000D01*
X126082858Y-99513571D01*
X126297143Y-99513571D01*
X126440000Y-99585000D01*
X126511429Y-99727857D01*
X126511429Y-100513571D01*
X118868572Y-102913571D02*
X118868572Y-101413571D01*
X119225715Y-101413571D01*
X119440000Y-101485000D01*
X119582858Y-101627857D01*
X119654286Y-101770714D01*
X119725715Y-102056429D01*
X119725715Y-102270714D01*
X119654286Y-102556429D01*
X119582858Y-102699286D01*
X119440000Y-102842143D01*
X119225715Y-102913571D01*
X118868572Y-102913571D01*
X120940000Y-102842143D02*
X120797143Y-102913571D01*
X120511429Y-102913571D01*
X120368572Y-102842143D01*
X120297143Y-102699286D01*
X120297143Y-102127857D01*
X120368572Y-101985000D01*
X120511429Y-101913571D01*
X120797143Y-101913571D01*
X120940000Y-101985000D01*
X121011429Y-102127857D01*
X121011429Y-102270714D01*
X120297143Y-102413571D01*
X121440000Y-101913571D02*
X122011429Y-101913571D01*
X121654286Y-101413571D02*
X121654286Y-102699286D01*
X121725714Y-102842143D01*
X121868572Y-102913571D01*
X122011429Y-102913571D01*
X123082857Y-102842143D02*
X122940000Y-102913571D01*
X122654286Y-102913571D01*
X122511429Y-102842143D01*
X122440000Y-102699286D01*
X122440000Y-102127857D01*
X122511429Y-101985000D01*
X122654286Y-101913571D01*
X122940000Y-101913571D01*
X123082857Y-101985000D01*
X123154286Y-102127857D01*
X123154286Y-102270714D01*
X122440000Y-102413571D01*
X124440000Y-102842143D02*
X124297143Y-102913571D01*
X124011429Y-102913571D01*
X123868571Y-102842143D01*
X123797143Y-102770714D01*
X123725714Y-102627857D01*
X123725714Y-102199286D01*
X123797143Y-102056429D01*
X123868571Y-101985000D01*
X124011429Y-101913571D01*
X124297143Y-101913571D01*
X124440000Y-101985000D01*
X124868571Y-101913571D02*
X125440000Y-101913571D01*
X125082857Y-101413571D02*
X125082857Y-102699286D01*
X125154285Y-102842143D01*
X125297143Y-102913571D01*
X125440000Y-102913571D01*
X126154286Y-102913571D02*
X126011428Y-102842143D01*
X125940000Y-102770714D01*
X125868571Y-102627857D01*
X125868571Y-102199286D01*
X125940000Y-102056429D01*
X126011428Y-101985000D01*
X126154286Y-101913571D01*
X126368571Y-101913571D01*
X126511428Y-101985000D01*
X126582857Y-102056429D01*
X126654286Y-102199286D01*
X126654286Y-102627857D01*
X126582857Y-102770714D01*
X126511428Y-102842143D01*
X126368571Y-102913571D01*
X126154286Y-102913571D01*
X127297143Y-102913571D02*
X127297143Y-101913571D01*
X127297143Y-102199286D02*
X127368571Y-102056429D01*
X127440000Y-101985000D01*
X127582857Y-101913571D01*
X127725714Y-101913571D01*
X120011429Y-105242143D02*
X120225715Y-105313571D01*
X120582858Y-105313571D01*
X120725715Y-105242143D01*
X120797144Y-105170714D01*
X120868572Y-105027857D01*
X120868572Y-104885000D01*
X120797144Y-104742143D01*
X120725715Y-104670714D01*
X120582858Y-104599286D01*
X120297144Y-104527857D01*
X120154286Y-104456429D01*
X120082858Y-104385000D01*
X120011429Y-104242143D01*
X120011429Y-104099286D01*
X120082858Y-103956429D01*
X120154286Y-103885000D01*
X120297144Y-103813571D01*
X120654286Y-103813571D01*
X120868572Y-103885000D01*
X121511429Y-105313571D02*
X121511429Y-103813571D01*
X122154286Y-105313571D02*
X122154286Y-104527857D01*
X122082857Y-104385000D01*
X121940000Y-104313571D01*
X121725715Y-104313571D01*
X121582857Y-104385000D01*
X121511429Y-104456429D01*
X122868572Y-105313571D02*
X122868572Y-104313571D01*
X122868572Y-103813571D02*
X122797143Y-103885000D01*
X122868572Y-103956429D01*
X122940000Y-103885000D01*
X122868572Y-103813571D01*
X122868572Y-103956429D01*
X124154286Y-105242143D02*
X124011429Y-105313571D01*
X123725715Y-105313571D01*
X123582858Y-105242143D01*
X123511429Y-105099286D01*
X123511429Y-104527857D01*
X123582858Y-104385000D01*
X123725715Y-104313571D01*
X124011429Y-104313571D01*
X124154286Y-104385000D01*
X124225715Y-104527857D01*
X124225715Y-104670714D01*
X123511429Y-104813571D01*
X125082858Y-105313571D02*
X124940000Y-105242143D01*
X124868572Y-105099286D01*
X124868572Y-103813571D01*
X126297143Y-105313571D02*
X126297143Y-103813571D01*
X126297143Y-105242143D02*
X126154286Y-105313571D01*
X125868572Y-105313571D01*
X125725714Y-105242143D01*
X125654286Y-105170714D01*
X125582857Y-105027857D01*
X125582857Y-104599286D01*
X125654286Y-104456429D01*
X125725714Y-104385000D01*
X125868572Y-104313571D01*
X126154286Y-104313571D01*
X126297143Y-104385000D01*
D13*
X132715000Y-70485000D02*
G75*
G03X132715000Y-70485000I-1270000J0D01*
G01*
X120015000Y-132715000D02*
G75*
G03X120015000Y-132715000I-1270000J0D01*
G01*
X85725000Y-70485000D02*
G75*
G03X85725000Y-70485000I-1270000J0D01*
G01*
X88900000Y-132715000D02*
G75*
G03X88900000Y-132715000I-1270000J0D01*
G01*
X101559000Y-115375000D02*
X96561000Y-115375000D01*
X101551000Y-115515000D02*
X99214000Y-115515000D01*
X98906000Y-115515000D02*
X96569000Y-115515000D01*
X101535000Y-115655000D02*
X99533000Y-115655000D01*
X98587000Y-115655000D02*
X96585000Y-115655000D01*
X101511000Y-115795000D02*
X99680000Y-115795000D01*
X98440000Y-115795000D02*
X96609000Y-115795000D01*
X101478000Y-115935000D02*
X99772000Y-115935000D01*
X98348000Y-115935000D02*
X96642000Y-115935000D01*
X101437000Y-116075000D02*
X99828000Y-116075000D01*
X98292000Y-116075000D02*
X96683000Y-116075000D01*
X101387000Y-116215000D02*
X99855000Y-116215000D01*
X98265000Y-116215000D02*
X96733000Y-116215000D01*
X101326000Y-116355000D02*
X99858000Y-116355000D01*
X98262000Y-116355000D02*
X96794000Y-116355000D01*
X101256000Y-116495000D02*
X99836000Y-116495000D01*
X98284000Y-116495000D02*
X96864000Y-116495000D01*
X101174000Y-116635000D02*
X99786000Y-116635000D01*
X98334000Y-116635000D02*
X96946000Y-116635000D01*
X101079000Y-116775000D02*
X99704000Y-116775000D01*
X98416000Y-116775000D02*
X97041000Y-116775000D01*
X100968000Y-116915000D02*
X99572000Y-116915000D01*
X98548000Y-116915000D02*
X97152000Y-116915000D01*
X100840000Y-117055000D02*
X99325000Y-117055000D01*
X98795000Y-117055000D02*
X97280000Y-117055000D01*
X100691000Y-117195000D02*
X97429000Y-117195000D01*
X100512000Y-117335000D02*
X97608000Y-117335000D01*
X100293000Y-117475000D02*
X97827000Y-117475000D01*
X100004000Y-117615000D02*
X98116000Y-117615000D01*
X99532000Y-117755000D02*
X98588000Y-117755000D01*
X99860000Y-116300000D02*
G75*
G03X99860000Y-116300000I-800000J0D01*
G01*
X101597500Y-115300000D02*
G75*
G03X101597500Y-115300000I-2537500J0D01*
G01*
X101559000Y-93150000D02*
X96561000Y-93150000D01*
X101551000Y-93290000D02*
X99214000Y-93290000D01*
X98906000Y-93290000D02*
X96569000Y-93290000D01*
X101535000Y-93430000D02*
X99533000Y-93430000D01*
X98587000Y-93430000D02*
X96585000Y-93430000D01*
X101511000Y-93570000D02*
X99680000Y-93570000D01*
X98440000Y-93570000D02*
X96609000Y-93570000D01*
X101478000Y-93710000D02*
X99772000Y-93710000D01*
X98348000Y-93710000D02*
X96642000Y-93710000D01*
X101437000Y-93850000D02*
X99828000Y-93850000D01*
X98292000Y-93850000D02*
X96683000Y-93850000D01*
X101387000Y-93990000D02*
X99855000Y-93990000D01*
X98265000Y-93990000D02*
X96733000Y-93990000D01*
X101326000Y-94130000D02*
X99858000Y-94130000D01*
X98262000Y-94130000D02*
X96794000Y-94130000D01*
X101256000Y-94270000D02*
X99836000Y-94270000D01*
X98284000Y-94270000D02*
X96864000Y-94270000D01*
X101174000Y-94410000D02*
X99786000Y-94410000D01*
X98334000Y-94410000D02*
X96946000Y-94410000D01*
X101079000Y-94550000D02*
X99704000Y-94550000D01*
X98416000Y-94550000D02*
X97041000Y-94550000D01*
X100968000Y-94690000D02*
X99572000Y-94690000D01*
X98548000Y-94690000D02*
X97152000Y-94690000D01*
X100840000Y-94830000D02*
X99325000Y-94830000D01*
X98795000Y-94830000D02*
X97280000Y-94830000D01*
X100691000Y-94970000D02*
X97429000Y-94970000D01*
X100512000Y-95110000D02*
X97608000Y-95110000D01*
X100293000Y-95250000D02*
X97827000Y-95250000D01*
X100004000Y-95390000D02*
X98116000Y-95390000D01*
X99532000Y-95530000D02*
X98588000Y-95530000D01*
X99860000Y-94075000D02*
G75*
G03X99860000Y-94075000I-800000J0D01*
G01*
X101597500Y-93075000D02*
G75*
G03X101597500Y-93075000I-2537500J0D01*
G01*
X104181000Y-132275000D02*
X109179000Y-132275000D01*
X104189000Y-132135000D02*
X106526000Y-132135000D01*
X106834000Y-132135000D02*
X109171000Y-132135000D01*
X104205000Y-131995000D02*
X106207000Y-131995000D01*
X107153000Y-131995000D02*
X109155000Y-131995000D01*
X104229000Y-131855000D02*
X106060000Y-131855000D01*
X107300000Y-131855000D02*
X109131000Y-131855000D01*
X104262000Y-131715000D02*
X105968000Y-131715000D01*
X107392000Y-131715000D02*
X109098000Y-131715000D01*
X104303000Y-131575000D02*
X105912000Y-131575000D01*
X107448000Y-131575000D02*
X109057000Y-131575000D01*
X104353000Y-131435000D02*
X105885000Y-131435000D01*
X107475000Y-131435000D02*
X109007000Y-131435000D01*
X104414000Y-131295000D02*
X105882000Y-131295000D01*
X107478000Y-131295000D02*
X108946000Y-131295000D01*
X104484000Y-131155000D02*
X105904000Y-131155000D01*
X107456000Y-131155000D02*
X108876000Y-131155000D01*
X104566000Y-131015000D02*
X105954000Y-131015000D01*
X107406000Y-131015000D02*
X108794000Y-131015000D01*
X104661000Y-130875000D02*
X106036000Y-130875000D01*
X107324000Y-130875000D02*
X108699000Y-130875000D01*
X104772000Y-130735000D02*
X106168000Y-130735000D01*
X107192000Y-130735000D02*
X108588000Y-130735000D01*
X104900000Y-130595000D02*
X106415000Y-130595000D01*
X106945000Y-130595000D02*
X108460000Y-130595000D01*
X105049000Y-130455000D02*
X108311000Y-130455000D01*
X105228000Y-130315000D02*
X108132000Y-130315000D01*
X105447000Y-130175000D02*
X107913000Y-130175000D01*
X105736000Y-130035000D02*
X107624000Y-130035000D01*
X106208000Y-129895000D02*
X107152000Y-129895000D01*
X107480000Y-131350000D02*
G75*
G03X107480000Y-131350000I-800000J0D01*
G01*
X109217500Y-132350000D02*
G75*
G03X109217500Y-132350000I-2537500J0D01*
G01*
X104181000Y-110050000D02*
X109179000Y-110050000D01*
X104189000Y-109910000D02*
X106526000Y-109910000D01*
X106834000Y-109910000D02*
X109171000Y-109910000D01*
X104205000Y-109770000D02*
X106207000Y-109770000D01*
X107153000Y-109770000D02*
X109155000Y-109770000D01*
X104229000Y-109630000D02*
X106060000Y-109630000D01*
X107300000Y-109630000D02*
X109131000Y-109630000D01*
X104262000Y-109490000D02*
X105968000Y-109490000D01*
X107392000Y-109490000D02*
X109098000Y-109490000D01*
X104303000Y-109350000D02*
X105912000Y-109350000D01*
X107448000Y-109350000D02*
X109057000Y-109350000D01*
X104353000Y-109210000D02*
X105885000Y-109210000D01*
X107475000Y-109210000D02*
X109007000Y-109210000D01*
X104414000Y-109070000D02*
X105882000Y-109070000D01*
X107478000Y-109070000D02*
X108946000Y-109070000D01*
X104484000Y-108930000D02*
X105904000Y-108930000D01*
X107456000Y-108930000D02*
X108876000Y-108930000D01*
X104566000Y-108790000D02*
X105954000Y-108790000D01*
X107406000Y-108790000D02*
X108794000Y-108790000D01*
X104661000Y-108650000D02*
X106036000Y-108650000D01*
X107324000Y-108650000D02*
X108699000Y-108650000D01*
X104772000Y-108510000D02*
X106168000Y-108510000D01*
X107192000Y-108510000D02*
X108588000Y-108510000D01*
X104900000Y-108370000D02*
X106415000Y-108370000D01*
X106945000Y-108370000D02*
X108460000Y-108370000D01*
X105049000Y-108230000D02*
X108311000Y-108230000D01*
X105228000Y-108090000D02*
X108132000Y-108090000D01*
X105447000Y-107950000D02*
X107913000Y-107950000D01*
X105736000Y-107810000D02*
X107624000Y-107810000D01*
X106208000Y-107670000D02*
X107152000Y-107670000D01*
X107480000Y-109125000D02*
G75*
G03X107480000Y-109125000I-800000J0D01*
G01*
X109217500Y-110125000D02*
G75*
G03X109217500Y-110125000I-2537500J0D01*
G01*
X101559000Y-70925000D02*
X96561000Y-70925000D01*
X101551000Y-71065000D02*
X99214000Y-71065000D01*
X98906000Y-71065000D02*
X96569000Y-71065000D01*
X101535000Y-71205000D02*
X99533000Y-71205000D01*
X98587000Y-71205000D02*
X96585000Y-71205000D01*
X101511000Y-71345000D02*
X99680000Y-71345000D01*
X98440000Y-71345000D02*
X96609000Y-71345000D01*
X101478000Y-71485000D02*
X99772000Y-71485000D01*
X98348000Y-71485000D02*
X96642000Y-71485000D01*
X101437000Y-71625000D02*
X99828000Y-71625000D01*
X98292000Y-71625000D02*
X96683000Y-71625000D01*
X101387000Y-71765000D02*
X99855000Y-71765000D01*
X98265000Y-71765000D02*
X96733000Y-71765000D01*
X101326000Y-71905000D02*
X99858000Y-71905000D01*
X98262000Y-71905000D02*
X96794000Y-71905000D01*
X101256000Y-72045000D02*
X99836000Y-72045000D01*
X98284000Y-72045000D02*
X96864000Y-72045000D01*
X101174000Y-72185000D02*
X99786000Y-72185000D01*
X98334000Y-72185000D02*
X96946000Y-72185000D01*
X101079000Y-72325000D02*
X99704000Y-72325000D01*
X98416000Y-72325000D02*
X97041000Y-72325000D01*
X100968000Y-72465000D02*
X99572000Y-72465000D01*
X98548000Y-72465000D02*
X97152000Y-72465000D01*
X100840000Y-72605000D02*
X99325000Y-72605000D01*
X98795000Y-72605000D02*
X97280000Y-72605000D01*
X100691000Y-72745000D02*
X97429000Y-72745000D01*
X100512000Y-72885000D02*
X97608000Y-72885000D01*
X100293000Y-73025000D02*
X97827000Y-73025000D01*
X100004000Y-73165000D02*
X98116000Y-73165000D01*
X99532000Y-73305000D02*
X98588000Y-73305000D01*
X99860000Y-71850000D02*
G75*
G03X99860000Y-71850000I-800000J0D01*
G01*
X101597500Y-70850000D02*
G75*
G03X101597500Y-70850000I-2537500J0D01*
G01*
X104181000Y-87825000D02*
X109179000Y-87825000D01*
X104189000Y-87685000D02*
X106526000Y-87685000D01*
X106834000Y-87685000D02*
X109171000Y-87685000D01*
X104205000Y-87545000D02*
X106207000Y-87545000D01*
X107153000Y-87545000D02*
X109155000Y-87545000D01*
X104229000Y-87405000D02*
X106060000Y-87405000D01*
X107300000Y-87405000D02*
X109131000Y-87405000D01*
X104262000Y-87265000D02*
X105968000Y-87265000D01*
X107392000Y-87265000D02*
X109098000Y-87265000D01*
X104303000Y-87125000D02*
X105912000Y-87125000D01*
X107448000Y-87125000D02*
X109057000Y-87125000D01*
X104353000Y-86985000D02*
X105885000Y-86985000D01*
X107475000Y-86985000D02*
X109007000Y-86985000D01*
X104414000Y-86845000D02*
X105882000Y-86845000D01*
X107478000Y-86845000D02*
X108946000Y-86845000D01*
X104484000Y-86705000D02*
X105904000Y-86705000D01*
X107456000Y-86705000D02*
X108876000Y-86705000D01*
X104566000Y-86565000D02*
X105954000Y-86565000D01*
X107406000Y-86565000D02*
X108794000Y-86565000D01*
X104661000Y-86425000D02*
X106036000Y-86425000D01*
X107324000Y-86425000D02*
X108699000Y-86425000D01*
X104772000Y-86285000D02*
X106168000Y-86285000D01*
X107192000Y-86285000D02*
X108588000Y-86285000D01*
X104900000Y-86145000D02*
X106415000Y-86145000D01*
X106945000Y-86145000D02*
X108460000Y-86145000D01*
X105049000Y-86005000D02*
X108311000Y-86005000D01*
X105228000Y-85865000D02*
X108132000Y-85865000D01*
X105447000Y-85725000D02*
X107913000Y-85725000D01*
X105736000Y-85585000D02*
X107624000Y-85585000D01*
X106208000Y-85445000D02*
X107152000Y-85445000D01*
X107480000Y-86900000D02*
G75*
G03X107480000Y-86900000I-800000J0D01*
G01*
X109217500Y-87900000D02*
G75*
G03X109217500Y-87900000I-2537500J0D01*
G01*
X114553480Y-130177540D02*
X113156480Y-130177540D01*
X118998480Y-130177540D02*
X120522480Y-130177540D01*
X118617480Y-130939540D02*
X118617480Y-129415540D01*
X118871480Y-130939540D02*
X118871480Y-129415540D01*
X119125480Y-130177540D02*
X119125480Y-129415540D01*
X119125480Y-129415540D02*
X114553480Y-129415540D01*
X114553480Y-129415540D02*
X114553480Y-130939540D01*
X114553480Y-130939540D02*
X119125480Y-130939540D01*
X119125480Y-130939540D02*
X119125480Y-130177540D01*
X114553480Y-107952540D02*
X113156480Y-107952540D01*
X118998480Y-107952540D02*
X120522480Y-107952540D01*
X118617480Y-108714540D02*
X118617480Y-107190540D01*
X118871480Y-108714540D02*
X118871480Y-107190540D01*
X119125480Y-107952540D02*
X119125480Y-107190540D01*
X119125480Y-107190540D02*
X114553480Y-107190540D01*
X114553480Y-107190540D02*
X114553480Y-108714540D01*
X114553480Y-108714540D02*
X119125480Y-108714540D01*
X119125480Y-108714540D02*
X119125480Y-107952540D01*
X114553480Y-85727540D02*
X113156480Y-85727540D01*
X118998480Y-85727540D02*
X120522480Y-85727540D01*
X118617480Y-86489540D02*
X118617480Y-84965540D01*
X118871480Y-86489540D02*
X118871480Y-84965540D01*
X119125480Y-85727540D02*
X119125480Y-84965540D01*
X119125480Y-84965540D02*
X114553480Y-84965540D01*
X114553480Y-84965540D02*
X114553480Y-86489540D01*
X114553480Y-86489540D02*
X119125480Y-86489540D01*
X119125480Y-86489540D02*
X119125480Y-85727540D01*
X119633480Y-116842540D02*
X118236480Y-116842540D01*
X124078480Y-116842540D02*
X125602480Y-116842540D01*
X123697480Y-117604540D02*
X123697480Y-116080540D01*
X123951480Y-117604540D02*
X123951480Y-116080540D01*
X124205480Y-116842540D02*
X124205480Y-116080540D01*
X124205480Y-116080540D02*
X119633480Y-116080540D01*
X119633480Y-116080540D02*
X119633480Y-117604540D01*
X119633480Y-117604540D02*
X124205480Y-117604540D01*
X124205480Y-117604540D02*
X124205480Y-116842540D01*
X119633480Y-94617540D02*
X118236480Y-94617540D01*
X124078480Y-94617540D02*
X125602480Y-94617540D01*
X123697480Y-95379540D02*
X123697480Y-93855540D01*
X123951480Y-95379540D02*
X123951480Y-93855540D01*
X124205480Y-94617540D02*
X124205480Y-93855540D01*
X124205480Y-93855540D02*
X119633480Y-93855540D01*
X119633480Y-93855540D02*
X119633480Y-95379540D01*
X119633480Y-95379540D02*
X124205480Y-95379540D01*
X124205480Y-95379540D02*
X124205480Y-94617540D01*
X119633480Y-72392540D02*
X118236480Y-72392540D01*
X124078480Y-72392540D02*
X125602480Y-72392540D01*
X123697480Y-73154540D02*
X123697480Y-71630540D01*
X123951480Y-73154540D02*
X123951480Y-71630540D01*
X124205480Y-72392540D02*
X124205480Y-71630540D01*
X124205480Y-71630540D02*
X119633480Y-71630540D01*
X119633480Y-71630540D02*
X119633480Y-73154540D01*
X119633480Y-73154540D02*
X124205480Y-73154540D01*
X124205480Y-73154540D02*
X124205480Y-72392540D01*
X101799000Y-130766000D02*
X101799000Y-130966000D01*
X101799000Y-133360000D02*
X101799000Y-133180000D01*
X98571256Y-133049643D02*
G75*
G03X101799000Y-133366000I1727744J1003643D01*
G01*
X99246994Y-133179068D02*
G75*
G03X101350000Y-133180000I1052006J1133068D01*
G01*
X101786220Y-130739274D02*
G75*
G03X98549000Y-131086000I-1497220J-1306726D01*
G01*
X101312889Y-130966747D02*
G75*
G03X99265000Y-130986000I-1013889J-1079253D01*
G01*
X101799000Y-108668000D02*
X101799000Y-108868000D01*
X101799000Y-111262000D02*
X101799000Y-111082000D01*
X98571256Y-110951643D02*
G75*
G03X101799000Y-111268000I1727744J1003643D01*
G01*
X99246994Y-111081068D02*
G75*
G03X101350000Y-111082000I1052006J1133068D01*
G01*
X101786220Y-108641274D02*
G75*
G03X98549000Y-108988000I-1497220J-1306726D01*
G01*
X101312889Y-108868747D02*
G75*
G03X99265000Y-108888000I-1013889J-1079253D01*
G01*
X101799000Y-86570000D02*
X101799000Y-86770000D01*
X101799000Y-89164000D02*
X101799000Y-88984000D01*
X98571256Y-88853643D02*
G75*
G03X101799000Y-89170000I1727744J1003643D01*
G01*
X99246994Y-88983068D02*
G75*
G03X101350000Y-88984000I1052006J1133068D01*
G01*
X101786220Y-86543274D02*
G75*
G03X98549000Y-86890000I-1497220J-1306726D01*
G01*
X101312889Y-86770747D02*
G75*
G03X99265000Y-86790000I-1013889J-1079253D01*
G01*
X103941000Y-72180000D02*
X103941000Y-71980000D01*
X103941000Y-69586000D02*
X103941000Y-69766000D01*
X107168744Y-69896357D02*
G75*
G03X103941000Y-69580000I-1727744J-1003643D01*
G01*
X106493006Y-69766932D02*
G75*
G03X104390000Y-69766000I-1052006J-1133068D01*
G01*
X103953780Y-72206726D02*
G75*
G03X107191000Y-71860000I1497220J1306726D01*
G01*
X104427111Y-71979253D02*
G75*
G03X106475000Y-71960000I1013889J1079253D01*
G01*
X91685000Y-127500000D02*
X92955000Y-127500000D01*
X91685000Y-120150000D02*
X92955000Y-120150000D01*
X114055000Y-120150000D02*
X112785000Y-120150000D01*
X114055000Y-127500000D02*
X112785000Y-127500000D01*
X91685000Y-127500000D02*
X91685000Y-120150000D01*
X114055000Y-127500000D02*
X114055000Y-120150000D01*
X92955000Y-127500000D02*
X92955000Y-128785000D01*
X91685000Y-105275000D02*
X92955000Y-105275000D01*
X91685000Y-97925000D02*
X92955000Y-97925000D01*
X114055000Y-97925000D02*
X112785000Y-97925000D01*
X114055000Y-105275000D02*
X112785000Y-105275000D01*
X91685000Y-105275000D02*
X91685000Y-97925000D01*
X114055000Y-105275000D02*
X114055000Y-97925000D01*
X92955000Y-105275000D02*
X92955000Y-106560000D01*
X91685000Y-83050000D02*
X92955000Y-83050000D01*
X91685000Y-75700000D02*
X92955000Y-75700000D01*
X114055000Y-75700000D02*
X112785000Y-75700000D01*
X114055000Y-83050000D02*
X112785000Y-83050000D01*
X91685000Y-83050000D02*
X91685000Y-75700000D01*
X114055000Y-83050000D02*
X114055000Y-75700000D01*
X92955000Y-83050000D02*
X92955000Y-84335000D01*
X90170000Y-121285000D02*
X90170000Y-128905000D01*
X87630000Y-121285000D02*
X87630000Y-128905000D01*
X87350000Y-118465000D02*
X87350000Y-120015000D01*
X90170000Y-128905000D02*
X87630000Y-128905000D01*
X87630000Y-121285000D02*
X90170000Y-121285000D01*
X90450000Y-120015000D02*
X90450000Y-118465000D01*
X90450000Y-118465000D02*
X87350000Y-118465000D01*
X90170000Y-99060000D02*
X90170000Y-106680000D01*
X87630000Y-99060000D02*
X87630000Y-106680000D01*
X87350000Y-96240000D02*
X87350000Y-97790000D01*
X90170000Y-106680000D02*
X87630000Y-106680000D01*
X87630000Y-99060000D02*
X90170000Y-99060000D01*
X90450000Y-97790000D02*
X90450000Y-96240000D01*
X90450000Y-96240000D02*
X87350000Y-96240000D01*
X90170000Y-76708000D02*
X90170000Y-84328000D01*
X87630000Y-76708000D02*
X87630000Y-84328000D01*
X87350000Y-73888000D02*
X87350000Y-75438000D01*
X90170000Y-84328000D02*
X87630000Y-84328000D01*
X87630000Y-76708000D02*
X90170000Y-76708000D01*
X90450000Y-75438000D02*
X90450000Y-73888000D01*
X90450000Y-73888000D02*
X87350000Y-73888000D01*
X118110000Y-121158000D02*
X118110000Y-128778000D01*
X115570000Y-121158000D02*
X115570000Y-128778000D01*
X115290000Y-118338000D02*
X115290000Y-119888000D01*
X118110000Y-128778000D02*
X115570000Y-128778000D01*
X115570000Y-121158000D02*
X118110000Y-121158000D01*
X118390000Y-119888000D02*
X118390000Y-118338000D01*
X118390000Y-118338000D02*
X115290000Y-118338000D01*
X118110000Y-99060000D02*
X118110000Y-106680000D01*
X115570000Y-99060000D02*
X115570000Y-106680000D01*
X115290000Y-96240000D02*
X115290000Y-97790000D01*
X118110000Y-106680000D02*
X115570000Y-106680000D01*
X115570000Y-99060000D02*
X118110000Y-99060000D01*
X118390000Y-97790000D02*
X118390000Y-96240000D01*
X118390000Y-96240000D02*
X115290000Y-96240000D01*
X118110000Y-76835000D02*
X118110000Y-84455000D01*
X115570000Y-76835000D02*
X115570000Y-84455000D01*
X115290000Y-74015000D02*
X115290000Y-75565000D01*
X118110000Y-84455000D02*
X115570000Y-84455000D01*
X115570000Y-76835000D02*
X118110000Y-76835000D01*
X118390000Y-75565000D02*
X118390000Y-74015000D01*
X118390000Y-74015000D02*
X115290000Y-74015000D01*
X94650000Y-131205000D02*
X95850000Y-131205000D01*
X95850000Y-132955000D02*
X94650000Y-132955000D01*
X94650000Y-109107000D02*
X95850000Y-109107000D01*
X95850000Y-110857000D02*
X94650000Y-110857000D01*
X93380000Y-113425000D02*
X94580000Y-113425000D01*
X94580000Y-115175000D02*
X93380000Y-115175000D01*
X93380000Y-91200000D02*
X94580000Y-91200000D01*
X94580000Y-92950000D02*
X93380000Y-92950000D01*
X112360000Y-134225000D02*
X111160000Y-134225000D01*
X111160000Y-132475000D02*
X112360000Y-132475000D01*
X112360000Y-112000000D02*
X111160000Y-112000000D01*
X111160000Y-110250000D02*
X112360000Y-110250000D01*
X111090000Y-116191000D02*
X109890000Y-116191000D01*
X109890000Y-114441000D02*
X111090000Y-114441000D01*
X111090000Y-93839000D02*
X109890000Y-93839000D01*
X109890000Y-92089000D02*
X111090000Y-92089000D01*
X94650000Y-87009000D02*
X95850000Y-87009000D01*
X95850000Y-88759000D02*
X94650000Y-88759000D01*
X93380000Y-68975000D02*
X94580000Y-68975000D01*
X94580000Y-70725000D02*
X93380000Y-70725000D01*
X112360000Y-89775000D02*
X111160000Y-89775000D01*
X111160000Y-88025000D02*
X112360000Y-88025000D01*
X111090000Y-71741000D02*
X109890000Y-71741000D01*
X109890000Y-69991000D02*
X111090000Y-69991000D01*
X87743000Y-111668000D02*
X87743000Y-112868000D01*
X85993000Y-112868000D02*
X85993000Y-111668000D01*
X88841000Y-113268000D02*
X88841000Y-111268000D01*
X90991000Y-111268000D02*
X90991000Y-113268000D01*
X103941000Y-116630000D02*
X103941000Y-116430000D01*
X103941000Y-114036000D02*
X103941000Y-114216000D01*
X107168744Y-114346357D02*
G75*
G03X103941000Y-114030000I-1727744J-1003643D01*
G01*
X106493006Y-114216932D02*
G75*
G03X104390000Y-114216000I-1052006J-1133068D01*
G01*
X103953780Y-116656726D02*
G75*
G03X107191000Y-116310000I1497220J1306726D01*
G01*
X104427111Y-116429253D02*
G75*
G03X106475000Y-116410000I1013889J1079253D01*
G01*
X103941000Y-94278000D02*
X103941000Y-94078000D01*
X103941000Y-91684000D02*
X103941000Y-91864000D01*
X107168744Y-91994357D02*
G75*
G03X103941000Y-91678000I-1727744J-1003643D01*
G01*
X106493006Y-91864932D02*
G75*
G03X104390000Y-91864000I-1052006J-1133068D01*
G01*
X103953780Y-94304726D02*
G75*
G03X107191000Y-93958000I1497220J1306726D01*
G01*
X104427111Y-94077253D02*
G75*
G03X106475000Y-94058000I1013889J1079253D01*
G01*
D14*
G36*
X127581552Y-73485475D02*
X128403176Y-73581780D01*
X129179873Y-73787857D01*
X129982246Y-74117833D01*
X130106436Y-74177547D01*
X130935276Y-74623138D01*
X131614153Y-75087395D01*
X132195040Y-75611626D01*
X132729909Y-76237137D01*
X132778965Y-76301668D01*
X133346138Y-77108687D01*
X133765804Y-77845388D01*
X134055409Y-78560110D01*
X134232401Y-79301196D01*
X134314226Y-80116987D01*
X134324954Y-80585237D01*
X134296422Y-81536583D01*
X134195737Y-82347811D01*
X134007280Y-83073980D01*
X133715436Y-83770151D01*
X133304585Y-84491380D01*
X133149012Y-84731071D01*
X132757303Y-85250640D01*
X132269862Y-85793275D01*
X131739409Y-86307221D01*
X131218659Y-86740722D01*
X130841337Y-86996663D01*
X130530528Y-87154144D01*
X130099626Y-87340745D01*
X129622573Y-87525239D01*
X129422346Y-87595915D01*
X128991410Y-87735803D01*
X128626713Y-87830835D01*
X128264270Y-87890988D01*
X127840091Y-87926242D01*
X127290191Y-87946575D01*
X127152400Y-87949890D01*
X126362920Y-87951697D01*
X125747047Y-87915732D01*
X125278429Y-87840367D01*
X125244329Y-87832038D01*
X124127472Y-87449335D01*
X123086620Y-86893084D01*
X122142479Y-86183626D01*
X121315758Y-85341299D01*
X120627164Y-84386443D01*
X120097404Y-83339398D01*
X119815004Y-82499200D01*
X119687718Y-81794989D01*
X119638819Y-81017631D01*
X119899881Y-81017631D01*
X120026285Y-82129617D01*
X120332900Y-83226400D01*
X120448531Y-83519313D01*
X120742992Y-84138800D01*
X121084329Y-84679698D01*
X121520344Y-85210999D01*
X121883106Y-85589819D01*
X122790142Y-86365665D01*
X123786736Y-86979501D01*
X124849138Y-87423797D01*
X125953602Y-87691020D01*
X127076379Y-87773642D01*
X128193721Y-87664131D01*
X128335314Y-87635819D01*
X129482097Y-87302752D01*
X130541004Y-86815528D01*
X131490455Y-86189546D01*
X132308867Y-85440208D01*
X132974659Y-84582914D01*
X133231344Y-84142074D01*
X133577225Y-83431998D01*
X133816065Y-82800678D01*
X133964944Y-82177698D01*
X134040944Y-81492644D01*
X134061200Y-80721200D01*
X134052415Y-80086401D01*
X134016765Y-79570423D01*
X133940304Y-79117662D01*
X133809088Y-78672510D01*
X133609172Y-78179364D01*
X133326612Y-77582618D01*
X133220462Y-77368706D01*
X132633351Y-76413703D01*
X131895009Y-75590890D01*
X131012423Y-74904953D01*
X129992581Y-74360579D01*
X128842469Y-73962455D01*
X127827549Y-73751526D01*
X126877261Y-73685435D01*
X125912849Y-73781793D01*
X124910389Y-74045710D01*
X123845960Y-74482295D01*
X123425683Y-74691707D01*
X122502370Y-75282223D01*
X121706328Y-76014510D01*
X121045120Y-76866142D01*
X120526308Y-77814695D01*
X120157455Y-78837745D01*
X119946126Y-79912865D01*
X119899881Y-81017631D01*
X119638819Y-81017631D01*
X119636396Y-80979123D01*
X119659827Y-80127919D01*
X119756801Y-79317694D01*
X119873785Y-78794367D01*
X120104821Y-78083052D01*
X120378793Y-77473914D01*
X120728898Y-76912837D01*
X121188333Y-76345702D01*
X121714482Y-75793600D01*
X122592728Y-74998092D01*
X123459050Y-74386292D01*
X124345013Y-73943418D01*
X125282182Y-73654687D01*
X126302124Y-73505316D01*
X126644400Y-73484815D01*
X127581552Y-73485475D01*
X127581552Y-73485475D01*
G37*
X127581552Y-73485475D02*
X128403176Y-73581780D01*
X129179873Y-73787857D01*
X129982246Y-74117833D01*
X130106436Y-74177547D01*
X130935276Y-74623138D01*
X131614153Y-75087395D01*
X132195040Y-75611626D01*
X132729909Y-76237137D01*
X132778965Y-76301668D01*
X133346138Y-77108687D01*
X133765804Y-77845388D01*
X134055409Y-78560110D01*
X134232401Y-79301196D01*
X134314226Y-80116987D01*
X134324954Y-80585237D01*
X134296422Y-81536583D01*
X134195737Y-82347811D01*
X134007280Y-83073980D01*
X133715436Y-83770151D01*
X133304585Y-84491380D01*
X133149012Y-84731071D01*
X132757303Y-85250640D01*
X132269862Y-85793275D01*
X131739409Y-86307221D01*
X131218659Y-86740722D01*
X130841337Y-86996663D01*
X130530528Y-87154144D01*
X130099626Y-87340745D01*
X129622573Y-87525239D01*
X129422346Y-87595915D01*
X128991410Y-87735803D01*
X128626713Y-87830835D01*
X128264270Y-87890988D01*
X127840091Y-87926242D01*
X127290191Y-87946575D01*
X127152400Y-87949890D01*
X126362920Y-87951697D01*
X125747047Y-87915732D01*
X125278429Y-87840367D01*
X125244329Y-87832038D01*
X124127472Y-87449335D01*
X123086620Y-86893084D01*
X122142479Y-86183626D01*
X121315758Y-85341299D01*
X120627164Y-84386443D01*
X120097404Y-83339398D01*
X119815004Y-82499200D01*
X119687718Y-81794989D01*
X119638819Y-81017631D01*
X119899881Y-81017631D01*
X120026285Y-82129617D01*
X120332900Y-83226400D01*
X120448531Y-83519313D01*
X120742992Y-84138800D01*
X121084329Y-84679698D01*
X121520344Y-85210999D01*
X121883106Y-85589819D01*
X122790142Y-86365665D01*
X123786736Y-86979501D01*
X124849138Y-87423797D01*
X125953602Y-87691020D01*
X127076379Y-87773642D01*
X128193721Y-87664131D01*
X128335314Y-87635819D01*
X129482097Y-87302752D01*
X130541004Y-86815528D01*
X131490455Y-86189546D01*
X132308867Y-85440208D01*
X132974659Y-84582914D01*
X133231344Y-84142074D01*
X133577225Y-83431998D01*
X133816065Y-82800678D01*
X133964944Y-82177698D01*
X134040944Y-81492644D01*
X134061200Y-80721200D01*
X134052415Y-80086401D01*
X134016765Y-79570423D01*
X133940304Y-79117662D01*
X133809088Y-78672510D01*
X133609172Y-78179364D01*
X133326612Y-77582618D01*
X133220462Y-77368706D01*
X132633351Y-76413703D01*
X131895009Y-75590890D01*
X131012423Y-74904953D01*
X129992581Y-74360579D01*
X128842469Y-73962455D01*
X127827549Y-73751526D01*
X126877261Y-73685435D01*
X125912849Y-73781793D01*
X124910389Y-74045710D01*
X123845960Y-74482295D01*
X123425683Y-74691707D01*
X122502370Y-75282223D01*
X121706328Y-76014510D01*
X121045120Y-76866142D01*
X120526308Y-77814695D01*
X120157455Y-78837745D01*
X119946126Y-79912865D01*
X119899881Y-81017631D01*
X119638819Y-81017631D01*
X119636396Y-80979123D01*
X119659827Y-80127919D01*
X119756801Y-79317694D01*
X119873785Y-78794367D01*
X120104821Y-78083052D01*
X120378793Y-77473914D01*
X120728898Y-76912837D01*
X121188333Y-76345702D01*
X121714482Y-75793600D01*
X122592728Y-74998092D01*
X123459050Y-74386292D01*
X124345013Y-73943418D01*
X125282182Y-73654687D01*
X126302124Y-73505316D01*
X126644400Y-73484815D01*
X127581552Y-73485475D01*
G36*
X127567572Y-74365716D02*
X128119447Y-74420400D01*
X128630291Y-74530193D01*
X129180440Y-74710357D01*
X129559207Y-74857131D01*
X130238815Y-75130256D01*
X130004957Y-75436860D01*
X129743901Y-75791168D01*
X129510677Y-76129042D01*
X129333853Y-76406970D01*
X129241998Y-76581437D01*
X129235200Y-76609270D01*
X129323875Y-76676061D01*
X129542131Y-76742250D01*
X129590800Y-76752096D01*
X129825198Y-76817677D01*
X129943089Y-76892969D01*
X129946400Y-76905384D01*
X130034983Y-76960223D01*
X130250835Y-76977886D01*
X130276600Y-76976980D01*
X130496538Y-76984368D01*
X130596233Y-77072585D01*
X130634922Y-77299910D01*
X130637690Y-77332222D01*
X130713019Y-77636213D01*
X130854890Y-77870505D01*
X130866290Y-77881368D01*
X130996021Y-78065390D01*
X131055269Y-78349446D01*
X131064000Y-78598457D01*
X131093806Y-78950243D01*
X131187809Y-79394001D01*
X131352881Y-79953675D01*
X131595894Y-80653212D01*
X131838974Y-81298399D01*
X131943345Y-81585459D01*
X131970826Y-81755334D01*
X131920726Y-81879214D01*
X131832335Y-81984199D01*
X131655588Y-82138258D01*
X131530853Y-82191168D01*
X131509359Y-82140403D01*
X131597400Y-82052968D01*
X131718232Y-81926677D01*
X131761083Y-81762201D01*
X131721787Y-81520325D01*
X131596179Y-81161835D01*
X131470400Y-80857392D01*
X131322648Y-80485473D01*
X131214352Y-80165771D01*
X131166330Y-79960590D01*
X131165600Y-79945298D01*
X131118480Y-79653776D01*
X131000475Y-79362958D01*
X130846612Y-79138748D01*
X130691919Y-79047054D01*
X130688184Y-79047031D01*
X130412440Y-79108059D01*
X130034488Y-79267325D01*
X129611186Y-79496624D01*
X129199395Y-79767753D01*
X129128329Y-79820768D01*
X128862119Y-80034063D01*
X128725646Y-80194160D01*
X128683306Y-80365982D01*
X128698430Y-80604660D01*
X128692721Y-80960613D01*
X128584855Y-81349986D01*
X128473873Y-81610744D01*
X128251571Y-82029426D01*
X128042651Y-82266863D01*
X127820148Y-82340967D01*
X127557096Y-82269646D01*
X127513963Y-82248283D01*
X127262623Y-82139740D01*
X127071885Y-82092846D01*
X127068237Y-82092800D01*
X126906905Y-82016368D01*
X126763721Y-81864200D01*
X126648060Y-81698392D01*
X127000000Y-81698392D01*
X127062598Y-81753476D01*
X127101600Y-81737200D01*
X127199406Y-81602609D01*
X127203200Y-81572807D01*
X127153365Y-81528954D01*
X127406400Y-81528954D01*
X127477034Y-81789827D01*
X127625059Y-82006659D01*
X127784799Y-82150600D01*
X127881665Y-82153515D01*
X127980659Y-82038040D01*
X128091401Y-81827722D01*
X128117600Y-81708406D01*
X128176673Y-81533202D01*
X128318926Y-81310111D01*
X128320800Y-81307723D01*
X128480560Y-81027550D01*
X128518409Y-80779280D01*
X128429714Y-80624120D01*
X128328029Y-80655287D01*
X128276145Y-80752636D01*
X128187612Y-80910782D01*
X128032257Y-81102626D01*
X127855085Y-81283489D01*
X127701101Y-81408697D01*
X127615312Y-81433570D01*
X127609600Y-81414310D01*
X127667630Y-81265916D01*
X127807748Y-81055530D01*
X127812800Y-81049076D01*
X127972594Y-80804228D01*
X128005463Y-80652408D01*
X127908403Y-80620047D01*
X127859842Y-80635100D01*
X127679582Y-80790434D01*
X127519362Y-81066953D01*
X127420233Y-81383735D01*
X127406400Y-81528954D01*
X127153365Y-81528954D01*
X127140601Y-81517723D01*
X127101600Y-81534000D01*
X127003793Y-81668590D01*
X127000000Y-81698392D01*
X126648060Y-81698392D01*
X126604258Y-81635600D01*
X126588428Y-81940400D01*
X126575118Y-82123745D01*
X126551287Y-82137602D01*
X126499910Y-81970470D01*
X126470603Y-81860802D01*
X126391103Y-81621033D01*
X126310922Y-81550425D01*
X126227103Y-81593843D01*
X126097340Y-81819072D01*
X126136362Y-82112646D01*
X126337818Y-82439869D01*
X126393388Y-82502399D01*
X126567828Y-82710527D01*
X126651545Y-82854175D01*
X126649929Y-82883137D01*
X126558856Y-82850242D01*
X126408923Y-82700244D01*
X126401686Y-82691392D01*
X126243263Y-82544878D01*
X126129833Y-82523340D01*
X126126549Y-82526262D01*
X126119476Y-82655428D01*
X126227871Y-82838799D01*
X126399234Y-83016224D01*
X126581065Y-83127554D01*
X126661715Y-83139422D01*
X126856990Y-83209769D01*
X127053483Y-83423253D01*
X127329224Y-83744083D01*
X127724952Y-84087427D01*
X128171642Y-84401208D01*
X128600266Y-84633347D01*
X128721227Y-84681492D01*
X129225943Y-84804747D01*
X129742539Y-84838680D01*
X130208567Y-84785442D01*
X130561579Y-84647186D01*
X130604334Y-84616587D01*
X130766670Y-84468108D01*
X130841953Y-84309244D01*
X130852824Y-84066253D01*
X130838277Y-83854587D01*
X130824534Y-83521367D01*
X130857960Y-83352397D01*
X130928641Y-83312000D01*
X131048447Y-83230310D01*
X131064000Y-83159600D01*
X131010293Y-83024376D01*
X130964578Y-83007200D01*
X130927537Y-82932578D01*
X130975313Y-82751357D01*
X131082283Y-82527507D01*
X131222823Y-82324996D01*
X131249462Y-82296000D01*
X131350092Y-82201270D01*
X131332500Y-82257165D01*
X131312966Y-82292200D01*
X131259647Y-82476605D01*
X131219343Y-82777780D01*
X131208057Y-82952600D01*
X131168336Y-83469649D01*
X131097178Y-83955993D01*
X131004863Y-84359103D01*
X130901674Y-84626448D01*
X130871867Y-84670264D01*
X130713996Y-84766882D01*
X130416700Y-84878086D01*
X130040413Y-84981756D01*
X129988335Y-84993640D01*
X129596157Y-85088671D01*
X129359443Y-85173555D01*
X129233231Y-85271616D01*
X129172561Y-85406180D01*
X129169372Y-85418502D01*
X129156237Y-85684679D01*
X129200703Y-86063038D01*
X129290084Y-86475102D01*
X129391341Y-86791800D01*
X129406342Y-86872852D01*
X129352801Y-86923631D01*
X129196829Y-86950004D01*
X128904540Y-86957838D01*
X128458670Y-86953273D01*
X127929995Y-86940505D01*
X127290107Y-86918864D01*
X126630624Y-86891702D01*
X126187200Y-86870194D01*
X125568046Y-86829259D01*
X125109279Y-86773832D01*
X124768103Y-86692460D01*
X124501729Y-86573688D01*
X124267363Y-86406060D01*
X124185769Y-86334449D01*
X123979155Y-86206020D01*
X123811857Y-86188837D01*
X123618703Y-86163700D01*
X123521711Y-86107720D01*
X124367251Y-86107720D01*
X124398138Y-86318220D01*
X124502404Y-86449475D01*
X124558411Y-86461600D01*
X124627021Y-86372146D01*
X124662041Y-86151545D01*
X124662291Y-86139866D01*
X124968000Y-86139866D01*
X124984231Y-86408355D01*
X125024389Y-86580222D01*
X125035733Y-86597066D01*
X125167765Y-86662989D01*
X125246048Y-86539093D01*
X125272771Y-86221782D01*
X125272774Y-86219993D01*
X125483143Y-86219993D01*
X125604600Y-86481457D01*
X125679200Y-86563200D01*
X125951001Y-86736860D01*
X126216378Y-86738990D01*
X126386265Y-86618981D01*
X126396608Y-86594159D01*
X126695200Y-86594159D01*
X126789930Y-86622639D01*
X127046686Y-86645625D01*
X127424313Y-86660496D01*
X127804773Y-86664800D01*
X128914346Y-86664800D01*
X128947773Y-85883213D01*
X128961393Y-85487564D01*
X128951145Y-85243878D01*
X128903056Y-85101164D01*
X128803153Y-85008426D01*
X128690269Y-84943413D01*
X128474470Y-84811501D01*
X128153189Y-84598009D01*
X127784539Y-84341890D01*
X127658426Y-84251800D01*
X127324928Y-84015613D01*
X127056759Y-83833009D01*
X126893956Y-83730915D01*
X126865347Y-83718400D01*
X126855185Y-83804178D01*
X126896144Y-84016300D01*
X126911631Y-84074965D01*
X126971874Y-84353805D01*
X127037795Y-84752164D01*
X127095802Y-85187275D01*
X127099328Y-85217965D01*
X127140634Y-85618387D01*
X127147275Y-85873795D01*
X127110746Y-86040684D01*
X127022545Y-86175546D01*
X126941886Y-86263959D01*
X126777075Y-86455562D01*
X126696731Y-86584681D01*
X126695200Y-86594159D01*
X126396608Y-86594159D01*
X126438846Y-86492797D01*
X126377972Y-86327130D01*
X126220906Y-86110984D01*
X125973064Y-85863359D01*
X126434179Y-85863359D01*
X126438401Y-85996813D01*
X126570043Y-86089051D01*
X126753569Y-86088865D01*
X126762186Y-86085729D01*
X126886723Y-85953581D01*
X126898400Y-85891929D01*
X126820016Y-85782410D01*
X126648613Y-85754303D01*
X126479814Y-85813495D01*
X126434179Y-85863359D01*
X125973064Y-85863359D01*
X125960929Y-85851235D01*
X125739169Y-85757115D01*
X125578139Y-85835210D01*
X125537670Y-85911109D01*
X125483143Y-86219993D01*
X125272774Y-86219993D01*
X125272800Y-86207600D01*
X125252855Y-85906253D01*
X125185038Y-85768990D01*
X125120400Y-85750400D01*
X125012336Y-85820484D01*
X124969759Y-86050293D01*
X124968000Y-86139866D01*
X124662291Y-86139866D01*
X124663200Y-86097533D01*
X124634487Y-85840557D01*
X124546805Y-85772849D01*
X124536200Y-85775752D01*
X124412390Y-85899667D01*
X124367251Y-86107720D01*
X123521711Y-86107720D01*
X123333553Y-85999123D01*
X122983325Y-85720440D01*
X122594940Y-85352981D01*
X122195318Y-84922078D01*
X121811377Y-84453063D01*
X121533661Y-84063533D01*
X121840928Y-84063533D01*
X121945868Y-84353268D01*
X122196698Y-84700459D01*
X122234260Y-84745699D01*
X122532850Y-85070684D01*
X122742194Y-85219306D01*
X122871557Y-85192925D01*
X122930207Y-84992902D01*
X122936000Y-84848700D01*
X122933690Y-84796887D01*
X123174216Y-84796887D01*
X123237565Y-85121062D01*
X123238691Y-85124210D01*
X123386135Y-85479823D01*
X123531403Y-85740250D01*
X123653000Y-85874363D01*
X123729434Y-85851036D01*
X123733262Y-85840473D01*
X123820778Y-85660625D01*
X123966486Y-85429915D01*
X124141419Y-85040031D01*
X124117817Y-84669051D01*
X123897856Y-84336333D01*
X123837609Y-84282028D01*
X123612405Y-84122243D01*
X123439127Y-84050556D01*
X123407329Y-84052356D01*
X123269892Y-84193930D01*
X123188589Y-84464975D01*
X123174216Y-84796887D01*
X122933690Y-84796887D01*
X122919253Y-84473130D01*
X122876151Y-84161827D01*
X122817395Y-83941379D01*
X122753690Y-83838376D01*
X122695738Y-83879408D01*
X122654244Y-84091065D01*
X122650147Y-84138581D01*
X122601728Y-84420369D01*
X122526974Y-84621181D01*
X122478130Y-84638303D01*
X122467113Y-84462387D01*
X122491813Y-84109699D01*
X122510594Y-83795938D01*
X123647200Y-83795938D01*
X123710626Y-83892410D01*
X123875293Y-84089958D01*
X124060688Y-84296658D01*
X124331889Y-84635025D01*
X124449006Y-84904300D01*
X124456322Y-85019220D01*
X124446603Y-85250161D01*
X124449234Y-85369400D01*
X124549280Y-85410901D01*
X124802534Y-85436955D01*
X125159665Y-85448532D01*
X125571346Y-85446601D01*
X125988246Y-85432130D01*
X126361037Y-85406088D01*
X126640391Y-85369446D01*
X126776479Y-85323680D01*
X126863884Y-85139691D01*
X126896440Y-84891880D01*
X126866440Y-84558753D01*
X126792100Y-84195320D01*
X126691257Y-83862471D01*
X126581751Y-83621097D01*
X126498748Y-83534382D01*
X126436035Y-83527413D01*
X126406114Y-83581065D01*
X126410565Y-83728600D01*
X126450966Y-84003276D01*
X126528899Y-84438353D01*
X126546094Y-84531200D01*
X126549603Y-84779871D01*
X126504190Y-84923580D01*
X126339071Y-85034195D01*
X126025805Y-85131724D01*
X125619441Y-85203582D01*
X125175030Y-85237183D01*
X125128866Y-85237975D01*
X124869324Y-85227260D01*
X124798935Y-85191269D01*
X124906098Y-85136169D01*
X125179215Y-85068131D01*
X125581631Y-84997161D01*
X125933246Y-84929920D01*
X126190276Y-84855970D01*
X126301555Y-84790351D01*
X126302682Y-84785200D01*
X126297909Y-84478551D01*
X126263422Y-84109342D01*
X126208553Y-83734800D01*
X126142634Y-83412152D01*
X126074997Y-83198625D01*
X126035348Y-83145751D01*
X125870901Y-83156780D01*
X125605511Y-83242965D01*
X125460450Y-83306854D01*
X125250143Y-83399115D01*
X125177823Y-83411214D01*
X125222000Y-83369169D01*
X125544703Y-83124839D01*
X125709872Y-82982409D01*
X125728834Y-82930750D01*
X125653800Y-82944917D01*
X125502022Y-82938587D01*
X125490098Y-82837404D01*
X125577600Y-82753200D01*
X125642200Y-82620158D01*
X125677164Y-82366926D01*
X125679200Y-82284958D01*
X125741926Y-81836630D01*
X125911615Y-81461973D01*
X126013891Y-81360833D01*
X126487583Y-81360833D01*
X126578394Y-81380843D01*
X126636312Y-81381600D01*
X126905445Y-81280327D01*
X127114490Y-81051400D01*
X127835167Y-80135373D01*
X127955702Y-80018745D01*
X128219200Y-80018745D01*
X128278486Y-80107334D01*
X128440120Y-80049338D01*
X128679769Y-79857048D01*
X128820733Y-79714929D01*
X128966368Y-79525577D01*
X129007987Y-79398226D01*
X129001299Y-79386632D01*
X128885668Y-79397034D01*
X128691743Y-79511337D01*
X128477486Y-79682694D01*
X128300859Y-79864260D01*
X128219823Y-80009187D01*
X128219200Y-80018745D01*
X127955702Y-80018745D01*
X128590596Y-79404431D01*
X128959620Y-79149974D01*
X129438400Y-79149974D01*
X129508136Y-79240101D01*
X129665391Y-79223104D01*
X129832230Y-79109827D01*
X129846837Y-79093144D01*
X129927832Y-78942349D01*
X129918779Y-78881713D01*
X129795337Y-78877977D01*
X129615166Y-78961380D01*
X129470230Y-79080566D01*
X129438400Y-79149974D01*
X128959620Y-79149974D01*
X129373624Y-78864502D01*
X129434398Y-78838411D01*
X130352800Y-78838411D01*
X130427273Y-78894313D01*
X130505200Y-78878341D01*
X130638881Y-78806227D01*
X130657600Y-78779929D01*
X130574635Y-78744413D01*
X130505200Y-78740000D01*
X130369968Y-78793170D01*
X130352800Y-78838411D01*
X129434398Y-78838411D01*
X130161864Y-78526103D01*
X130503639Y-78409253D01*
X130752669Y-78299253D01*
X130859785Y-78218171D01*
X130860800Y-78212388D01*
X130806194Y-78070026D01*
X130671083Y-77845975D01*
X130632817Y-77790796D01*
X130492114Y-77552817D01*
X130432389Y-77369046D01*
X130434071Y-77343312D01*
X130408157Y-77240698D01*
X130265509Y-77267628D01*
X130028373Y-77405412D01*
X129718997Y-77635356D01*
X129359629Y-77938770D01*
X128972515Y-78296959D01*
X128579904Y-78691234D01*
X128204042Y-79102901D01*
X127896511Y-79475344D01*
X127564719Y-79899798D01*
X127222173Y-80335340D01*
X126924237Y-80711669D01*
X126821030Y-80841020D01*
X126597079Y-81125519D01*
X126489871Y-81287257D01*
X126487583Y-81360833D01*
X126013891Y-81360833D01*
X126160532Y-81215822D01*
X126239132Y-81177969D01*
X126396241Y-81061082D01*
X126635274Y-80815171D01*
X126921961Y-80477913D01*
X127182421Y-80140934D01*
X127567756Y-79642930D01*
X128018227Y-79095616D01*
X128461682Y-78585493D01*
X128659355Y-78370219D01*
X129026088Y-77976501D01*
X129265626Y-77705910D01*
X129393712Y-77537145D01*
X129426089Y-77448908D01*
X129378501Y-77419899D01*
X129362200Y-77419324D01*
X129256129Y-77478979D01*
X129033940Y-77636854D01*
X128735950Y-77861479D01*
X128402474Y-78121385D01*
X128073827Y-78385102D01*
X127790324Y-78621162D01*
X127592282Y-78798096D01*
X127578122Y-78811927D01*
X127192572Y-79207728D01*
X126798511Y-79636487D01*
X126421000Y-80068076D01*
X126085104Y-80472365D01*
X125815885Y-80819223D01*
X125638406Y-81078522D01*
X125577600Y-81216866D01*
X125518640Y-81384183D01*
X125374462Y-81611774D01*
X125352189Y-81640760D01*
X125193209Y-81877453D01*
X125106461Y-82072073D01*
X125103775Y-82086261D01*
X125017645Y-82250387D01*
X124830842Y-82465699D01*
X124760764Y-82531764D01*
X124567723Y-82718265D01*
X124514359Y-82830379D01*
X124581487Y-82920419D01*
X124610235Y-82942253D01*
X124705035Y-83036963D01*
X124682392Y-83143316D01*
X124526149Y-83319611D01*
X124497763Y-83348127D01*
X124236215Y-83551116D01*
X123964985Y-83678837D01*
X123931506Y-83686938D01*
X123727254Y-83743750D01*
X123647200Y-83795938D01*
X122510594Y-83795938D01*
X122516616Y-83695344D01*
X122491896Y-83421314D01*
X122411592Y-83229436D01*
X122398042Y-83209325D01*
X122297577Y-83080257D01*
X122222301Y-83072157D01*
X122128707Y-83207318D01*
X122029467Y-83398178D01*
X121872065Y-83766691D01*
X121840928Y-84063533D01*
X121533661Y-84063533D01*
X121493625Y-84007378D01*
X120980400Y-83048570D01*
X120650457Y-82026169D01*
X120615560Y-81769424D01*
X120843694Y-81769424D01*
X120905610Y-81997557D01*
X120960989Y-82219800D01*
X121052736Y-82439681D01*
X121195386Y-82479093D01*
X121412583Y-82340691D01*
X121481651Y-82278289D01*
X121650009Y-82148755D01*
X121714538Y-82156370D01*
X121682308Y-82268010D01*
X121560387Y-82450555D01*
X121408800Y-82619629D01*
X121100801Y-82927629D01*
X121371642Y-83389784D01*
X121642483Y-83851938D01*
X121828337Y-83469842D01*
X121970972Y-83197155D01*
X122094827Y-82993616D01*
X122118744Y-82961768D01*
X122164904Y-82781340D01*
X122102531Y-82462517D01*
X122079556Y-82388094D01*
X121972745Y-82012528D01*
X121886907Y-81638688D01*
X121872503Y-81559400D01*
X121824174Y-81315344D01*
X121783232Y-81185094D01*
X121775911Y-81178400D01*
X121672201Y-81215905D01*
X121443199Y-81311870D01*
X121267834Y-81388424D01*
X120972076Y-81542130D01*
X120846030Y-81675088D01*
X120843694Y-81769424D01*
X120615560Y-81769424D01*
X120506548Y-80967400D01*
X120513336Y-80805866D01*
X120700800Y-80805866D01*
X120720589Y-81168842D01*
X120797961Y-81346254D01*
X120959918Y-81353422D01*
X121233463Y-81205667D01*
X121312615Y-81153000D01*
X121478047Y-81023129D01*
X121599857Y-80866157D01*
X121609656Y-80843741D01*
X122081318Y-80843741D01*
X122164271Y-81645206D01*
X122359575Y-82424960D01*
X122653064Y-83117366D01*
X122846575Y-83430699D01*
X123025925Y-83658176D01*
X123113752Y-83713844D01*
X123110754Y-83606960D01*
X123017632Y-83346779D01*
X122835085Y-82942558D01*
X122804962Y-82880200D01*
X122724731Y-82705340D01*
X123110472Y-82705340D01*
X123112118Y-82986823D01*
X123167124Y-83246831D01*
X123274706Y-83555441D01*
X123300504Y-83500967D01*
X123604437Y-83500967D01*
X123681247Y-83610943D01*
X123718980Y-83616800D01*
X123823819Y-83574780D01*
X124046118Y-83468307D01*
X124177284Y-83402333D01*
X124422323Y-83264842D01*
X124503402Y-83174703D01*
X124444729Y-83102565D01*
X124431077Y-83094633D01*
X124170013Y-83044937D01*
X123881481Y-83115462D01*
X123668252Y-83277897D01*
X123648094Y-83310328D01*
X123604437Y-83500967D01*
X123300504Y-83500967D01*
X123427503Y-83232807D01*
X123522303Y-82956095D01*
X123515883Y-82905600D01*
X123698000Y-82905600D01*
X123721032Y-82992579D01*
X123793603Y-83007200D01*
X123932614Y-82954154D01*
X123952000Y-82905600D01*
X123879078Y-82806908D01*
X123856396Y-82804000D01*
X123718795Y-82877852D01*
X123698000Y-82905600D01*
X123515883Y-82905600D01*
X123492917Y-82725001D01*
X123481116Y-82696443D01*
X123799600Y-82696443D01*
X124065298Y-82699421D01*
X124333279Y-82638894D01*
X124599666Y-82491064D01*
X124778211Y-82299349D01*
X124790377Y-82156426D01*
X124635509Y-82093498D01*
X124608006Y-82092800D01*
X124448339Y-82157040D01*
X124220018Y-82318305D01*
X124131402Y-82394621D01*
X123799600Y-82696443D01*
X123481116Y-82696443D01*
X123463528Y-82653886D01*
X123348554Y-82466242D01*
X123254822Y-82397600D01*
X123160408Y-82486000D01*
X123110472Y-82705340D01*
X122724731Y-82705340D01*
X122594410Y-82421312D01*
X122464138Y-82050049D01*
X122390616Y-81679353D01*
X122350313Y-81222166D01*
X122348513Y-81191396D01*
X122348792Y-81178130D01*
X122578686Y-81178130D01*
X122630618Y-81756989D01*
X122751086Y-82212010D01*
X122762668Y-82238843D01*
X122941544Y-82638886D01*
X123254371Y-82103559D01*
X123581619Y-82103559D01*
X123592701Y-82165034D01*
X123686454Y-82361252D01*
X123801988Y-82372794D01*
X123890329Y-82236890D01*
X123943969Y-81982508D01*
X123944122Y-81707934D01*
X124465725Y-81707934D01*
X124527733Y-81821866D01*
X124615854Y-81878994D01*
X124737249Y-81858125D01*
X124950581Y-81743998D01*
X125044200Y-81687513D01*
X125308500Y-81491544D01*
X125391390Y-81355426D01*
X125310244Y-81296890D01*
X125082439Y-81333669D01*
X124805554Y-81443976D01*
X124548273Y-81588618D01*
X124465725Y-81707934D01*
X123944122Y-81707934D01*
X123944124Y-81704381D01*
X123895169Y-81490227D01*
X123850209Y-81432282D01*
X123748074Y-81461807D01*
X123653744Y-81627694D01*
X123590498Y-81863694D01*
X123581619Y-82103559D01*
X123254371Y-82103559D01*
X123352615Y-81935439D01*
X123553551Y-81599684D01*
X123719878Y-81336544D01*
X123822223Y-81192076D01*
X123834511Y-81179795D01*
X123853635Y-81153000D01*
X124156755Y-81153000D01*
X124198360Y-81407479D01*
X124299041Y-81488869D01*
X124417764Y-81400908D01*
X124513492Y-81147335D01*
X124518927Y-81120010D01*
X124525891Y-80989013D01*
X124984860Y-80989013D01*
X125115256Y-80999751D01*
X125336007Y-80925763D01*
X125579126Y-80827876D01*
X125727621Y-80775017D01*
X125742407Y-80772000D01*
X125776557Y-80689025D01*
X125780800Y-80619600D01*
X125715006Y-80486982D01*
X125536644Y-80497549D01*
X125274235Y-80648255D01*
X125235701Y-80677774D01*
X125023024Y-80876781D01*
X124984860Y-80989013D01*
X124525891Y-80989013D01*
X124535698Y-80804546D01*
X124468500Y-80638260D01*
X124334814Y-80594093D01*
X124227359Y-80721758D01*
X124165052Y-80990022D01*
X124156755Y-81153000D01*
X123853635Y-81153000D01*
X123921468Y-81057960D01*
X124034038Y-80835405D01*
X124038216Y-80825974D01*
X124199396Y-80549277D01*
X124268075Y-80460520D01*
X124764800Y-80460520D01*
X124780507Y-80700826D01*
X124835956Y-80749158D01*
X124943639Y-80606099D01*
X125016190Y-80472245D01*
X125129445Y-80183609D01*
X125133135Y-80159527D01*
X125626624Y-80159527D01*
X125769241Y-80207544D01*
X126038770Y-80110962D01*
X126263400Y-79980510D01*
X126445841Y-79824244D01*
X126482974Y-79702693D01*
X126365000Y-79654779D01*
X126183497Y-79704877D01*
X125958865Y-79825533D01*
X125754311Y-79973541D01*
X125633039Y-80105693D01*
X125626624Y-80159527D01*
X125133135Y-80159527D01*
X125167823Y-79933201D01*
X125126714Y-79778964D01*
X125108522Y-79771161D01*
X125374400Y-79771161D01*
X125424537Y-79854608D01*
X125551471Y-79780661D01*
X125639368Y-79679800D01*
X125736628Y-79478664D01*
X125742525Y-79444690D01*
X126238000Y-79444690D01*
X126542800Y-79356926D01*
X126822471Y-79269669D01*
X127025400Y-79196911D01*
X127174599Y-79094748D01*
X127203200Y-79033929D01*
X127128954Y-78946563D01*
X126944721Y-78960293D01*
X126708257Y-79061529D01*
X126523065Y-79193945D01*
X126238000Y-79444690D01*
X125742525Y-79444690D01*
X125775422Y-79255175D01*
X125764392Y-79183396D01*
X126093685Y-79183396D01*
X126170518Y-79206320D01*
X126187922Y-79196753D01*
X126302102Y-79068704D01*
X126439770Y-78844185D01*
X126448058Y-78828336D01*
X126517340Y-78646428D01*
X127055761Y-78646428D01*
X127197219Y-78698641D01*
X127449147Y-78637569D01*
X127762452Y-78475745D01*
X127787400Y-78459671D01*
X127966618Y-78303696D01*
X128011562Y-78179584D01*
X127910352Y-78130400D01*
X127727263Y-78176107D01*
X127488800Y-78288345D01*
X127256781Y-78429785D01*
X127093023Y-78563100D01*
X127055761Y-78646428D01*
X126517340Y-78646428D01*
X126547121Y-78568235D01*
X126569846Y-78358497D01*
X126568612Y-78352179D01*
X126528020Y-78297961D01*
X126898400Y-78297961D01*
X126953893Y-78335447D01*
X127081051Y-78248951D01*
X127163368Y-78155800D01*
X127268750Y-77948539D01*
X127278834Y-77881091D01*
X128069099Y-77881091D01*
X128138219Y-77923819D01*
X128359303Y-77885314D01*
X128570019Y-77809291D01*
X128776253Y-77679981D01*
X128815018Y-77574236D01*
X128679342Y-77522153D01*
X128636855Y-77520800D01*
X128461682Y-77562506D01*
X128277012Y-77662040D01*
X128130324Y-77781027D01*
X128069099Y-77881091D01*
X127278834Y-77881091D01*
X127296180Y-77765076D01*
X127609600Y-77765076D01*
X127661304Y-77837962D01*
X127788262Y-77773003D01*
X127948241Y-77598147D01*
X128017113Y-77495400D01*
X128134062Y-77284585D01*
X128967543Y-77284585D01*
X129001819Y-77314219D01*
X129179952Y-77277128D01*
X129382819Y-77199691D01*
X129582301Y-77074116D01*
X129636437Y-76965770D01*
X129529921Y-76912193D01*
X129500455Y-76911200D01*
X129357527Y-76956446D01*
X129184922Y-77062972D01*
X129036855Y-77186958D01*
X128967543Y-77284585D01*
X128134062Y-77284585D01*
X128173874Y-77212820D01*
X128206010Y-77079406D01*
X128552586Y-77079406D01*
X128678578Y-77114400D01*
X128830808Y-77030963D01*
X128949082Y-76859970D01*
X129014565Y-76622265D01*
X128958310Y-76525999D01*
X128812338Y-76594234D01*
X128718454Y-76693855D01*
X128553095Y-76942016D01*
X128552586Y-77079406D01*
X128206010Y-77079406D01*
X128207607Y-77072779D01*
X128121100Y-77058253D01*
X128086823Y-77069975D01*
X127956734Y-77183544D01*
X127795197Y-77394946D01*
X127660284Y-77619596D01*
X127609600Y-77765076D01*
X127296180Y-77765076D01*
X127298720Y-77748090D01*
X127246203Y-77630287D01*
X127213139Y-77622400D01*
X127133707Y-77705372D01*
X127029385Y-77899792D01*
X126938258Y-78123910D01*
X126898412Y-78295980D01*
X126898400Y-78297961D01*
X126528020Y-78297961D01*
X126517952Y-78284515D01*
X126415445Y-78378222D01*
X126308855Y-78536800D01*
X126171572Y-78801058D01*
X126096943Y-79032449D01*
X126093685Y-79183396D01*
X125764392Y-79183396D01*
X125749633Y-79087362D01*
X125689139Y-79044800D01*
X125604820Y-79129592D01*
X125501350Y-79331092D01*
X125413098Y-79569979D01*
X125374434Y-79766936D01*
X125374400Y-79771161D01*
X125108522Y-79771161D01*
X125073174Y-79756000D01*
X124936899Y-79846794D01*
X124825607Y-80076008D01*
X124767640Y-80378890D01*
X124764800Y-80460520D01*
X124268075Y-80460520D01*
X124423678Y-80259431D01*
X124463190Y-80216374D01*
X125100638Y-79546794D01*
X125612204Y-79015486D01*
X126009421Y-78611032D01*
X126303824Y-78322014D01*
X126506945Y-78137013D01*
X126630319Y-78044613D01*
X126672933Y-78028800D01*
X126809431Y-77951608D01*
X126955946Y-77778761D01*
X127151375Y-77569721D01*
X127339289Y-77460481D01*
X127546096Y-77352502D01*
X127812369Y-77159479D01*
X127925412Y-77063381D01*
X128171327Y-76856705D01*
X128373268Y-76710787D01*
X128433412Y-76678197D01*
X128520283Y-76613791D01*
X128428641Y-76520518D01*
X128423274Y-76516781D01*
X128158419Y-76413976D01*
X127752248Y-76350289D01*
X127263555Y-76329541D01*
X126751135Y-76355552D01*
X126483244Y-76390718D01*
X125488149Y-76630787D01*
X124646620Y-77000414D01*
X123950506Y-77506128D01*
X123391651Y-78154456D01*
X122961901Y-78951927D01*
X122821519Y-79322367D01*
X122675395Y-79898434D01*
X122594031Y-80537817D01*
X122578686Y-81178130D01*
X122348792Y-81178130D01*
X122369740Y-80182990D01*
X122560432Y-79277886D01*
X122927240Y-78457802D01*
X123476815Y-77704460D01*
X123705826Y-77460941D01*
X124410351Y-76870947D01*
X125185236Y-76451974D01*
X126044054Y-76200640D01*
X127000379Y-76113563D01*
X128067782Y-76187359D01*
X128524000Y-76260271D01*
X128748433Y-76288263D01*
X128801359Y-76252803D01*
X128768995Y-76207893D01*
X128623601Y-76137281D01*
X128330996Y-76049995D01*
X127944672Y-75961123D01*
X127783485Y-75929902D01*
X127334148Y-75853570D01*
X127003720Y-75821291D01*
X126712699Y-75833267D01*
X126381581Y-75889704D01*
X126178959Y-75934022D01*
X125177921Y-76253235D01*
X124290993Y-76725478D01*
X123532264Y-77336321D01*
X122915826Y-78071331D01*
X122455769Y-78916079D01*
X122166183Y-79856131D01*
X122124877Y-80086200D01*
X122081318Y-80843741D01*
X121609656Y-80843741D01*
X121701183Y-80634385D01*
X121805160Y-80280116D01*
X121879651Y-79983976D01*
X122032433Y-79448033D01*
X122230511Y-78873481D01*
X122436331Y-78367305D01*
X122480088Y-78273320D01*
X122644829Y-77920052D01*
X122763393Y-77644864D01*
X122817213Y-77491748D01*
X122817077Y-77474906D01*
X122556577Y-77329608D01*
X122230453Y-77231962D01*
X122077585Y-77216000D01*
X121830105Y-77292233D01*
X121618972Y-77539021D01*
X121486138Y-77810446D01*
X121506330Y-77963991D01*
X121689067Y-78025639D01*
X121798996Y-78030355D01*
X122063991Y-78068549D01*
X122224800Y-78134340D01*
X122252480Y-78188051D01*
X122099967Y-78196056D01*
X121844069Y-78170530D01*
X121310939Y-78104293D01*
X121158269Y-78469683D01*
X121041480Y-78782896D01*
X121037563Y-78955670D01*
X121168347Y-79029230D01*
X121455659Y-79044797D01*
X121462800Y-79044800D01*
X121735463Y-79064979D01*
X121899021Y-79116036D01*
X121920000Y-79146400D01*
X121828748Y-79204940D01*
X121595964Y-79241659D01*
X121423849Y-79248000D01*
X121095995Y-79274841D01*
X120907967Y-79383042D01*
X120822847Y-79614122D01*
X120803787Y-79945336D01*
X120817405Y-80087743D01*
X120895379Y-80147978D01*
X121090100Y-80145186D01*
X121285000Y-80121190D01*
X121565566Y-80087042D01*
X121669102Y-80091127D01*
X121619681Y-80142550D01*
X121513600Y-80207654D01*
X121219683Y-80324168D01*
X120980200Y-80361999D01*
X120805757Y-80381134D01*
X120724749Y-80470083D01*
X120701723Y-80685169D01*
X120700800Y-80805866D01*
X120513336Y-80805866D01*
X120551427Y-79899491D01*
X120787847Y-78849668D01*
X120931921Y-78452604D01*
X121170106Y-77953616D01*
X121492269Y-77401357D01*
X121817068Y-76917343D01*
X122123200Y-76917343D01*
X122206934Y-76989451D01*
X122410247Y-77097037D01*
X122661304Y-77207380D01*
X122888270Y-77287761D01*
X122980251Y-77307726D01*
X123114086Y-77251317D01*
X123305308Y-77101498D01*
X123310451Y-77096689D01*
X123474508Y-76919679D01*
X123545522Y-76797695D01*
X123545600Y-76795552D01*
X123468865Y-76695064D01*
X123275223Y-76534906D01*
X123168191Y-76458869D01*
X122790783Y-76202414D01*
X122456991Y-76525937D01*
X122257325Y-76733036D01*
X122138058Y-76882952D01*
X122123200Y-76917343D01*
X121817068Y-76917343D01*
X121857367Y-76857291D01*
X122224358Y-76382883D01*
X122483387Y-76108665D01*
X122956249Y-76108665D01*
X123002965Y-76195448D01*
X123125800Y-76246547D01*
X123340503Y-76367770D01*
X123497147Y-76507393D01*
X123638745Y-76655616D01*
X123701437Y-76708000D01*
X123793254Y-76660387D01*
X124012585Y-76535401D01*
X124312465Y-76359817D01*
X124320690Y-76354950D01*
X124647461Y-76161585D01*
X124918982Y-76000982D01*
X125069600Y-75911969D01*
X125157121Y-75830711D01*
X125156291Y-75811310D01*
X129032000Y-75811310D01*
X129059736Y-75963094D01*
X129158695Y-75968350D01*
X129352502Y-75822228D01*
X129458240Y-75723791D01*
X129661918Y-75484987D01*
X129740076Y-75296097D01*
X129681740Y-75193119D01*
X129622748Y-75184000D01*
X129435738Y-75262864D01*
X129229351Y-75449920D01*
X129073564Y-75670857D01*
X129032000Y-75811310D01*
X125156291Y-75811310D01*
X125151584Y-75701391D01*
X125049698Y-75460322D01*
X125045843Y-75452219D01*
X124956998Y-75223383D01*
X124945661Y-75093530D01*
X124963067Y-75082400D01*
X125054810Y-75168283D01*
X125163036Y-75380557D01*
X125185033Y-75438000D01*
X125303731Y-75688015D01*
X125456080Y-75780393D01*
X125701586Y-75738355D01*
X125833776Y-75691172D01*
X126000599Y-75608613D01*
X126064493Y-75487230D01*
X126052075Y-75257363D01*
X126037591Y-75157772D01*
X126009073Y-74903915D01*
X126031539Y-74831517D01*
X126078045Y-74879200D01*
X126159298Y-75093840D01*
X126185644Y-75311000D01*
X126221276Y-75517627D01*
X126360214Y-75587265D01*
X126432890Y-75590400D01*
X126755984Y-75559053D01*
X126929203Y-75436146D01*
X126989697Y-75197600D01*
X127224426Y-75197600D01*
X127295003Y-75453248D01*
X127503849Y-75580495D01*
X127609470Y-75590400D01*
X127818795Y-75557439D01*
X127826666Y-75550777D01*
X128229293Y-75550777D01*
X128253060Y-75633692D01*
X128371220Y-75734069D01*
X128566041Y-75670005D01*
X128812691Y-75453100D01*
X128925434Y-75319636D01*
X129058436Y-75080180D01*
X129011801Y-74934576D01*
X128788749Y-74888063D01*
X128665247Y-74896657D01*
X128411767Y-75015544D01*
X128252926Y-75257764D01*
X128229293Y-75550777D01*
X127826666Y-75550777D01*
X127974352Y-75425776D01*
X128122622Y-75174154D01*
X128238961Y-74917305D01*
X128290407Y-74743494D01*
X128285478Y-74708411D01*
X128162240Y-74664956D01*
X127915071Y-74616912D01*
X127823637Y-74603608D01*
X127554553Y-74581320D01*
X127411321Y-74631922D01*
X127320595Y-74788175D01*
X127301612Y-74836784D01*
X127224426Y-75197600D01*
X126989697Y-75197600D01*
X126994572Y-75178378D01*
X127000000Y-75006065D01*
X127000000Y-74545070D01*
X126229371Y-74603352D01*
X125689119Y-74672247D01*
X125203594Y-74807702D01*
X124698342Y-75022747D01*
X124316061Y-75211419D01*
X124099679Y-75352164D01*
X124029302Y-75479336D01*
X124085034Y-75627287D01*
X124237200Y-75819000D01*
X124329221Y-75959385D01*
X124293178Y-75993694D01*
X124167810Y-75931900D01*
X123991856Y-75783974D01*
X123955443Y-75746465D01*
X123720266Y-75496131D01*
X123330302Y-75771865D01*
X123061311Y-75976872D01*
X122956249Y-76108665D01*
X122483387Y-76108665D01*
X122529971Y-76059350D01*
X123005643Y-75688969D01*
X123607893Y-75307320D01*
X124266642Y-74954274D01*
X124911809Y-74669703D01*
X125083041Y-74606832D01*
X125487483Y-74480420D01*
X125863399Y-74402650D01*
X126285214Y-74363006D01*
X126827355Y-74350970D01*
X126894327Y-74350880D01*
X127567572Y-74365716D01*
X127567572Y-74365716D01*
G37*
X127567572Y-74365716D02*
X128119447Y-74420400D01*
X128630291Y-74530193D01*
X129180440Y-74710357D01*
X129559207Y-74857131D01*
X130238815Y-75130256D01*
X130004957Y-75436860D01*
X129743901Y-75791168D01*
X129510677Y-76129042D01*
X129333853Y-76406970D01*
X129241998Y-76581437D01*
X129235200Y-76609270D01*
X129323875Y-76676061D01*
X129542131Y-76742250D01*
X129590800Y-76752096D01*
X129825198Y-76817677D01*
X129943089Y-76892969D01*
X129946400Y-76905384D01*
X130034983Y-76960223D01*
X130250835Y-76977886D01*
X130276600Y-76976980D01*
X130496538Y-76984368D01*
X130596233Y-77072585D01*
X130634922Y-77299910D01*
X130637690Y-77332222D01*
X130713019Y-77636213D01*
X130854890Y-77870505D01*
X130866290Y-77881368D01*
X130996021Y-78065390D01*
X131055269Y-78349446D01*
X131064000Y-78598457D01*
X131093806Y-78950243D01*
X131187809Y-79394001D01*
X131352881Y-79953675D01*
X131595894Y-80653212D01*
X131838974Y-81298399D01*
X131943345Y-81585459D01*
X131970826Y-81755334D01*
X131920726Y-81879214D01*
X131832335Y-81984199D01*
X131655588Y-82138258D01*
X131530853Y-82191168D01*
X131509359Y-82140403D01*
X131597400Y-82052968D01*
X131718232Y-81926677D01*
X131761083Y-81762201D01*
X131721787Y-81520325D01*
X131596179Y-81161835D01*
X131470400Y-80857392D01*
X131322648Y-80485473D01*
X131214352Y-80165771D01*
X131166330Y-79960590D01*
X131165600Y-79945298D01*
X131118480Y-79653776D01*
X131000475Y-79362958D01*
X130846612Y-79138748D01*
X130691919Y-79047054D01*
X130688184Y-79047031D01*
X130412440Y-79108059D01*
X130034488Y-79267325D01*
X129611186Y-79496624D01*
X129199395Y-79767753D01*
X129128329Y-79820768D01*
X128862119Y-80034063D01*
X128725646Y-80194160D01*
X128683306Y-80365982D01*
X128698430Y-80604660D01*
X128692721Y-80960613D01*
X128584855Y-81349986D01*
X128473873Y-81610744D01*
X128251571Y-82029426D01*
X128042651Y-82266863D01*
X127820148Y-82340967D01*
X127557096Y-82269646D01*
X127513963Y-82248283D01*
X127262623Y-82139740D01*
X127071885Y-82092846D01*
X127068237Y-82092800D01*
X126906905Y-82016368D01*
X126763721Y-81864200D01*
X126648060Y-81698392D01*
X127000000Y-81698392D01*
X127062598Y-81753476D01*
X127101600Y-81737200D01*
X127199406Y-81602609D01*
X127203200Y-81572807D01*
X127153365Y-81528954D01*
X127406400Y-81528954D01*
X127477034Y-81789827D01*
X127625059Y-82006659D01*
X127784799Y-82150600D01*
X127881665Y-82153515D01*
X127980659Y-82038040D01*
X128091401Y-81827722D01*
X128117600Y-81708406D01*
X128176673Y-81533202D01*
X128318926Y-81310111D01*
X128320800Y-81307723D01*
X128480560Y-81027550D01*
X128518409Y-80779280D01*
X128429714Y-80624120D01*
X128328029Y-80655287D01*
X128276145Y-80752636D01*
X128187612Y-80910782D01*
X128032257Y-81102626D01*
X127855085Y-81283489D01*
X127701101Y-81408697D01*
X127615312Y-81433570D01*
X127609600Y-81414310D01*
X127667630Y-81265916D01*
X127807748Y-81055530D01*
X127812800Y-81049076D01*
X127972594Y-80804228D01*
X128005463Y-80652408D01*
X127908403Y-80620047D01*
X127859842Y-80635100D01*
X127679582Y-80790434D01*
X127519362Y-81066953D01*
X127420233Y-81383735D01*
X127406400Y-81528954D01*
X127153365Y-81528954D01*
X127140601Y-81517723D01*
X127101600Y-81534000D01*
X127003793Y-81668590D01*
X127000000Y-81698392D01*
X126648060Y-81698392D01*
X126604258Y-81635600D01*
X126588428Y-81940400D01*
X126575118Y-82123745D01*
X126551287Y-82137602D01*
X126499910Y-81970470D01*
X126470603Y-81860802D01*
X126391103Y-81621033D01*
X126310922Y-81550425D01*
X126227103Y-81593843D01*
X126097340Y-81819072D01*
X126136362Y-82112646D01*
X126337818Y-82439869D01*
X126393388Y-82502399D01*
X126567828Y-82710527D01*
X126651545Y-82854175D01*
X126649929Y-82883137D01*
X126558856Y-82850242D01*
X126408923Y-82700244D01*
X126401686Y-82691392D01*
X126243263Y-82544878D01*
X126129833Y-82523340D01*
X126126549Y-82526262D01*
X126119476Y-82655428D01*
X126227871Y-82838799D01*
X126399234Y-83016224D01*
X126581065Y-83127554D01*
X126661715Y-83139422D01*
X126856990Y-83209769D01*
X127053483Y-83423253D01*
X127329224Y-83744083D01*
X127724952Y-84087427D01*
X128171642Y-84401208D01*
X128600266Y-84633347D01*
X128721227Y-84681492D01*
X129225943Y-84804747D01*
X129742539Y-84838680D01*
X130208567Y-84785442D01*
X130561579Y-84647186D01*
X130604334Y-84616587D01*
X130766670Y-84468108D01*
X130841953Y-84309244D01*
X130852824Y-84066253D01*
X130838277Y-83854587D01*
X130824534Y-83521367D01*
X130857960Y-83352397D01*
X130928641Y-83312000D01*
X131048447Y-83230310D01*
X131064000Y-83159600D01*
X131010293Y-83024376D01*
X130964578Y-83007200D01*
X130927537Y-82932578D01*
X130975313Y-82751357D01*
X131082283Y-82527507D01*
X131222823Y-82324996D01*
X131249462Y-82296000D01*
X131350092Y-82201270D01*
X131332500Y-82257165D01*
X131312966Y-82292200D01*
X131259647Y-82476605D01*
X131219343Y-82777780D01*
X131208057Y-82952600D01*
X131168336Y-83469649D01*
X131097178Y-83955993D01*
X131004863Y-84359103D01*
X130901674Y-84626448D01*
X130871867Y-84670264D01*
X130713996Y-84766882D01*
X130416700Y-84878086D01*
X130040413Y-84981756D01*
X129988335Y-84993640D01*
X129596157Y-85088671D01*
X129359443Y-85173555D01*
X129233231Y-85271616D01*
X129172561Y-85406180D01*
X129169372Y-85418502D01*
X129156237Y-85684679D01*
X129200703Y-86063038D01*
X129290084Y-86475102D01*
X129391341Y-86791800D01*
X129406342Y-86872852D01*
X129352801Y-86923631D01*
X129196829Y-86950004D01*
X128904540Y-86957838D01*
X128458670Y-86953273D01*
X127929995Y-86940505D01*
X127290107Y-86918864D01*
X126630624Y-86891702D01*
X126187200Y-86870194D01*
X125568046Y-86829259D01*
X125109279Y-86773832D01*
X124768103Y-86692460D01*
X124501729Y-86573688D01*
X124267363Y-86406060D01*
X124185769Y-86334449D01*
X123979155Y-86206020D01*
X123811857Y-86188837D01*
X123618703Y-86163700D01*
X123521711Y-86107720D01*
X124367251Y-86107720D01*
X124398138Y-86318220D01*
X124502404Y-86449475D01*
X124558411Y-86461600D01*
X124627021Y-86372146D01*
X124662041Y-86151545D01*
X124662291Y-86139866D01*
X124968000Y-86139866D01*
X124984231Y-86408355D01*
X125024389Y-86580222D01*
X125035733Y-86597066D01*
X125167765Y-86662989D01*
X125246048Y-86539093D01*
X125272771Y-86221782D01*
X125272774Y-86219993D01*
X125483143Y-86219993D01*
X125604600Y-86481457D01*
X125679200Y-86563200D01*
X125951001Y-86736860D01*
X126216378Y-86738990D01*
X126386265Y-86618981D01*
X126396608Y-86594159D01*
X126695200Y-86594159D01*
X126789930Y-86622639D01*
X127046686Y-86645625D01*
X127424313Y-86660496D01*
X127804773Y-86664800D01*
X128914346Y-86664800D01*
X128947773Y-85883213D01*
X128961393Y-85487564D01*
X128951145Y-85243878D01*
X128903056Y-85101164D01*
X128803153Y-85008426D01*
X128690269Y-84943413D01*
X128474470Y-84811501D01*
X128153189Y-84598009D01*
X127784539Y-84341890D01*
X127658426Y-84251800D01*
X127324928Y-84015613D01*
X127056759Y-83833009D01*
X126893956Y-83730915D01*
X126865347Y-83718400D01*
X126855185Y-83804178D01*
X126896144Y-84016300D01*
X126911631Y-84074965D01*
X126971874Y-84353805D01*
X127037795Y-84752164D01*
X127095802Y-85187275D01*
X127099328Y-85217965D01*
X127140634Y-85618387D01*
X127147275Y-85873795D01*
X127110746Y-86040684D01*
X127022545Y-86175546D01*
X126941886Y-86263959D01*
X126777075Y-86455562D01*
X126696731Y-86584681D01*
X126695200Y-86594159D01*
X126396608Y-86594159D01*
X126438846Y-86492797D01*
X126377972Y-86327130D01*
X126220906Y-86110984D01*
X125973064Y-85863359D01*
X126434179Y-85863359D01*
X126438401Y-85996813D01*
X126570043Y-86089051D01*
X126753569Y-86088865D01*
X126762186Y-86085729D01*
X126886723Y-85953581D01*
X126898400Y-85891929D01*
X126820016Y-85782410D01*
X126648613Y-85754303D01*
X126479814Y-85813495D01*
X126434179Y-85863359D01*
X125973064Y-85863359D01*
X125960929Y-85851235D01*
X125739169Y-85757115D01*
X125578139Y-85835210D01*
X125537670Y-85911109D01*
X125483143Y-86219993D01*
X125272774Y-86219993D01*
X125272800Y-86207600D01*
X125252855Y-85906253D01*
X125185038Y-85768990D01*
X125120400Y-85750400D01*
X125012336Y-85820484D01*
X124969759Y-86050293D01*
X124968000Y-86139866D01*
X124662291Y-86139866D01*
X124663200Y-86097533D01*
X124634487Y-85840557D01*
X124546805Y-85772849D01*
X124536200Y-85775752D01*
X124412390Y-85899667D01*
X124367251Y-86107720D01*
X123521711Y-86107720D01*
X123333553Y-85999123D01*
X122983325Y-85720440D01*
X122594940Y-85352981D01*
X122195318Y-84922078D01*
X121811377Y-84453063D01*
X121533661Y-84063533D01*
X121840928Y-84063533D01*
X121945868Y-84353268D01*
X122196698Y-84700459D01*
X122234260Y-84745699D01*
X122532850Y-85070684D01*
X122742194Y-85219306D01*
X122871557Y-85192925D01*
X122930207Y-84992902D01*
X122936000Y-84848700D01*
X122933690Y-84796887D01*
X123174216Y-84796887D01*
X123237565Y-85121062D01*
X123238691Y-85124210D01*
X123386135Y-85479823D01*
X123531403Y-85740250D01*
X123653000Y-85874363D01*
X123729434Y-85851036D01*
X123733262Y-85840473D01*
X123820778Y-85660625D01*
X123966486Y-85429915D01*
X124141419Y-85040031D01*
X124117817Y-84669051D01*
X123897856Y-84336333D01*
X123837609Y-84282028D01*
X123612405Y-84122243D01*
X123439127Y-84050556D01*
X123407329Y-84052356D01*
X123269892Y-84193930D01*
X123188589Y-84464975D01*
X123174216Y-84796887D01*
X122933690Y-84796887D01*
X122919253Y-84473130D01*
X122876151Y-84161827D01*
X122817395Y-83941379D01*
X122753690Y-83838376D01*
X122695738Y-83879408D01*
X122654244Y-84091065D01*
X122650147Y-84138581D01*
X122601728Y-84420369D01*
X122526974Y-84621181D01*
X122478130Y-84638303D01*
X122467113Y-84462387D01*
X122491813Y-84109699D01*
X122510594Y-83795938D01*
X123647200Y-83795938D01*
X123710626Y-83892410D01*
X123875293Y-84089958D01*
X124060688Y-84296658D01*
X124331889Y-84635025D01*
X124449006Y-84904300D01*
X124456322Y-85019220D01*
X124446603Y-85250161D01*
X124449234Y-85369400D01*
X124549280Y-85410901D01*
X124802534Y-85436955D01*
X125159665Y-85448532D01*
X125571346Y-85446601D01*
X125988246Y-85432130D01*
X126361037Y-85406088D01*
X126640391Y-85369446D01*
X126776479Y-85323680D01*
X126863884Y-85139691D01*
X126896440Y-84891880D01*
X126866440Y-84558753D01*
X126792100Y-84195320D01*
X126691257Y-83862471D01*
X126581751Y-83621097D01*
X126498748Y-83534382D01*
X126436035Y-83527413D01*
X126406114Y-83581065D01*
X126410565Y-83728600D01*
X126450966Y-84003276D01*
X126528899Y-84438353D01*
X126546094Y-84531200D01*
X126549603Y-84779871D01*
X126504190Y-84923580D01*
X126339071Y-85034195D01*
X126025805Y-85131724D01*
X125619441Y-85203582D01*
X125175030Y-85237183D01*
X125128866Y-85237975D01*
X124869324Y-85227260D01*
X124798935Y-85191269D01*
X124906098Y-85136169D01*
X125179215Y-85068131D01*
X125581631Y-84997161D01*
X125933246Y-84929920D01*
X126190276Y-84855970D01*
X126301555Y-84790351D01*
X126302682Y-84785200D01*
X126297909Y-84478551D01*
X126263422Y-84109342D01*
X126208553Y-83734800D01*
X126142634Y-83412152D01*
X126074997Y-83198625D01*
X126035348Y-83145751D01*
X125870901Y-83156780D01*
X125605511Y-83242965D01*
X125460450Y-83306854D01*
X125250143Y-83399115D01*
X125177823Y-83411214D01*
X125222000Y-83369169D01*
X125544703Y-83124839D01*
X125709872Y-82982409D01*
X125728834Y-82930750D01*
X125653800Y-82944917D01*
X125502022Y-82938587D01*
X125490098Y-82837404D01*
X125577600Y-82753200D01*
X125642200Y-82620158D01*
X125677164Y-82366926D01*
X125679200Y-82284958D01*
X125741926Y-81836630D01*
X125911615Y-81461973D01*
X126013891Y-81360833D01*
X126487583Y-81360833D01*
X126578394Y-81380843D01*
X126636312Y-81381600D01*
X126905445Y-81280327D01*
X127114490Y-81051400D01*
X127835167Y-80135373D01*
X127955702Y-80018745D01*
X128219200Y-80018745D01*
X128278486Y-80107334D01*
X128440120Y-80049338D01*
X128679769Y-79857048D01*
X128820733Y-79714929D01*
X128966368Y-79525577D01*
X129007987Y-79398226D01*
X129001299Y-79386632D01*
X128885668Y-79397034D01*
X128691743Y-79511337D01*
X128477486Y-79682694D01*
X128300859Y-79864260D01*
X128219823Y-80009187D01*
X128219200Y-80018745D01*
X127955702Y-80018745D01*
X128590596Y-79404431D01*
X128959620Y-79149974D01*
X129438400Y-79149974D01*
X129508136Y-79240101D01*
X129665391Y-79223104D01*
X129832230Y-79109827D01*
X129846837Y-79093144D01*
X129927832Y-78942349D01*
X129918779Y-78881713D01*
X129795337Y-78877977D01*
X129615166Y-78961380D01*
X129470230Y-79080566D01*
X129438400Y-79149974D01*
X128959620Y-79149974D01*
X129373624Y-78864502D01*
X129434398Y-78838411D01*
X130352800Y-78838411D01*
X130427273Y-78894313D01*
X130505200Y-78878341D01*
X130638881Y-78806227D01*
X130657600Y-78779929D01*
X130574635Y-78744413D01*
X130505200Y-78740000D01*
X130369968Y-78793170D01*
X130352800Y-78838411D01*
X129434398Y-78838411D01*
X130161864Y-78526103D01*
X130503639Y-78409253D01*
X130752669Y-78299253D01*
X130859785Y-78218171D01*
X130860800Y-78212388D01*
X130806194Y-78070026D01*
X130671083Y-77845975D01*
X130632817Y-77790796D01*
X130492114Y-77552817D01*
X130432389Y-77369046D01*
X130434071Y-77343312D01*
X130408157Y-77240698D01*
X130265509Y-77267628D01*
X130028373Y-77405412D01*
X129718997Y-77635356D01*
X129359629Y-77938770D01*
X128972515Y-78296959D01*
X128579904Y-78691234D01*
X128204042Y-79102901D01*
X127896511Y-79475344D01*
X127564719Y-79899798D01*
X127222173Y-80335340D01*
X126924237Y-80711669D01*
X126821030Y-80841020D01*
X126597079Y-81125519D01*
X126489871Y-81287257D01*
X126487583Y-81360833D01*
X126013891Y-81360833D01*
X126160532Y-81215822D01*
X126239132Y-81177969D01*
X126396241Y-81061082D01*
X126635274Y-80815171D01*
X126921961Y-80477913D01*
X127182421Y-80140934D01*
X127567756Y-79642930D01*
X128018227Y-79095616D01*
X128461682Y-78585493D01*
X128659355Y-78370219D01*
X129026088Y-77976501D01*
X129265626Y-77705910D01*
X129393712Y-77537145D01*
X129426089Y-77448908D01*
X129378501Y-77419899D01*
X129362200Y-77419324D01*
X129256129Y-77478979D01*
X129033940Y-77636854D01*
X128735950Y-77861479D01*
X128402474Y-78121385D01*
X128073827Y-78385102D01*
X127790324Y-78621162D01*
X127592282Y-78798096D01*
X127578122Y-78811927D01*
X127192572Y-79207728D01*
X126798511Y-79636487D01*
X126421000Y-80068076D01*
X126085104Y-80472365D01*
X125815885Y-80819223D01*
X125638406Y-81078522D01*
X125577600Y-81216866D01*
X125518640Y-81384183D01*
X125374462Y-81611774D01*
X125352189Y-81640760D01*
X125193209Y-81877453D01*
X125106461Y-82072073D01*
X125103775Y-82086261D01*
X125017645Y-82250387D01*
X124830842Y-82465699D01*
X124760764Y-82531764D01*
X124567723Y-82718265D01*
X124514359Y-82830379D01*
X124581487Y-82920419D01*
X124610235Y-82942253D01*
X124705035Y-83036963D01*
X124682392Y-83143316D01*
X124526149Y-83319611D01*
X124497763Y-83348127D01*
X124236215Y-83551116D01*
X123964985Y-83678837D01*
X123931506Y-83686938D01*
X123727254Y-83743750D01*
X123647200Y-83795938D01*
X122510594Y-83795938D01*
X122516616Y-83695344D01*
X122491896Y-83421314D01*
X122411592Y-83229436D01*
X122398042Y-83209325D01*
X122297577Y-83080257D01*
X122222301Y-83072157D01*
X122128707Y-83207318D01*
X122029467Y-83398178D01*
X121872065Y-83766691D01*
X121840928Y-84063533D01*
X121533661Y-84063533D01*
X121493625Y-84007378D01*
X120980400Y-83048570D01*
X120650457Y-82026169D01*
X120615560Y-81769424D01*
X120843694Y-81769424D01*
X120905610Y-81997557D01*
X120960989Y-82219800D01*
X121052736Y-82439681D01*
X121195386Y-82479093D01*
X121412583Y-82340691D01*
X121481651Y-82278289D01*
X121650009Y-82148755D01*
X121714538Y-82156370D01*
X121682308Y-82268010D01*
X121560387Y-82450555D01*
X121408800Y-82619629D01*
X121100801Y-82927629D01*
X121371642Y-83389784D01*
X121642483Y-83851938D01*
X121828337Y-83469842D01*
X121970972Y-83197155D01*
X122094827Y-82993616D01*
X122118744Y-82961768D01*
X122164904Y-82781340D01*
X122102531Y-82462517D01*
X122079556Y-82388094D01*
X121972745Y-82012528D01*
X121886907Y-81638688D01*
X121872503Y-81559400D01*
X121824174Y-81315344D01*
X121783232Y-81185094D01*
X121775911Y-81178400D01*
X121672201Y-81215905D01*
X121443199Y-81311870D01*
X121267834Y-81388424D01*
X120972076Y-81542130D01*
X120846030Y-81675088D01*
X120843694Y-81769424D01*
X120615560Y-81769424D01*
X120506548Y-80967400D01*
X120513336Y-80805866D01*
X120700800Y-80805866D01*
X120720589Y-81168842D01*
X120797961Y-81346254D01*
X120959918Y-81353422D01*
X121233463Y-81205667D01*
X121312615Y-81153000D01*
X121478047Y-81023129D01*
X121599857Y-80866157D01*
X121609656Y-80843741D01*
X122081318Y-80843741D01*
X122164271Y-81645206D01*
X122359575Y-82424960D01*
X122653064Y-83117366D01*
X122846575Y-83430699D01*
X123025925Y-83658176D01*
X123113752Y-83713844D01*
X123110754Y-83606960D01*
X123017632Y-83346779D01*
X122835085Y-82942558D01*
X122804962Y-82880200D01*
X122724731Y-82705340D01*
X123110472Y-82705340D01*
X123112118Y-82986823D01*
X123167124Y-83246831D01*
X123274706Y-83555441D01*
X123300504Y-83500967D01*
X123604437Y-83500967D01*
X123681247Y-83610943D01*
X123718980Y-83616800D01*
X123823819Y-83574780D01*
X124046118Y-83468307D01*
X124177284Y-83402333D01*
X124422323Y-83264842D01*
X124503402Y-83174703D01*
X124444729Y-83102565D01*
X124431077Y-83094633D01*
X124170013Y-83044937D01*
X123881481Y-83115462D01*
X123668252Y-83277897D01*
X123648094Y-83310328D01*
X123604437Y-83500967D01*
X123300504Y-83500967D01*
X123427503Y-83232807D01*
X123522303Y-82956095D01*
X123515883Y-82905600D01*
X123698000Y-82905600D01*
X123721032Y-82992579D01*
X123793603Y-83007200D01*
X123932614Y-82954154D01*
X123952000Y-82905600D01*
X123879078Y-82806908D01*
X123856396Y-82804000D01*
X123718795Y-82877852D01*
X123698000Y-82905600D01*
X123515883Y-82905600D01*
X123492917Y-82725001D01*
X123481116Y-82696443D01*
X123799600Y-82696443D01*
X124065298Y-82699421D01*
X124333279Y-82638894D01*
X124599666Y-82491064D01*
X124778211Y-82299349D01*
X124790377Y-82156426D01*
X124635509Y-82093498D01*
X124608006Y-82092800D01*
X124448339Y-82157040D01*
X124220018Y-82318305D01*
X124131402Y-82394621D01*
X123799600Y-82696443D01*
X123481116Y-82696443D01*
X123463528Y-82653886D01*
X123348554Y-82466242D01*
X123254822Y-82397600D01*
X123160408Y-82486000D01*
X123110472Y-82705340D01*
X122724731Y-82705340D01*
X122594410Y-82421312D01*
X122464138Y-82050049D01*
X122390616Y-81679353D01*
X122350313Y-81222166D01*
X122348513Y-81191396D01*
X122348792Y-81178130D01*
X122578686Y-81178130D01*
X122630618Y-81756989D01*
X122751086Y-82212010D01*
X122762668Y-82238843D01*
X122941544Y-82638886D01*
X123254371Y-82103559D01*
X123581619Y-82103559D01*
X123592701Y-82165034D01*
X123686454Y-82361252D01*
X123801988Y-82372794D01*
X123890329Y-82236890D01*
X123943969Y-81982508D01*
X123944122Y-81707934D01*
X124465725Y-81707934D01*
X124527733Y-81821866D01*
X124615854Y-81878994D01*
X124737249Y-81858125D01*
X124950581Y-81743998D01*
X125044200Y-81687513D01*
X125308500Y-81491544D01*
X125391390Y-81355426D01*
X125310244Y-81296890D01*
X125082439Y-81333669D01*
X124805554Y-81443976D01*
X124548273Y-81588618D01*
X124465725Y-81707934D01*
X123944122Y-81707934D01*
X123944124Y-81704381D01*
X123895169Y-81490227D01*
X123850209Y-81432282D01*
X123748074Y-81461807D01*
X123653744Y-81627694D01*
X123590498Y-81863694D01*
X123581619Y-82103559D01*
X123254371Y-82103559D01*
X123352615Y-81935439D01*
X123553551Y-81599684D01*
X123719878Y-81336544D01*
X123822223Y-81192076D01*
X123834511Y-81179795D01*
X123853635Y-81153000D01*
X124156755Y-81153000D01*
X124198360Y-81407479D01*
X124299041Y-81488869D01*
X124417764Y-81400908D01*
X124513492Y-81147335D01*
X124518927Y-81120010D01*
X124525891Y-80989013D01*
X124984860Y-80989013D01*
X125115256Y-80999751D01*
X125336007Y-80925763D01*
X125579126Y-80827876D01*
X125727621Y-80775017D01*
X125742407Y-80772000D01*
X125776557Y-80689025D01*
X125780800Y-80619600D01*
X125715006Y-80486982D01*
X125536644Y-80497549D01*
X125274235Y-80648255D01*
X125235701Y-80677774D01*
X125023024Y-80876781D01*
X124984860Y-80989013D01*
X124525891Y-80989013D01*
X124535698Y-80804546D01*
X124468500Y-80638260D01*
X124334814Y-80594093D01*
X124227359Y-80721758D01*
X124165052Y-80990022D01*
X124156755Y-81153000D01*
X123853635Y-81153000D01*
X123921468Y-81057960D01*
X124034038Y-80835405D01*
X124038216Y-80825974D01*
X124199396Y-80549277D01*
X124268075Y-80460520D01*
X124764800Y-80460520D01*
X124780507Y-80700826D01*
X124835956Y-80749158D01*
X124943639Y-80606099D01*
X125016190Y-80472245D01*
X125129445Y-80183609D01*
X125133135Y-80159527D01*
X125626624Y-80159527D01*
X125769241Y-80207544D01*
X126038770Y-80110962D01*
X126263400Y-79980510D01*
X126445841Y-79824244D01*
X126482974Y-79702693D01*
X126365000Y-79654779D01*
X126183497Y-79704877D01*
X125958865Y-79825533D01*
X125754311Y-79973541D01*
X125633039Y-80105693D01*
X125626624Y-80159527D01*
X125133135Y-80159527D01*
X125167823Y-79933201D01*
X125126714Y-79778964D01*
X125108522Y-79771161D01*
X125374400Y-79771161D01*
X125424537Y-79854608D01*
X125551471Y-79780661D01*
X125639368Y-79679800D01*
X125736628Y-79478664D01*
X125742525Y-79444690D01*
X126238000Y-79444690D01*
X126542800Y-79356926D01*
X126822471Y-79269669D01*
X127025400Y-79196911D01*
X127174599Y-79094748D01*
X127203200Y-79033929D01*
X127128954Y-78946563D01*
X126944721Y-78960293D01*
X126708257Y-79061529D01*
X126523065Y-79193945D01*
X126238000Y-79444690D01*
X125742525Y-79444690D01*
X125775422Y-79255175D01*
X125764392Y-79183396D01*
X126093685Y-79183396D01*
X126170518Y-79206320D01*
X126187922Y-79196753D01*
X126302102Y-79068704D01*
X126439770Y-78844185D01*
X126448058Y-78828336D01*
X126517340Y-78646428D01*
X127055761Y-78646428D01*
X127197219Y-78698641D01*
X127449147Y-78637569D01*
X127762452Y-78475745D01*
X127787400Y-78459671D01*
X127966618Y-78303696D01*
X128011562Y-78179584D01*
X127910352Y-78130400D01*
X127727263Y-78176107D01*
X127488800Y-78288345D01*
X127256781Y-78429785D01*
X127093023Y-78563100D01*
X127055761Y-78646428D01*
X126517340Y-78646428D01*
X126547121Y-78568235D01*
X126569846Y-78358497D01*
X126568612Y-78352179D01*
X126528020Y-78297961D01*
X126898400Y-78297961D01*
X126953893Y-78335447D01*
X127081051Y-78248951D01*
X127163368Y-78155800D01*
X127268750Y-77948539D01*
X127278834Y-77881091D01*
X128069099Y-77881091D01*
X128138219Y-77923819D01*
X128359303Y-77885314D01*
X128570019Y-77809291D01*
X128776253Y-77679981D01*
X128815018Y-77574236D01*
X128679342Y-77522153D01*
X128636855Y-77520800D01*
X128461682Y-77562506D01*
X128277012Y-77662040D01*
X128130324Y-77781027D01*
X128069099Y-77881091D01*
X127278834Y-77881091D01*
X127296180Y-77765076D01*
X127609600Y-77765076D01*
X127661304Y-77837962D01*
X127788262Y-77773003D01*
X127948241Y-77598147D01*
X128017113Y-77495400D01*
X128134062Y-77284585D01*
X128967543Y-77284585D01*
X129001819Y-77314219D01*
X129179952Y-77277128D01*
X129382819Y-77199691D01*
X129582301Y-77074116D01*
X129636437Y-76965770D01*
X129529921Y-76912193D01*
X129500455Y-76911200D01*
X129357527Y-76956446D01*
X129184922Y-77062972D01*
X129036855Y-77186958D01*
X128967543Y-77284585D01*
X128134062Y-77284585D01*
X128173874Y-77212820D01*
X128206010Y-77079406D01*
X128552586Y-77079406D01*
X128678578Y-77114400D01*
X128830808Y-77030963D01*
X128949082Y-76859970D01*
X129014565Y-76622265D01*
X128958310Y-76525999D01*
X128812338Y-76594234D01*
X128718454Y-76693855D01*
X128553095Y-76942016D01*
X128552586Y-77079406D01*
X128206010Y-77079406D01*
X128207607Y-77072779D01*
X128121100Y-77058253D01*
X128086823Y-77069975D01*
X127956734Y-77183544D01*
X127795197Y-77394946D01*
X127660284Y-77619596D01*
X127609600Y-77765076D01*
X127296180Y-77765076D01*
X127298720Y-77748090D01*
X127246203Y-77630287D01*
X127213139Y-77622400D01*
X127133707Y-77705372D01*
X127029385Y-77899792D01*
X126938258Y-78123910D01*
X126898412Y-78295980D01*
X126898400Y-78297961D01*
X126528020Y-78297961D01*
X126517952Y-78284515D01*
X126415445Y-78378222D01*
X126308855Y-78536800D01*
X126171572Y-78801058D01*
X126096943Y-79032449D01*
X126093685Y-79183396D01*
X125764392Y-79183396D01*
X125749633Y-79087362D01*
X125689139Y-79044800D01*
X125604820Y-79129592D01*
X125501350Y-79331092D01*
X125413098Y-79569979D01*
X125374434Y-79766936D01*
X125374400Y-79771161D01*
X125108522Y-79771161D01*
X125073174Y-79756000D01*
X124936899Y-79846794D01*
X124825607Y-80076008D01*
X124767640Y-80378890D01*
X124764800Y-80460520D01*
X124268075Y-80460520D01*
X124423678Y-80259431D01*
X124463190Y-80216374D01*
X125100638Y-79546794D01*
X125612204Y-79015486D01*
X126009421Y-78611032D01*
X126303824Y-78322014D01*
X126506945Y-78137013D01*
X126630319Y-78044613D01*
X126672933Y-78028800D01*
X126809431Y-77951608D01*
X126955946Y-77778761D01*
X127151375Y-77569721D01*
X127339289Y-77460481D01*
X127546096Y-77352502D01*
X127812369Y-77159479D01*
X127925412Y-77063381D01*
X128171327Y-76856705D01*
X128373268Y-76710787D01*
X128433412Y-76678197D01*
X128520283Y-76613791D01*
X128428641Y-76520518D01*
X128423274Y-76516781D01*
X128158419Y-76413976D01*
X127752248Y-76350289D01*
X127263555Y-76329541D01*
X126751135Y-76355552D01*
X126483244Y-76390718D01*
X125488149Y-76630787D01*
X124646620Y-77000414D01*
X123950506Y-77506128D01*
X123391651Y-78154456D01*
X122961901Y-78951927D01*
X122821519Y-79322367D01*
X122675395Y-79898434D01*
X122594031Y-80537817D01*
X122578686Y-81178130D01*
X122348792Y-81178130D01*
X122369740Y-80182990D01*
X122560432Y-79277886D01*
X122927240Y-78457802D01*
X123476815Y-77704460D01*
X123705826Y-77460941D01*
X124410351Y-76870947D01*
X125185236Y-76451974D01*
X126044054Y-76200640D01*
X127000379Y-76113563D01*
X128067782Y-76187359D01*
X128524000Y-76260271D01*
X128748433Y-76288263D01*
X128801359Y-76252803D01*
X128768995Y-76207893D01*
X128623601Y-76137281D01*
X128330996Y-76049995D01*
X127944672Y-75961123D01*
X127783485Y-75929902D01*
X127334148Y-75853570D01*
X127003720Y-75821291D01*
X126712699Y-75833267D01*
X126381581Y-75889704D01*
X126178959Y-75934022D01*
X125177921Y-76253235D01*
X124290993Y-76725478D01*
X123532264Y-77336321D01*
X122915826Y-78071331D01*
X122455769Y-78916079D01*
X122166183Y-79856131D01*
X122124877Y-80086200D01*
X122081318Y-80843741D01*
X121609656Y-80843741D01*
X121701183Y-80634385D01*
X121805160Y-80280116D01*
X121879651Y-79983976D01*
X122032433Y-79448033D01*
X122230511Y-78873481D01*
X122436331Y-78367305D01*
X122480088Y-78273320D01*
X122644829Y-77920052D01*
X122763393Y-77644864D01*
X122817213Y-77491748D01*
X122817077Y-77474906D01*
X122556577Y-77329608D01*
X122230453Y-77231962D01*
X122077585Y-77216000D01*
X121830105Y-77292233D01*
X121618972Y-77539021D01*
X121486138Y-77810446D01*
X121506330Y-77963991D01*
X121689067Y-78025639D01*
X121798996Y-78030355D01*
X122063991Y-78068549D01*
X122224800Y-78134340D01*
X122252480Y-78188051D01*
X122099967Y-78196056D01*
X121844069Y-78170530D01*
X121310939Y-78104293D01*
X121158269Y-78469683D01*
X121041480Y-78782896D01*
X121037563Y-78955670D01*
X121168347Y-79029230D01*
X121455659Y-79044797D01*
X121462800Y-79044800D01*
X121735463Y-79064979D01*
X121899021Y-79116036D01*
X121920000Y-79146400D01*
X121828748Y-79204940D01*
X121595964Y-79241659D01*
X121423849Y-79248000D01*
X121095995Y-79274841D01*
X120907967Y-79383042D01*
X120822847Y-79614122D01*
X120803787Y-79945336D01*
X120817405Y-80087743D01*
X120895379Y-80147978D01*
X121090100Y-80145186D01*
X121285000Y-80121190D01*
X121565566Y-80087042D01*
X121669102Y-80091127D01*
X121619681Y-80142550D01*
X121513600Y-80207654D01*
X121219683Y-80324168D01*
X120980200Y-80361999D01*
X120805757Y-80381134D01*
X120724749Y-80470083D01*
X120701723Y-80685169D01*
X120700800Y-80805866D01*
X120513336Y-80805866D01*
X120551427Y-79899491D01*
X120787847Y-78849668D01*
X120931921Y-78452604D01*
X121170106Y-77953616D01*
X121492269Y-77401357D01*
X121817068Y-76917343D01*
X122123200Y-76917343D01*
X122206934Y-76989451D01*
X122410247Y-77097037D01*
X122661304Y-77207380D01*
X122888270Y-77287761D01*
X122980251Y-77307726D01*
X123114086Y-77251317D01*
X123305308Y-77101498D01*
X123310451Y-77096689D01*
X123474508Y-76919679D01*
X123545522Y-76797695D01*
X123545600Y-76795552D01*
X123468865Y-76695064D01*
X123275223Y-76534906D01*
X123168191Y-76458869D01*
X122790783Y-76202414D01*
X122456991Y-76525937D01*
X122257325Y-76733036D01*
X122138058Y-76882952D01*
X122123200Y-76917343D01*
X121817068Y-76917343D01*
X121857367Y-76857291D01*
X122224358Y-76382883D01*
X122483387Y-76108665D01*
X122956249Y-76108665D01*
X123002965Y-76195448D01*
X123125800Y-76246547D01*
X123340503Y-76367770D01*
X123497147Y-76507393D01*
X123638745Y-76655616D01*
X123701437Y-76708000D01*
X123793254Y-76660387D01*
X124012585Y-76535401D01*
X124312465Y-76359817D01*
X124320690Y-76354950D01*
X124647461Y-76161585D01*
X124918982Y-76000982D01*
X125069600Y-75911969D01*
X125157121Y-75830711D01*
X125156291Y-75811310D01*
X129032000Y-75811310D01*
X129059736Y-75963094D01*
X129158695Y-75968350D01*
X129352502Y-75822228D01*
X129458240Y-75723791D01*
X129661918Y-75484987D01*
X129740076Y-75296097D01*
X129681740Y-75193119D01*
X129622748Y-75184000D01*
X129435738Y-75262864D01*
X129229351Y-75449920D01*
X129073564Y-75670857D01*
X129032000Y-75811310D01*
X125156291Y-75811310D01*
X125151584Y-75701391D01*
X125049698Y-75460322D01*
X125045843Y-75452219D01*
X124956998Y-75223383D01*
X124945661Y-75093530D01*
X124963067Y-75082400D01*
X125054810Y-75168283D01*
X125163036Y-75380557D01*
X125185033Y-75438000D01*
X125303731Y-75688015D01*
X125456080Y-75780393D01*
X125701586Y-75738355D01*
X125833776Y-75691172D01*
X126000599Y-75608613D01*
X126064493Y-75487230D01*
X126052075Y-75257363D01*
X126037591Y-75157772D01*
X126009073Y-74903915D01*
X126031539Y-74831517D01*
X126078045Y-74879200D01*
X126159298Y-75093840D01*
X126185644Y-75311000D01*
X126221276Y-75517627D01*
X126360214Y-75587265D01*
X126432890Y-75590400D01*
X126755984Y-75559053D01*
X126929203Y-75436146D01*
X126989697Y-75197600D01*
X127224426Y-75197600D01*
X127295003Y-75453248D01*
X127503849Y-75580495D01*
X127609470Y-75590400D01*
X127818795Y-75557439D01*
X127826666Y-75550777D01*
X128229293Y-75550777D01*
X128253060Y-75633692D01*
X128371220Y-75734069D01*
X128566041Y-75670005D01*
X128812691Y-75453100D01*
X128925434Y-75319636D01*
X129058436Y-75080180D01*
X129011801Y-74934576D01*
X128788749Y-74888063D01*
X128665247Y-74896657D01*
X128411767Y-75015544D01*
X128252926Y-75257764D01*
X128229293Y-75550777D01*
X127826666Y-75550777D01*
X127974352Y-75425776D01*
X128122622Y-75174154D01*
X128238961Y-74917305D01*
X128290407Y-74743494D01*
X128285478Y-74708411D01*
X128162240Y-74664956D01*
X127915071Y-74616912D01*
X127823637Y-74603608D01*
X127554553Y-74581320D01*
X127411321Y-74631922D01*
X127320595Y-74788175D01*
X127301612Y-74836784D01*
X127224426Y-75197600D01*
X126989697Y-75197600D01*
X126994572Y-75178378D01*
X127000000Y-75006065D01*
X127000000Y-74545070D01*
X126229371Y-74603352D01*
X125689119Y-74672247D01*
X125203594Y-74807702D01*
X124698342Y-75022747D01*
X124316061Y-75211419D01*
X124099679Y-75352164D01*
X124029302Y-75479336D01*
X124085034Y-75627287D01*
X124237200Y-75819000D01*
X124329221Y-75959385D01*
X124293178Y-75993694D01*
X124167810Y-75931900D01*
X123991856Y-75783974D01*
X123955443Y-75746465D01*
X123720266Y-75496131D01*
X123330302Y-75771865D01*
X123061311Y-75976872D01*
X122956249Y-76108665D01*
X122483387Y-76108665D01*
X122529971Y-76059350D01*
X123005643Y-75688969D01*
X123607893Y-75307320D01*
X124266642Y-74954274D01*
X124911809Y-74669703D01*
X125083041Y-74606832D01*
X125487483Y-74480420D01*
X125863399Y-74402650D01*
X126285214Y-74363006D01*
X126827355Y-74350970D01*
X126894327Y-74350880D01*
X127567572Y-74365716D01*
G36*
X130702544Y-83118275D02*
X130591396Y-83187943D01*
X130438201Y-83213168D01*
X130353333Y-83177169D01*
X130352800Y-83171449D01*
X130436577Y-83118086D01*
X130556140Y-83079324D01*
X130693644Y-83072633D01*
X130702544Y-83118275D01*
X130702544Y-83118275D01*
G37*
X130702544Y-83118275D02*
X130591396Y-83187943D01*
X130438201Y-83213168D01*
X130353333Y-83177169D01*
X130352800Y-83171449D01*
X130436577Y-83118086D01*
X130556140Y-83079324D01*
X130693644Y-83072633D01*
X130702544Y-83118275D01*
G36*
X131397143Y-81953200D02*
X131368800Y-81971919D01*
X131120877Y-82095396D01*
X130900581Y-82152893D01*
X130771288Y-82131132D01*
X130759200Y-82099646D01*
X130839409Y-81997993D01*
X130886200Y-81989812D01*
X131079452Y-81967734D01*
X131267200Y-81932022D01*
X131423405Y-81908764D01*
X131397143Y-81953200D01*
X131397143Y-81953200D01*
G37*
X131397143Y-81953200D02*
X131368800Y-81971919D01*
X131120877Y-82095396D01*
X130900581Y-82152893D01*
X130771288Y-82131132D01*
X130759200Y-82099646D01*
X130839409Y-81997993D01*
X130886200Y-81989812D01*
X131079452Y-81967734D01*
X131267200Y-81932022D01*
X131423405Y-81908764D01*
X131397143Y-81953200D01*
G36*
X130828604Y-81667350D02*
X130840716Y-81826138D01*
X130820583Y-81862083D01*
X130774404Y-81831782D01*
X130767221Y-81728733D01*
X130792033Y-81620322D01*
X130828604Y-81667350D01*
X130828604Y-81667350D01*
G37*
X130828604Y-81667350D02*
X130840716Y-81826138D01*
X130820583Y-81862083D01*
X130774404Y-81831782D01*
X130767221Y-81728733D01*
X130792033Y-81620322D01*
X130828604Y-81667350D01*
G36*
X130571935Y-79772303D02*
X130616164Y-79972608D01*
X130596485Y-80266923D01*
X130526303Y-80561341D01*
X130432867Y-80746600D01*
X130233347Y-80843819D01*
X129902996Y-80852185D01*
X129541447Y-80783033D01*
X129419968Y-80738431D01*
X129407659Y-80681029D01*
X129521554Y-80588136D01*
X130048000Y-80588136D01*
X130107651Y-80654681D01*
X130229168Y-80613218D01*
X130326390Y-80494948D01*
X130329539Y-80486180D01*
X130297797Y-80409683D01*
X130208889Y-80427200D01*
X130069143Y-80531018D01*
X130048000Y-80588136D01*
X129521554Y-80588136D01*
X129526133Y-80584402D01*
X129797001Y-80422125D01*
X129871647Y-80379304D01*
X130223234Y-80158307D01*
X130419297Y-79990301D01*
X130449656Y-79886640D01*
X130339392Y-79857600D01*
X130186160Y-79907560D01*
X129944606Y-80032188D01*
X129864203Y-80080203D01*
X129663513Y-80189033D01*
X129573345Y-80206341D01*
X129579705Y-80180352D01*
X129711488Y-80062134D01*
X129954250Y-79908552D01*
X130068675Y-79847052D01*
X130337725Y-79725000D01*
X130489751Y-79705908D01*
X130571935Y-79772303D01*
X130571935Y-79772303D01*
G37*
X130571935Y-79772303D02*
X130616164Y-79972608D01*
X130596485Y-80266923D01*
X130526303Y-80561341D01*
X130432867Y-80746600D01*
X130233347Y-80843819D01*
X129902996Y-80852185D01*
X129541447Y-80783033D01*
X129419968Y-80738431D01*
X129407659Y-80681029D01*
X129521554Y-80588136D01*
X130048000Y-80588136D01*
X130107651Y-80654681D01*
X130229168Y-80613218D01*
X130326390Y-80494948D01*
X130329539Y-80486180D01*
X130297797Y-80409683D01*
X130208889Y-80427200D01*
X130069143Y-80531018D01*
X130048000Y-80588136D01*
X129521554Y-80588136D01*
X129526133Y-80584402D01*
X129797001Y-80422125D01*
X129871647Y-80379304D01*
X130223234Y-80158307D01*
X130419297Y-79990301D01*
X130449656Y-79886640D01*
X130339392Y-79857600D01*
X130186160Y-79907560D01*
X129944606Y-80032188D01*
X129864203Y-80080203D01*
X129663513Y-80189033D01*
X129573345Y-80206341D01*
X129579705Y-80180352D01*
X129711488Y-80062134D01*
X129954250Y-79908552D01*
X130068675Y-79847052D01*
X130337725Y-79725000D01*
X130489751Y-79705908D01*
X130571935Y-79772303D01*
D13*
X83820000Y-85318000D02*
X82270000Y-85318000D01*
X82270000Y-85318000D02*
X82270000Y-88418000D01*
X82270000Y-88418000D02*
X83820000Y-88418000D01*
X85090000Y-85598000D02*
X90170000Y-85598000D01*
X90170000Y-85598000D02*
X90170000Y-88138000D01*
X90170000Y-88138000D02*
X85090000Y-88138000D01*
X85090000Y-88138000D02*
X85090000Y-85598000D01*
X83820000Y-88874000D02*
X82270000Y-88874000D01*
X82270000Y-88874000D02*
X82270000Y-91974000D01*
X82270000Y-91974000D02*
X83820000Y-91974000D01*
X85090000Y-89154000D02*
X90170000Y-89154000D01*
X90170000Y-89154000D02*
X90170000Y-91694000D01*
X90170000Y-91694000D02*
X85090000Y-91694000D01*
X85090000Y-91694000D02*
X85090000Y-89154000D01*
X83820000Y-92430000D02*
X82270000Y-92430000D01*
X82270000Y-92430000D02*
X82270000Y-95530000D01*
X82270000Y-95530000D02*
X83820000Y-95530000D01*
X85090000Y-92710000D02*
X90170000Y-92710000D01*
X90170000Y-92710000D02*
X90170000Y-95250000D01*
X90170000Y-95250000D02*
X85090000Y-95250000D01*
X85090000Y-95250000D02*
X85090000Y-92710000D01*
D10*
X83312000Y-131522000D02*
X84328000Y-131522000D01*
X83312000Y-130098000D02*
X84328000Y-130098000D01*
X84328000Y-131522000D02*
G75*
G03X84328000Y-130098000I0J712000D01*
G01*
X83312000Y-130098000D02*
G75*
G03X83312000Y-131522000I0J-712000D01*
G01*
X83312000Y-128982000D02*
X84328000Y-128982000D01*
X83312000Y-127558000D02*
X84328000Y-127558000D01*
X84328000Y-128982000D02*
G75*
G03X84328000Y-127558000I0J712000D01*
G01*
X83312000Y-127558000D02*
G75*
G03X83312000Y-128982000I0J-712000D01*
G01*
X83312000Y-126442000D02*
X84328000Y-126442000D01*
X83312000Y-125018000D02*
X84328000Y-125018000D01*
X84328000Y-126442000D02*
G75*
G03X84328000Y-125018000I0J712000D01*
G01*
X83312000Y-125018000D02*
G75*
G03X83312000Y-126442000I0J-712000D01*
G01*
X83312000Y-118822000D02*
X84328000Y-118822000D01*
X83312000Y-117398000D02*
X84328000Y-117398000D01*
X84328000Y-118822000D02*
G75*
G03X84328000Y-117398000I0J712000D01*
G01*
X83312000Y-117398000D02*
G75*
G03X83312000Y-118822000I0J-712000D01*
G01*
X83312000Y-121362000D02*
X84328000Y-121362000D01*
X83312000Y-119938000D02*
X84328000Y-119938000D01*
X84328000Y-121362000D02*
G75*
G03X84328000Y-119938000I0J712000D01*
G01*
X83312000Y-119938000D02*
G75*
G03X83312000Y-121362000I0J-712000D01*
G01*
X83312000Y-123902000D02*
X84328000Y-123902000D01*
X83312000Y-122478000D02*
X84328000Y-122478000D01*
X84328000Y-123902000D02*
G75*
G03X84328000Y-122478000I0J712000D01*
G01*
X83312000Y-122478000D02*
G75*
G03X83312000Y-123902000I0J-712000D01*
G01*
X83312000Y-113742000D02*
X84328000Y-113742000D01*
X83312000Y-112318000D02*
X84328000Y-112318000D01*
X84328000Y-113742000D02*
G75*
G03X84328000Y-112318000I0J712000D01*
G01*
X83312000Y-112318000D02*
G75*
G03X83312000Y-113742000I0J-712000D01*
G01*
X83312000Y-111202000D02*
X84328000Y-111202000D01*
X83312000Y-109778000D02*
X84328000Y-109778000D01*
X84328000Y-111202000D02*
G75*
G03X84328000Y-109778000I0J712000D01*
G01*
X83312000Y-109778000D02*
G75*
G03X83312000Y-111202000I0J-712000D01*
G01*
X83312000Y-108662000D02*
X84328000Y-108662000D01*
X83312000Y-107238000D02*
X84328000Y-107238000D01*
X84328000Y-108662000D02*
G75*
G03X84328000Y-107238000I0J712000D01*
G01*
X83312000Y-107238000D02*
G75*
G03X83312000Y-108662000I0J-712000D01*
G01*
X83312000Y-103582000D02*
X84328000Y-103582000D01*
X83312000Y-102158000D02*
X84328000Y-102158000D01*
X84328000Y-103582000D02*
G75*
G03X84328000Y-102158000I0J712000D01*
G01*
X83312000Y-102158000D02*
G75*
G03X83312000Y-103582000I0J-712000D01*
G01*
X83312000Y-101042000D02*
X84328000Y-101042000D01*
X83312000Y-99618000D02*
X84328000Y-99618000D01*
X84328000Y-101042000D02*
G75*
G03X84328000Y-99618000I0J712000D01*
G01*
X83312000Y-99618000D02*
G75*
G03X83312000Y-101042000I0J-712000D01*
G01*
X131572000Y-131522000D02*
X132588000Y-131522000D01*
X131572000Y-130098000D02*
X132588000Y-130098000D01*
X132588000Y-131522000D02*
G75*
G03X132588000Y-130098000I0J712000D01*
G01*
X131572000Y-130098000D02*
G75*
G03X131572000Y-131522000I0J-712000D01*
G01*
X131572000Y-128982000D02*
X132588000Y-128982000D01*
X131572000Y-127558000D02*
X132588000Y-127558000D01*
X132588000Y-128982000D02*
G75*
G03X132588000Y-127558000I0J712000D01*
G01*
X131572000Y-127558000D02*
G75*
G03X131572000Y-128982000I0J-712000D01*
G01*
X131572000Y-126442000D02*
X132588000Y-126442000D01*
X131572000Y-125018000D02*
X132588000Y-125018000D01*
X132588000Y-126442000D02*
G75*
G03X132588000Y-125018000I0J712000D01*
G01*
X131572000Y-125018000D02*
G75*
G03X131572000Y-126442000I0J-712000D01*
G01*
X131572000Y-123902000D02*
X132588000Y-123902000D01*
X131572000Y-122478000D02*
X132588000Y-122478000D01*
X132588000Y-123902000D02*
G75*
G03X132588000Y-122478000I0J712000D01*
G01*
X131572000Y-122478000D02*
G75*
G03X131572000Y-123902000I0J-712000D01*
G01*
X131572000Y-121362000D02*
X132588000Y-121362000D01*
X131572000Y-119938000D02*
X132588000Y-119938000D01*
X132588000Y-121362000D02*
G75*
G03X132588000Y-119938000I0J712000D01*
G01*
X131572000Y-119938000D02*
G75*
G03X131572000Y-121362000I0J-712000D01*
G01*
X131572000Y-118822000D02*
X132588000Y-118822000D01*
X131572000Y-117398000D02*
X132588000Y-117398000D01*
X132588000Y-118822000D02*
G75*
G03X132588000Y-117398000I0J712000D01*
G01*
X131572000Y-117398000D02*
G75*
G03X131572000Y-118822000I0J-712000D01*
G01*
X131572000Y-116282000D02*
X132588000Y-116282000D01*
X131572000Y-114858000D02*
X132588000Y-114858000D01*
X132588000Y-116282000D02*
G75*
G03X132588000Y-114858000I0J712000D01*
G01*
X131572000Y-114858000D02*
G75*
G03X131572000Y-116282000I0J-712000D01*
G01*
X131572000Y-113742000D02*
X132588000Y-113742000D01*
X131572000Y-112318000D02*
X132588000Y-112318000D01*
X132588000Y-113742000D02*
G75*
G03X132588000Y-112318000I0J712000D01*
G01*
X131572000Y-112318000D02*
G75*
G03X131572000Y-113742000I0J-712000D01*
G01*
X131572000Y-109678000D02*
X132588000Y-109678000D01*
X131572000Y-108254000D02*
X132588000Y-108254000D01*
X132588000Y-109678000D02*
G75*
G03X132588000Y-108254000I0J712000D01*
G01*
X131572000Y-108254000D02*
G75*
G03X131572000Y-109678000I0J-712000D01*
G01*
X131572000Y-107138000D02*
X132588000Y-107138000D01*
X131572000Y-105714000D02*
X132588000Y-105714000D01*
X132588000Y-107138000D02*
G75*
G03X132588000Y-105714000I0J712000D01*
G01*
X131572000Y-105714000D02*
G75*
G03X131572000Y-107138000I0J-712000D01*
G01*
X131572000Y-104598000D02*
X132588000Y-104598000D01*
X131572000Y-103174000D02*
X132588000Y-103174000D01*
X132588000Y-104598000D02*
G75*
G03X132588000Y-103174000I0J712000D01*
G01*
X131572000Y-103174000D02*
G75*
G03X131572000Y-104598000I0J-712000D01*
G01*
X131572000Y-102058000D02*
X132588000Y-102058000D01*
X131572000Y-100634000D02*
X132588000Y-100634000D01*
X132588000Y-102058000D02*
G75*
G03X132588000Y-100634000I0J712000D01*
G01*
X131572000Y-100634000D02*
G75*
G03X131572000Y-102058000I0J-712000D01*
G01*
X131572000Y-99518000D02*
X132588000Y-99518000D01*
X131572000Y-98094000D02*
X132588000Y-98094000D01*
X132588000Y-99518000D02*
G75*
G03X132588000Y-98094000I0J712000D01*
G01*
X131572000Y-98094000D02*
G75*
G03X131572000Y-99518000I0J-712000D01*
G01*
X131572000Y-96978000D02*
X132588000Y-96978000D01*
X131572000Y-95554000D02*
X132588000Y-95554000D01*
X132588000Y-96978000D02*
G75*
G03X132588000Y-95554000I0J712000D01*
G01*
X131572000Y-95554000D02*
G75*
G03X131572000Y-96978000I0J-712000D01*
G01*
X131572000Y-94438000D02*
X132588000Y-94438000D01*
X131572000Y-93014000D02*
X132588000Y-93014000D01*
X132588000Y-94438000D02*
G75*
G03X132588000Y-93014000I0J712000D01*
G01*
X131572000Y-93014000D02*
G75*
G03X131572000Y-94438000I0J-712000D01*
G01*
X131572000Y-91898000D02*
X132588000Y-91898000D01*
X131572000Y-90474000D02*
X132588000Y-90474000D01*
X132588000Y-91898000D02*
G75*
G03X132588000Y-90474000I0J712000D01*
G01*
X131572000Y-90474000D02*
G75*
G03X131572000Y-91898000I0J-712000D01*
G01*
X83312000Y-106122000D02*
X84328000Y-106122000D01*
X83312000Y-104698000D02*
X84328000Y-104698000D01*
X84328000Y-106122000D02*
G75*
G03X84328000Y-104698000I0J712000D01*
G01*
X83312000Y-104698000D02*
G75*
G03X83312000Y-106122000I0J-712000D01*
G01*
X132395000Y-70485000D02*
G75*
G03X132395000Y-70485000I-950000J0D01*
G01*
X119695000Y-132715000D02*
G75*
G03X119695000Y-132715000I-950000J0D01*
G01*
X85405000Y-70485000D02*
G75*
G03X85405000Y-70485000I-950000J0D01*
G01*
X88580000Y-132715000D02*
G75*
G03X88580000Y-132715000I-950000J0D01*
G01*
X99860000Y-116300000D02*
G75*
G03X99860000Y-116300000I-800000J0D01*
G01*
X99860000Y-94075000D02*
G75*
G03X99860000Y-94075000I-800000J0D01*
G01*
X107480000Y-131350000D02*
G75*
G03X107480000Y-131350000I-800000J0D01*
G01*
X107480000Y-109125000D02*
G75*
G03X107480000Y-109125000I-800000J0D01*
G01*
X99860000Y-71850000D02*
G75*
G03X99860000Y-71850000I-800000J0D01*
G01*
X107480000Y-86900000D02*
G75*
G03X107480000Y-86900000I-800000J0D01*
G01*
X112559110Y-130177540D02*
G75*
G03X112559110Y-130177540I-799630J0D01*
G01*
X112559110Y-107952540D02*
G75*
G03X112559110Y-107952540I-799630J0D01*
G01*
X112559110Y-85727540D02*
G75*
G03X112559110Y-85727540I-799630J0D01*
G01*
X117639110Y-116842540D02*
G75*
G03X117639110Y-116842540I-799630J0D01*
G01*
X117639110Y-94617540D02*
G75*
G03X117639110Y-94617540I-799630J0D01*
G01*
X117639110Y-72392540D02*
G75*
G03X117639110Y-72392540I-799630J0D01*
G01*
X100010000Y-132080000D02*
G75*
G03X100010000Y-132080000I-950000J0D01*
G01*
X100010000Y-109982000D02*
G75*
G03X100010000Y-109982000I-950000J0D01*
G01*
X100010000Y-87884000D02*
G75*
G03X100010000Y-87884000I-950000J0D01*
G01*
X107630000Y-70866000D02*
G75*
G03X107630000Y-70866000I-950000J0D01*
G01*
X94730000Y-127985000D02*
X94730000Y-127285000D01*
X93230000Y-127985000D02*
X93230000Y-127285000D01*
X94730000Y-127285000D02*
G75*
G03X93230000Y-127285000I-750000J0D01*
G01*
X93230000Y-127985000D02*
G75*
G03X94730000Y-127985000I750000J0D01*
G01*
X97270000Y-127985000D02*
X97270000Y-127285000D01*
X95770000Y-127985000D02*
X95770000Y-127285000D01*
X97270000Y-127285000D02*
G75*
G03X95770000Y-127285000I-750000J0D01*
G01*
X95770000Y-127985000D02*
G75*
G03X97270000Y-127985000I750000J0D01*
G01*
X99810000Y-127985000D02*
X99810000Y-127285000D01*
X98310000Y-127985000D02*
X98310000Y-127285000D01*
X99810000Y-127285000D02*
G75*
G03X98310000Y-127285000I-750000J0D01*
G01*
X98310000Y-127985000D02*
G75*
G03X99810000Y-127985000I750000J0D01*
G01*
X102350000Y-127985000D02*
X102350000Y-127285000D01*
X100850000Y-127985000D02*
X100850000Y-127285000D01*
X102350000Y-127285000D02*
G75*
G03X100850000Y-127285000I-750000J0D01*
G01*
X100850000Y-127985000D02*
G75*
G03X102350000Y-127985000I750000J0D01*
G01*
X104890000Y-127985000D02*
X104890000Y-127285000D01*
X103390000Y-127985000D02*
X103390000Y-127285000D01*
X104890000Y-127285000D02*
G75*
G03X103390000Y-127285000I-750000J0D01*
G01*
X103390000Y-127985000D02*
G75*
G03X104890000Y-127985000I750000J0D01*
G01*
X107430000Y-127985000D02*
X107430000Y-127285000D01*
X105930000Y-127985000D02*
X105930000Y-127285000D01*
X107430000Y-127285000D02*
G75*
G03X105930000Y-127285000I-750000J0D01*
G01*
X105930000Y-127985000D02*
G75*
G03X107430000Y-127985000I750000J0D01*
G01*
X109970000Y-127985000D02*
X109970000Y-127285000D01*
X108470000Y-127985000D02*
X108470000Y-127285000D01*
X109970000Y-127285000D02*
G75*
G03X108470000Y-127285000I-750000J0D01*
G01*
X108470000Y-127985000D02*
G75*
G03X109970000Y-127985000I750000J0D01*
G01*
X112510000Y-127985000D02*
X112510000Y-127285000D01*
X111010000Y-127985000D02*
X111010000Y-127285000D01*
X112510000Y-127285000D02*
G75*
G03X111010000Y-127285000I-750000J0D01*
G01*
X111010000Y-127985000D02*
G75*
G03X112510000Y-127985000I750000J0D01*
G01*
X112510000Y-120365000D02*
X112510000Y-119665000D01*
X111010000Y-120365000D02*
X111010000Y-119665000D01*
X112510000Y-119665000D02*
G75*
G03X111010000Y-119665000I-750000J0D01*
G01*
X111010000Y-120365000D02*
G75*
G03X112510000Y-120365000I750000J0D01*
G01*
X109970000Y-120365000D02*
X109970000Y-119665000D01*
X108470000Y-120365000D02*
X108470000Y-119665000D01*
X109970000Y-119665000D02*
G75*
G03X108470000Y-119665000I-750000J0D01*
G01*
X108470000Y-120365000D02*
G75*
G03X109970000Y-120365000I750000J0D01*
G01*
X107430000Y-120365000D02*
X107430000Y-119665000D01*
X105930000Y-120365000D02*
X105930000Y-119665000D01*
X107430000Y-119665000D02*
G75*
G03X105930000Y-119665000I-750000J0D01*
G01*
X105930000Y-120365000D02*
G75*
G03X107430000Y-120365000I750000J0D01*
G01*
X104890000Y-120365000D02*
X104890000Y-119665000D01*
X103390000Y-120365000D02*
X103390000Y-119665000D01*
X104890000Y-119665000D02*
G75*
G03X103390000Y-119665000I-750000J0D01*
G01*
X103390000Y-120365000D02*
G75*
G03X104890000Y-120365000I750000J0D01*
G01*
X102350000Y-120365000D02*
X102350000Y-119665000D01*
X100850000Y-120365000D02*
X100850000Y-119665000D01*
X102350000Y-119665000D02*
G75*
G03X100850000Y-119665000I-750000J0D01*
G01*
X100850000Y-120365000D02*
G75*
G03X102350000Y-120365000I750000J0D01*
G01*
X99810000Y-120365000D02*
X99810000Y-119665000D01*
X98310000Y-120365000D02*
X98310000Y-119665000D01*
X99810000Y-119665000D02*
G75*
G03X98310000Y-119665000I-750000J0D01*
G01*
X98310000Y-120365000D02*
G75*
G03X99810000Y-120365000I750000J0D01*
G01*
X97270000Y-120365000D02*
X97270000Y-119665000D01*
X95770000Y-120365000D02*
X95770000Y-119665000D01*
X97270000Y-119665000D02*
G75*
G03X95770000Y-119665000I-750000J0D01*
G01*
X95770000Y-120365000D02*
G75*
G03X97270000Y-120365000I750000J0D01*
G01*
X94730000Y-120365000D02*
X94730000Y-119665000D01*
X93230000Y-120365000D02*
X93230000Y-119665000D01*
X94730000Y-119665000D02*
G75*
G03X93230000Y-119665000I-750000J0D01*
G01*
X93230000Y-120365000D02*
G75*
G03X94730000Y-120365000I750000J0D01*
G01*
X94730000Y-105760000D02*
X94730000Y-105060000D01*
X93230000Y-105760000D02*
X93230000Y-105060000D01*
X94730000Y-105060000D02*
G75*
G03X93230000Y-105060000I-750000J0D01*
G01*
X93230000Y-105760000D02*
G75*
G03X94730000Y-105760000I750000J0D01*
G01*
X97270000Y-105760000D02*
X97270000Y-105060000D01*
X95770000Y-105760000D02*
X95770000Y-105060000D01*
X97270000Y-105060000D02*
G75*
G03X95770000Y-105060000I-750000J0D01*
G01*
X95770000Y-105760000D02*
G75*
G03X97270000Y-105760000I750000J0D01*
G01*
X99810000Y-105760000D02*
X99810000Y-105060000D01*
X98310000Y-105760000D02*
X98310000Y-105060000D01*
X99810000Y-105060000D02*
G75*
G03X98310000Y-105060000I-750000J0D01*
G01*
X98310000Y-105760000D02*
G75*
G03X99810000Y-105760000I750000J0D01*
G01*
X102350000Y-105760000D02*
X102350000Y-105060000D01*
X100850000Y-105760000D02*
X100850000Y-105060000D01*
X102350000Y-105060000D02*
G75*
G03X100850000Y-105060000I-750000J0D01*
G01*
X100850000Y-105760000D02*
G75*
G03X102350000Y-105760000I750000J0D01*
G01*
X104890000Y-105760000D02*
X104890000Y-105060000D01*
X103390000Y-105760000D02*
X103390000Y-105060000D01*
X104890000Y-105060000D02*
G75*
G03X103390000Y-105060000I-750000J0D01*
G01*
X103390000Y-105760000D02*
G75*
G03X104890000Y-105760000I750000J0D01*
G01*
X107430000Y-105760000D02*
X107430000Y-105060000D01*
X105930000Y-105760000D02*
X105930000Y-105060000D01*
X107430000Y-105060000D02*
G75*
G03X105930000Y-105060000I-750000J0D01*
G01*
X105930000Y-105760000D02*
G75*
G03X107430000Y-105760000I750000J0D01*
G01*
X109970000Y-105760000D02*
X109970000Y-105060000D01*
X108470000Y-105760000D02*
X108470000Y-105060000D01*
X109970000Y-105060000D02*
G75*
G03X108470000Y-105060000I-750000J0D01*
G01*
X108470000Y-105760000D02*
G75*
G03X109970000Y-105760000I750000J0D01*
G01*
X112510000Y-105760000D02*
X112510000Y-105060000D01*
X111010000Y-105760000D02*
X111010000Y-105060000D01*
X112510000Y-105060000D02*
G75*
G03X111010000Y-105060000I-750000J0D01*
G01*
X111010000Y-105760000D02*
G75*
G03X112510000Y-105760000I750000J0D01*
G01*
X112510000Y-98140000D02*
X112510000Y-97440000D01*
X111010000Y-98140000D02*
X111010000Y-97440000D01*
X112510000Y-97440000D02*
G75*
G03X111010000Y-97440000I-750000J0D01*
G01*
X111010000Y-98140000D02*
G75*
G03X112510000Y-98140000I750000J0D01*
G01*
X109970000Y-98140000D02*
X109970000Y-97440000D01*
X108470000Y-98140000D02*
X108470000Y-97440000D01*
X109970000Y-97440000D02*
G75*
G03X108470000Y-97440000I-750000J0D01*
G01*
X108470000Y-98140000D02*
G75*
G03X109970000Y-98140000I750000J0D01*
G01*
X107430000Y-98140000D02*
X107430000Y-97440000D01*
X105930000Y-98140000D02*
X105930000Y-97440000D01*
X107430000Y-97440000D02*
G75*
G03X105930000Y-97440000I-750000J0D01*
G01*
X105930000Y-98140000D02*
G75*
G03X107430000Y-98140000I750000J0D01*
G01*
X104890000Y-98140000D02*
X104890000Y-97440000D01*
X103390000Y-98140000D02*
X103390000Y-97440000D01*
X104890000Y-97440000D02*
G75*
G03X103390000Y-97440000I-750000J0D01*
G01*
X103390000Y-98140000D02*
G75*
G03X104890000Y-98140000I750000J0D01*
G01*
X102350000Y-98140000D02*
X102350000Y-97440000D01*
X100850000Y-98140000D02*
X100850000Y-97440000D01*
X102350000Y-97440000D02*
G75*
G03X100850000Y-97440000I-750000J0D01*
G01*
X100850000Y-98140000D02*
G75*
G03X102350000Y-98140000I750000J0D01*
G01*
X99810000Y-98140000D02*
X99810000Y-97440000D01*
X98310000Y-98140000D02*
X98310000Y-97440000D01*
X99810000Y-97440000D02*
G75*
G03X98310000Y-97440000I-750000J0D01*
G01*
X98310000Y-98140000D02*
G75*
G03X99810000Y-98140000I750000J0D01*
G01*
X97270000Y-98140000D02*
X97270000Y-97440000D01*
X95770000Y-98140000D02*
X95770000Y-97440000D01*
X97270000Y-97440000D02*
G75*
G03X95770000Y-97440000I-750000J0D01*
G01*
X95770000Y-98140000D02*
G75*
G03X97270000Y-98140000I750000J0D01*
G01*
X94730000Y-98140000D02*
X94730000Y-97440000D01*
X93230000Y-98140000D02*
X93230000Y-97440000D01*
X94730000Y-97440000D02*
G75*
G03X93230000Y-97440000I-750000J0D01*
G01*
X93230000Y-98140000D02*
G75*
G03X94730000Y-98140000I750000J0D01*
G01*
X94730000Y-83535000D02*
X94730000Y-82835000D01*
X93230000Y-83535000D02*
X93230000Y-82835000D01*
X94730000Y-82835000D02*
G75*
G03X93230000Y-82835000I-750000J0D01*
G01*
X93230000Y-83535000D02*
G75*
G03X94730000Y-83535000I750000J0D01*
G01*
X97270000Y-83535000D02*
X97270000Y-82835000D01*
X95770000Y-83535000D02*
X95770000Y-82835000D01*
X97270000Y-82835000D02*
G75*
G03X95770000Y-82835000I-750000J0D01*
G01*
X95770000Y-83535000D02*
G75*
G03X97270000Y-83535000I750000J0D01*
G01*
X99810000Y-83535000D02*
X99810000Y-82835000D01*
X98310000Y-83535000D02*
X98310000Y-82835000D01*
X99810000Y-82835000D02*
G75*
G03X98310000Y-82835000I-750000J0D01*
G01*
X98310000Y-83535000D02*
G75*
G03X99810000Y-83535000I750000J0D01*
G01*
X102350000Y-83535000D02*
X102350000Y-82835000D01*
X100850000Y-83535000D02*
X100850000Y-82835000D01*
X102350000Y-82835000D02*
G75*
G03X100850000Y-82835000I-750000J0D01*
G01*
X100850000Y-83535000D02*
G75*
G03X102350000Y-83535000I750000J0D01*
G01*
X104890000Y-83535000D02*
X104890000Y-82835000D01*
X103390000Y-83535000D02*
X103390000Y-82835000D01*
X104890000Y-82835000D02*
G75*
G03X103390000Y-82835000I-750000J0D01*
G01*
X103390000Y-83535000D02*
G75*
G03X104890000Y-83535000I750000J0D01*
G01*
X107430000Y-83535000D02*
X107430000Y-82835000D01*
X105930000Y-83535000D02*
X105930000Y-82835000D01*
X107430000Y-82835000D02*
G75*
G03X105930000Y-82835000I-750000J0D01*
G01*
X105930000Y-83535000D02*
G75*
G03X107430000Y-83535000I750000J0D01*
G01*
X109970000Y-83535000D02*
X109970000Y-82835000D01*
X108470000Y-83535000D02*
X108470000Y-82835000D01*
X109970000Y-82835000D02*
G75*
G03X108470000Y-82835000I-750000J0D01*
G01*
X108470000Y-83535000D02*
G75*
G03X109970000Y-83535000I750000J0D01*
G01*
X112510000Y-83535000D02*
X112510000Y-82835000D01*
X111010000Y-83535000D02*
X111010000Y-82835000D01*
X112510000Y-82835000D02*
G75*
G03X111010000Y-82835000I-750000J0D01*
G01*
X111010000Y-83535000D02*
G75*
G03X112510000Y-83535000I750000J0D01*
G01*
X112510000Y-75915000D02*
X112510000Y-75215000D01*
X111010000Y-75915000D02*
X111010000Y-75215000D01*
X112510000Y-75215000D02*
G75*
G03X111010000Y-75215000I-750000J0D01*
G01*
X111010000Y-75915000D02*
G75*
G03X112510000Y-75915000I750000J0D01*
G01*
X109970000Y-75915000D02*
X109970000Y-75215000D01*
X108470000Y-75915000D02*
X108470000Y-75215000D01*
X109970000Y-75215000D02*
G75*
G03X108470000Y-75215000I-750000J0D01*
G01*
X108470000Y-75915000D02*
G75*
G03X109970000Y-75915000I750000J0D01*
G01*
X107430000Y-75915000D02*
X107430000Y-75215000D01*
X105930000Y-75915000D02*
X105930000Y-75215000D01*
X107430000Y-75215000D02*
G75*
G03X105930000Y-75215000I-750000J0D01*
G01*
X105930000Y-75915000D02*
G75*
G03X107430000Y-75915000I750000J0D01*
G01*
X104890000Y-75915000D02*
X104890000Y-75215000D01*
X103390000Y-75915000D02*
X103390000Y-75215000D01*
X104890000Y-75215000D02*
G75*
G03X103390000Y-75215000I-750000J0D01*
G01*
X103390000Y-75915000D02*
G75*
G03X104890000Y-75915000I750000J0D01*
G01*
X102350000Y-75915000D02*
X102350000Y-75215000D01*
X100850000Y-75915000D02*
X100850000Y-75215000D01*
X102350000Y-75215000D02*
G75*
G03X100850000Y-75215000I-750000J0D01*
G01*
X100850000Y-75915000D02*
G75*
G03X102350000Y-75915000I750000J0D01*
G01*
X99810000Y-75915000D02*
X99810000Y-75215000D01*
X98310000Y-75915000D02*
X98310000Y-75215000D01*
X99810000Y-75215000D02*
G75*
G03X98310000Y-75215000I-750000J0D01*
G01*
X98310000Y-75915000D02*
G75*
G03X99810000Y-75915000I750000J0D01*
G01*
X97270000Y-75915000D02*
X97270000Y-75215000D01*
X95770000Y-75915000D02*
X95770000Y-75215000D01*
X97270000Y-75215000D02*
G75*
G03X95770000Y-75215000I-750000J0D01*
G01*
X95770000Y-75915000D02*
G75*
G03X97270000Y-75915000I750000J0D01*
G01*
X94730000Y-75915000D02*
X94730000Y-75215000D01*
X93230000Y-75915000D02*
X93230000Y-75215000D01*
X94730000Y-75215000D02*
G75*
G03X93230000Y-75215000I-750000J0D01*
G01*
X93230000Y-75915000D02*
G75*
G03X94730000Y-75915000I750000J0D01*
G01*
X89052400Y-121741400D02*
X88747600Y-121741400D01*
X89052400Y-123368600D02*
X88747600Y-123368600D01*
X88747600Y-121741400D02*
G75*
G03X88747600Y-123368600I0J-813600D01*
G01*
X89052400Y-123368600D02*
G75*
G03X89052400Y-121741400I0J813600D01*
G01*
X89052400Y-124281400D02*
X88747600Y-124281400D01*
X89052400Y-125908600D02*
X88747600Y-125908600D01*
X88747600Y-124281400D02*
G75*
G03X88747600Y-125908600I0J-813600D01*
G01*
X89052400Y-125908600D02*
G75*
G03X89052400Y-124281400I0J813600D01*
G01*
X89052400Y-126821400D02*
X88747600Y-126821400D01*
X89052400Y-128448600D02*
X88747600Y-128448600D01*
X88747600Y-126821400D02*
G75*
G03X88747600Y-128448600I0J-813600D01*
G01*
X89052400Y-128448600D02*
G75*
G03X89052400Y-126821400I0J813600D01*
G01*
X89052400Y-99516400D02*
X88747600Y-99516400D01*
X89052400Y-101143600D02*
X88747600Y-101143600D01*
X88747600Y-99516400D02*
G75*
G03X88747600Y-101143600I0J-813600D01*
G01*
X89052400Y-101143600D02*
G75*
G03X89052400Y-99516400I0J813600D01*
G01*
X89052400Y-102056400D02*
X88747600Y-102056400D01*
X89052400Y-103683600D02*
X88747600Y-103683600D01*
X88747600Y-102056400D02*
G75*
G03X88747600Y-103683600I0J-813600D01*
G01*
X89052400Y-103683600D02*
G75*
G03X89052400Y-102056400I0J813600D01*
G01*
X89052400Y-104596400D02*
X88747600Y-104596400D01*
X89052400Y-106223600D02*
X88747600Y-106223600D01*
X88747600Y-104596400D02*
G75*
G03X88747600Y-106223600I0J-813600D01*
G01*
X89052400Y-106223600D02*
G75*
G03X89052400Y-104596400I0J813600D01*
G01*
X89052400Y-77164400D02*
X88747600Y-77164400D01*
X89052400Y-78791600D02*
X88747600Y-78791600D01*
X88747600Y-77164400D02*
G75*
G03X88747600Y-78791600I0J-813600D01*
G01*
X89052400Y-78791600D02*
G75*
G03X89052400Y-77164400I0J813600D01*
G01*
X89052400Y-79704400D02*
X88747600Y-79704400D01*
X89052400Y-81331600D02*
X88747600Y-81331600D01*
X88747600Y-79704400D02*
G75*
G03X88747600Y-81331600I0J-813600D01*
G01*
X89052400Y-81331600D02*
G75*
G03X89052400Y-79704400I0J813600D01*
G01*
X89052400Y-82244400D02*
X88747600Y-82244400D01*
X89052400Y-83871600D02*
X88747600Y-83871600D01*
X88747600Y-82244400D02*
G75*
G03X88747600Y-83871600I0J-813600D01*
G01*
X89052400Y-83871600D02*
G75*
G03X89052400Y-82244400I0J813600D01*
G01*
X116992400Y-121614400D02*
X116687600Y-121614400D01*
X116992400Y-123241600D02*
X116687600Y-123241600D01*
X116687600Y-121614400D02*
G75*
G03X116687600Y-123241600I0J-813600D01*
G01*
X116992400Y-123241600D02*
G75*
G03X116992400Y-121614400I0J813600D01*
G01*
X116992400Y-124154400D02*
X116687600Y-124154400D01*
X116992400Y-125781600D02*
X116687600Y-125781600D01*
X116687600Y-124154400D02*
G75*
G03X116687600Y-125781600I0J-813600D01*
G01*
X116992400Y-125781600D02*
G75*
G03X116992400Y-124154400I0J813600D01*
G01*
X116992400Y-126694400D02*
X116687600Y-126694400D01*
X116992400Y-128321600D02*
X116687600Y-128321600D01*
X116687600Y-126694400D02*
G75*
G03X116687600Y-128321600I0J-813600D01*
G01*
X116992400Y-128321600D02*
G75*
G03X116992400Y-126694400I0J813600D01*
G01*
X116992400Y-99516400D02*
X116687600Y-99516400D01*
X116992400Y-101143600D02*
X116687600Y-101143600D01*
X116687600Y-99516400D02*
G75*
G03X116687600Y-101143600I0J-813600D01*
G01*
X116992400Y-101143600D02*
G75*
G03X116992400Y-99516400I0J813600D01*
G01*
X116992400Y-102056400D02*
X116687600Y-102056400D01*
X116992400Y-103683600D02*
X116687600Y-103683600D01*
X116687600Y-102056400D02*
G75*
G03X116687600Y-103683600I0J-813600D01*
G01*
X116992400Y-103683600D02*
G75*
G03X116992400Y-102056400I0J813600D01*
G01*
X116992400Y-104596400D02*
X116687600Y-104596400D01*
X116992400Y-106223600D02*
X116687600Y-106223600D01*
X116687600Y-104596400D02*
G75*
G03X116687600Y-106223600I0J-813600D01*
G01*
X116992400Y-106223600D02*
G75*
G03X116992400Y-104596400I0J813600D01*
G01*
X116992400Y-77291400D02*
X116687600Y-77291400D01*
X116992400Y-78918600D02*
X116687600Y-78918600D01*
X116687600Y-77291400D02*
G75*
G03X116687600Y-78918600I0J-813600D01*
G01*
X116992400Y-78918600D02*
G75*
G03X116992400Y-77291400I0J813600D01*
G01*
X116992400Y-79831400D02*
X116687600Y-79831400D01*
X116992400Y-81458600D02*
X116687600Y-81458600D01*
X116687600Y-79831400D02*
G75*
G03X116687600Y-81458600I0J-813600D01*
G01*
X116992400Y-81458600D02*
G75*
G03X116992400Y-79831400I0J813600D01*
G01*
X116992400Y-82371400D02*
X116687600Y-82371400D01*
X116992400Y-83998600D02*
X116687600Y-83998600D01*
X116687600Y-82371400D02*
G75*
G03X116687600Y-83998600I0J-813600D01*
G01*
X116992400Y-83998600D02*
G75*
G03X116992400Y-82371400I0J813600D01*
G01*
X107630000Y-115316000D02*
G75*
G03X107630000Y-115316000I-950000J0D01*
G01*
X107630000Y-92964000D02*
G75*
G03X107630000Y-92964000I-950000J0D01*
G01*
X85546400Y-86715600D02*
X85546400Y-87020400D01*
X87173600Y-86715600D02*
X87173600Y-87020400D01*
X85546400Y-87020400D02*
G75*
G03X87173600Y-87020400I813600J0D01*
G01*
X87173600Y-86715600D02*
G75*
G03X85546400Y-86715600I-813600J0D01*
G01*
X88086400Y-86715600D02*
X88086400Y-87020400D01*
X89713600Y-86715600D02*
X89713600Y-87020400D01*
X88086400Y-87020400D02*
G75*
G03X89713600Y-87020400I813600J0D01*
G01*
X89713600Y-86715600D02*
G75*
G03X88086400Y-86715600I-813600J0D01*
G01*
X85546400Y-90271600D02*
X85546400Y-90576400D01*
X87173600Y-90271600D02*
X87173600Y-90576400D01*
X85546400Y-90576400D02*
G75*
G03X87173600Y-90576400I813600J0D01*
G01*
X87173600Y-90271600D02*
G75*
G03X85546400Y-90271600I-813600J0D01*
G01*
X88086400Y-90271600D02*
X88086400Y-90576400D01*
X89713600Y-90271600D02*
X89713600Y-90576400D01*
X88086400Y-90576400D02*
G75*
G03X89713600Y-90576400I813600J0D01*
G01*
X89713600Y-90271600D02*
G75*
G03X88086400Y-90271600I-813600J0D01*
G01*
X85546400Y-93827600D02*
X85546400Y-94132400D01*
X87173600Y-93827600D02*
X87173600Y-94132400D01*
X85546400Y-94132400D02*
G75*
G03X87173600Y-94132400I813600J0D01*
G01*
X87173600Y-93827600D02*
G75*
G03X85546400Y-93827600I-813600J0D01*
G01*
X88086400Y-93827600D02*
X88086400Y-94132400D01*
X89713600Y-93827600D02*
X89713600Y-94132400D01*
X88086400Y-94132400D02*
G75*
G03X89713600Y-94132400I813600J0D01*
G01*
X89713600Y-93827600D02*
G75*
G03X88086400Y-93827600I-813600J0D01*
G01*
D13*
X96649000Y-113043857D02*
X96613286Y-113079571D01*
X96506143Y-113115286D01*
X96434714Y-113115286D01*
X96327571Y-113079571D01*
X96256143Y-113008143D01*
X96220428Y-112936714D01*
X96184714Y-112793857D01*
X96184714Y-112686714D01*
X96220428Y-112543857D01*
X96256143Y-112472429D01*
X96327571Y-112401000D01*
X96434714Y-112365286D01*
X96506143Y-112365286D01*
X96613286Y-112401000D01*
X96649000Y-112436714D01*
X97363286Y-113115286D02*
X96934714Y-113115286D01*
X97149000Y-113115286D02*
X97149000Y-112365286D01*
X97077571Y-112472429D01*
X97006143Y-112543857D01*
X96934714Y-112579571D01*
X96268000Y-90691857D02*
X96232286Y-90727571D01*
X96125143Y-90763286D01*
X96053714Y-90763286D01*
X95946571Y-90727571D01*
X95875143Y-90656143D01*
X95839428Y-90584714D01*
X95803714Y-90441857D01*
X95803714Y-90334714D01*
X95839428Y-90191857D01*
X95875143Y-90120429D01*
X95946571Y-90049000D01*
X96053714Y-90013286D01*
X96125143Y-90013286D01*
X96232286Y-90049000D01*
X96268000Y-90084714D01*
X96553714Y-90084714D02*
X96589428Y-90049000D01*
X96660857Y-90013286D01*
X96839428Y-90013286D01*
X96910857Y-90049000D01*
X96946571Y-90084714D01*
X96982286Y-90156143D01*
X96982286Y-90227571D01*
X96946571Y-90334714D01*
X96518000Y-90763286D01*
X96982286Y-90763286D01*
X109730000Y-130442857D02*
X109694286Y-130478571D01*
X109587143Y-130514286D01*
X109515714Y-130514286D01*
X109408571Y-130478571D01*
X109337143Y-130407143D01*
X109301428Y-130335714D01*
X109265714Y-130192857D01*
X109265714Y-130085714D01*
X109301428Y-129942857D01*
X109337143Y-129871429D01*
X109408571Y-129800000D01*
X109515714Y-129764286D01*
X109587143Y-129764286D01*
X109694286Y-129800000D01*
X109730000Y-129835714D01*
X109980000Y-129764286D02*
X110444286Y-129764286D01*
X110194286Y-130050000D01*
X110301428Y-130050000D01*
X110372857Y-130085714D01*
X110408571Y-130121429D01*
X110444286Y-130192857D01*
X110444286Y-130371429D01*
X110408571Y-130442857D01*
X110372857Y-130478571D01*
X110301428Y-130514286D01*
X110087143Y-130514286D01*
X110015714Y-130478571D01*
X109980000Y-130442857D01*
X109349000Y-108471857D02*
X109313286Y-108507571D01*
X109206143Y-108543286D01*
X109134714Y-108543286D01*
X109027571Y-108507571D01*
X108956143Y-108436143D01*
X108920428Y-108364714D01*
X108884714Y-108221857D01*
X108884714Y-108114714D01*
X108920428Y-107971857D01*
X108956143Y-107900429D01*
X109027571Y-107829000D01*
X109134714Y-107793286D01*
X109206143Y-107793286D01*
X109313286Y-107829000D01*
X109349000Y-107864714D01*
X109991857Y-108043286D02*
X109991857Y-108543286D01*
X109813286Y-107757571D02*
X109634714Y-108293286D01*
X110099000Y-108293286D01*
X96395000Y-68593857D02*
X96359286Y-68629571D01*
X96252143Y-68665286D01*
X96180714Y-68665286D01*
X96073571Y-68629571D01*
X96002143Y-68558143D01*
X95966428Y-68486714D01*
X95930714Y-68343857D01*
X95930714Y-68236714D01*
X95966428Y-68093857D01*
X96002143Y-68022429D01*
X96073571Y-67951000D01*
X96180714Y-67915286D01*
X96252143Y-67915286D01*
X96359286Y-67951000D01*
X96395000Y-67986714D01*
X97073571Y-67915286D02*
X96716428Y-67915286D01*
X96680714Y-68272429D01*
X96716428Y-68236714D01*
X96787857Y-68201000D01*
X96966428Y-68201000D01*
X97037857Y-68236714D01*
X97073571Y-68272429D01*
X97109286Y-68343857D01*
X97109286Y-68522429D01*
X97073571Y-68593857D01*
X97037857Y-68629571D01*
X96966428Y-68665286D01*
X96787857Y-68665286D01*
X96716428Y-68629571D01*
X96680714Y-68593857D01*
X109349000Y-86119857D02*
X109313286Y-86155571D01*
X109206143Y-86191286D01*
X109134714Y-86191286D01*
X109027571Y-86155571D01*
X108956143Y-86084143D01*
X108920428Y-86012714D01*
X108884714Y-85869857D01*
X108884714Y-85762714D01*
X108920428Y-85619857D01*
X108956143Y-85548429D01*
X109027571Y-85477000D01*
X109134714Y-85441286D01*
X109206143Y-85441286D01*
X109313286Y-85477000D01*
X109349000Y-85512714D01*
X109991857Y-85441286D02*
X109849000Y-85441286D01*
X109777571Y-85477000D01*
X109741857Y-85512714D01*
X109670428Y-85619857D01*
X109634714Y-85762714D01*
X109634714Y-86048429D01*
X109670428Y-86119857D01*
X109706143Y-86155571D01*
X109777571Y-86191286D01*
X109920428Y-86191286D01*
X109991857Y-86155571D01*
X110027571Y-86119857D01*
X110063286Y-86048429D01*
X110063286Y-85869857D01*
X110027571Y-85798429D01*
X109991857Y-85762714D01*
X109920428Y-85727000D01*
X109777571Y-85727000D01*
X109706143Y-85762714D01*
X109670428Y-85798429D01*
X109634714Y-85869857D01*
X116101905Y-130627381D02*
X116101905Y-129627381D01*
X116340000Y-129627381D01*
X116482858Y-129675000D01*
X116578096Y-129770238D01*
X116625715Y-129865476D01*
X116673334Y-130055952D01*
X116673334Y-130198810D01*
X116625715Y-130389286D01*
X116578096Y-130484524D01*
X116482858Y-130579762D01*
X116340000Y-130627381D01*
X116101905Y-130627381D01*
X117625715Y-130627381D02*
X117054286Y-130627381D01*
X117340000Y-130627381D02*
X117340000Y-129627381D01*
X117244762Y-129770238D01*
X117149524Y-129865476D01*
X117054286Y-129913095D01*
X116101905Y-108402381D02*
X116101905Y-107402381D01*
X116340000Y-107402381D01*
X116482858Y-107450000D01*
X116578096Y-107545238D01*
X116625715Y-107640476D01*
X116673334Y-107830952D01*
X116673334Y-107973810D01*
X116625715Y-108164286D01*
X116578096Y-108259524D01*
X116482858Y-108354762D01*
X116340000Y-108402381D01*
X116101905Y-108402381D01*
X117054286Y-107497619D02*
X117101905Y-107450000D01*
X117197143Y-107402381D01*
X117435239Y-107402381D01*
X117530477Y-107450000D01*
X117578096Y-107497619D01*
X117625715Y-107592857D01*
X117625715Y-107688095D01*
X117578096Y-107830952D01*
X117006667Y-108402381D01*
X117625715Y-108402381D01*
X116101905Y-86177381D02*
X116101905Y-85177381D01*
X116340000Y-85177381D01*
X116482858Y-85225000D01*
X116578096Y-85320238D01*
X116625715Y-85415476D01*
X116673334Y-85605952D01*
X116673334Y-85748810D01*
X116625715Y-85939286D01*
X116578096Y-86034524D01*
X116482858Y-86129762D01*
X116340000Y-86177381D01*
X116101905Y-86177381D01*
X117006667Y-85177381D02*
X117625715Y-85177381D01*
X117292381Y-85558333D01*
X117435239Y-85558333D01*
X117530477Y-85605952D01*
X117578096Y-85653571D01*
X117625715Y-85748810D01*
X117625715Y-85986905D01*
X117578096Y-86082143D01*
X117530477Y-86129762D01*
X117435239Y-86177381D01*
X117149524Y-86177381D01*
X117054286Y-86129762D01*
X117006667Y-86082143D01*
X121181905Y-117292381D02*
X121181905Y-116292381D01*
X121420000Y-116292381D01*
X121562858Y-116340000D01*
X121658096Y-116435238D01*
X121705715Y-116530476D01*
X121753334Y-116720952D01*
X121753334Y-116863810D01*
X121705715Y-117054286D01*
X121658096Y-117149524D01*
X121562858Y-117244762D01*
X121420000Y-117292381D01*
X121181905Y-117292381D01*
X122610477Y-116625714D02*
X122610477Y-117292381D01*
X122372381Y-116244762D02*
X122134286Y-116959048D01*
X122753334Y-116959048D01*
X121181905Y-95067381D02*
X121181905Y-94067381D01*
X121420000Y-94067381D01*
X121562858Y-94115000D01*
X121658096Y-94210238D01*
X121705715Y-94305476D01*
X121753334Y-94495952D01*
X121753334Y-94638810D01*
X121705715Y-94829286D01*
X121658096Y-94924524D01*
X121562858Y-95019762D01*
X121420000Y-95067381D01*
X121181905Y-95067381D01*
X122658096Y-94067381D02*
X122181905Y-94067381D01*
X122134286Y-94543571D01*
X122181905Y-94495952D01*
X122277143Y-94448333D01*
X122515239Y-94448333D01*
X122610477Y-94495952D01*
X122658096Y-94543571D01*
X122705715Y-94638810D01*
X122705715Y-94876905D01*
X122658096Y-94972143D01*
X122610477Y-95019762D01*
X122515239Y-95067381D01*
X122277143Y-95067381D01*
X122181905Y-95019762D01*
X122134286Y-94972143D01*
X121181905Y-72842381D02*
X121181905Y-71842381D01*
X121420000Y-71842381D01*
X121562858Y-71890000D01*
X121658096Y-71985238D01*
X121705715Y-72080476D01*
X121753334Y-72270952D01*
X121753334Y-72413810D01*
X121705715Y-72604286D01*
X121658096Y-72699524D01*
X121562858Y-72794762D01*
X121420000Y-72842381D01*
X121181905Y-72842381D01*
X122610477Y-71842381D02*
X122420000Y-71842381D01*
X122324762Y-71890000D01*
X122277143Y-71937619D01*
X122181905Y-72080476D01*
X122134286Y-72270952D01*
X122134286Y-72651905D01*
X122181905Y-72747143D01*
X122229524Y-72794762D01*
X122324762Y-72842381D01*
X122515239Y-72842381D01*
X122610477Y-72794762D01*
X122658096Y-72747143D01*
X122705715Y-72651905D01*
X122705715Y-72413810D01*
X122658096Y-72318571D01*
X122610477Y-72270952D01*
X122515239Y-72223333D01*
X122324762Y-72223333D01*
X122229524Y-72270952D01*
X122181905Y-72318571D01*
X122134286Y-72413810D01*
D11*
X99960953Y-129766190D02*
X99960953Y-129266190D01*
X100080000Y-129266190D01*
X100151429Y-129290000D01*
X100199048Y-129337619D01*
X100222857Y-129385238D01*
X100246667Y-129480476D01*
X100246667Y-129551905D01*
X100222857Y-129647143D01*
X100199048Y-129694762D01*
X100151429Y-129742381D01*
X100080000Y-129766190D01*
X99960953Y-129766190D01*
X100413334Y-129266190D02*
X100746667Y-129266190D01*
X100532381Y-129766190D01*
X102993048Y-132306190D02*
X102993048Y-131806190D01*
X103278762Y-132306190D02*
X103064476Y-132020476D01*
X103278762Y-131806190D02*
X102993048Y-132091905D01*
X99960953Y-107541190D02*
X99960953Y-107041190D01*
X100080000Y-107041190D01*
X100151429Y-107065000D01*
X100199048Y-107112619D01*
X100222857Y-107160238D01*
X100246667Y-107255476D01*
X100246667Y-107326905D01*
X100222857Y-107422143D01*
X100199048Y-107469762D01*
X100151429Y-107517381D01*
X100080000Y-107541190D01*
X99960953Y-107541190D01*
X100532381Y-107255476D02*
X100484762Y-107231667D01*
X100460953Y-107207857D01*
X100437143Y-107160238D01*
X100437143Y-107136429D01*
X100460953Y-107088810D01*
X100484762Y-107065000D01*
X100532381Y-107041190D01*
X100627619Y-107041190D01*
X100675238Y-107065000D01*
X100699048Y-107088810D01*
X100722857Y-107136429D01*
X100722857Y-107160238D01*
X100699048Y-107207857D01*
X100675238Y-107231667D01*
X100627619Y-107255476D01*
X100532381Y-107255476D01*
X100484762Y-107279286D01*
X100460953Y-107303095D01*
X100437143Y-107350714D01*
X100437143Y-107445952D01*
X100460953Y-107493571D01*
X100484762Y-107517381D01*
X100532381Y-107541190D01*
X100627619Y-107541190D01*
X100675238Y-107517381D01*
X100699048Y-107493571D01*
X100722857Y-107445952D01*
X100722857Y-107350714D01*
X100699048Y-107303095D01*
X100675238Y-107279286D01*
X100627619Y-107255476D01*
X102993048Y-110208190D02*
X102993048Y-109708190D01*
X103278762Y-110208190D02*
X103064476Y-109922476D01*
X103278762Y-109708190D02*
X102993048Y-109993905D01*
X99722858Y-85570190D02*
X99722858Y-85070190D01*
X99841905Y-85070190D01*
X99913334Y-85094000D01*
X99960953Y-85141619D01*
X99984762Y-85189238D01*
X100008572Y-85284476D01*
X100008572Y-85355905D01*
X99984762Y-85451143D01*
X99960953Y-85498762D01*
X99913334Y-85546381D01*
X99841905Y-85570190D01*
X99722858Y-85570190D01*
X100484762Y-85570190D02*
X100199048Y-85570190D01*
X100341905Y-85570190D02*
X100341905Y-85070190D01*
X100294286Y-85141619D01*
X100246667Y-85189238D01*
X100199048Y-85213048D01*
X100960952Y-85570190D02*
X100675238Y-85570190D01*
X100818095Y-85570190D02*
X100818095Y-85070190D01*
X100770476Y-85141619D01*
X100722857Y-85189238D01*
X100675238Y-85213048D01*
X102993048Y-88110190D02*
X102993048Y-87610190D01*
X103278762Y-88110190D02*
X103064476Y-87824476D01*
X103278762Y-87610190D02*
X102993048Y-87895905D01*
X104802858Y-73632190D02*
X104802858Y-73132190D01*
X104921905Y-73132190D01*
X104993334Y-73156000D01*
X105040953Y-73203619D01*
X105064762Y-73251238D01*
X105088572Y-73346476D01*
X105088572Y-73417905D01*
X105064762Y-73513143D01*
X105040953Y-73560762D01*
X104993334Y-73608381D01*
X104921905Y-73632190D01*
X104802858Y-73632190D01*
X105564762Y-73632190D02*
X105279048Y-73632190D01*
X105421905Y-73632190D02*
X105421905Y-73132190D01*
X105374286Y-73203619D01*
X105326667Y-73251238D01*
X105279048Y-73275048D01*
X105755238Y-73179810D02*
X105779048Y-73156000D01*
X105826667Y-73132190D01*
X105945714Y-73132190D01*
X105993333Y-73156000D01*
X106017143Y-73179810D01*
X106040952Y-73227429D01*
X106040952Y-73275048D01*
X106017143Y-73346476D01*
X105731429Y-73632190D01*
X106040952Y-73632190D01*
X102485048Y-71092190D02*
X102485048Y-70592190D01*
X102770762Y-71092190D02*
X102556476Y-70806476D01*
X102770762Y-70592190D02*
X102485048Y-70877905D01*
D13*
X93003810Y-123007381D02*
X93003810Y-122007381D01*
X94051429Y-122912143D02*
X94003810Y-122959762D01*
X93860953Y-123007381D01*
X93765715Y-123007381D01*
X93622857Y-122959762D01*
X93527619Y-122864524D01*
X93480000Y-122769286D01*
X93432381Y-122578810D01*
X93432381Y-122435952D01*
X93480000Y-122245476D01*
X93527619Y-122150238D01*
X93622857Y-122055000D01*
X93765715Y-122007381D01*
X93860953Y-122007381D01*
X94003810Y-122055000D01*
X94051429Y-122102619D01*
X95003810Y-123007381D02*
X94432381Y-123007381D01*
X94718095Y-123007381D02*
X94718095Y-122007381D01*
X94622857Y-122150238D01*
X94527619Y-122245476D01*
X94432381Y-122293095D01*
X93003810Y-100782381D02*
X93003810Y-99782381D01*
X94051429Y-100687143D02*
X94003810Y-100734762D01*
X93860953Y-100782381D01*
X93765715Y-100782381D01*
X93622857Y-100734762D01*
X93527619Y-100639524D01*
X93480000Y-100544286D01*
X93432381Y-100353810D01*
X93432381Y-100210952D01*
X93480000Y-100020476D01*
X93527619Y-99925238D01*
X93622857Y-99830000D01*
X93765715Y-99782381D01*
X93860953Y-99782381D01*
X94003810Y-99830000D01*
X94051429Y-99877619D01*
X94432381Y-99877619D02*
X94480000Y-99830000D01*
X94575238Y-99782381D01*
X94813334Y-99782381D01*
X94908572Y-99830000D01*
X94956191Y-99877619D01*
X95003810Y-99972857D01*
X95003810Y-100068095D01*
X94956191Y-100210952D01*
X94384762Y-100782381D01*
X95003810Y-100782381D01*
X93003810Y-78557381D02*
X93003810Y-77557381D01*
X94051429Y-78462143D02*
X94003810Y-78509762D01*
X93860953Y-78557381D01*
X93765715Y-78557381D01*
X93622857Y-78509762D01*
X93527619Y-78414524D01*
X93480000Y-78319286D01*
X93432381Y-78128810D01*
X93432381Y-77985952D01*
X93480000Y-77795476D01*
X93527619Y-77700238D01*
X93622857Y-77605000D01*
X93765715Y-77557381D01*
X93860953Y-77557381D01*
X94003810Y-77605000D01*
X94051429Y-77652619D01*
X94384762Y-77557381D02*
X95003810Y-77557381D01*
X94670476Y-77938333D01*
X94813334Y-77938333D01*
X94908572Y-77985952D01*
X94956191Y-78033571D01*
X95003810Y-78128810D01*
X95003810Y-78366905D01*
X94956191Y-78462143D01*
X94908572Y-78509762D01*
X94813334Y-78557381D01*
X94527619Y-78557381D01*
X94432381Y-78509762D01*
X94384762Y-78462143D01*
X88161905Y-117927381D02*
X88161905Y-116927381D01*
X88542858Y-116927381D01*
X88638096Y-116975000D01*
X88685715Y-117022619D01*
X88733334Y-117117857D01*
X88733334Y-117260714D01*
X88685715Y-117355952D01*
X88638096Y-117403571D01*
X88542858Y-117451190D01*
X88161905Y-117451190D01*
X89685715Y-117927381D02*
X89114286Y-117927381D01*
X89400000Y-117927381D02*
X89400000Y-116927381D01*
X89304762Y-117070238D01*
X89209524Y-117165476D01*
X89114286Y-117213095D01*
X91336905Y-97607381D02*
X91336905Y-96607381D01*
X91717858Y-96607381D01*
X91813096Y-96655000D01*
X91860715Y-96702619D01*
X91908334Y-96797857D01*
X91908334Y-96940714D01*
X91860715Y-97035952D01*
X91813096Y-97083571D01*
X91717858Y-97131190D01*
X91336905Y-97131190D01*
X92289286Y-96702619D02*
X92336905Y-96655000D01*
X92432143Y-96607381D01*
X92670239Y-96607381D01*
X92765477Y-96655000D01*
X92813096Y-96702619D01*
X92860715Y-96797857D01*
X92860715Y-96893095D01*
X92813096Y-97035952D01*
X92241667Y-97607381D01*
X92860715Y-97607381D01*
X88161905Y-73350381D02*
X88161905Y-72350381D01*
X88542858Y-72350381D01*
X88638096Y-72398000D01*
X88685715Y-72445619D01*
X88733334Y-72540857D01*
X88733334Y-72683714D01*
X88685715Y-72778952D01*
X88638096Y-72826571D01*
X88542858Y-72874190D01*
X88161905Y-72874190D01*
X89066667Y-72350381D02*
X89685715Y-72350381D01*
X89352381Y-72731333D01*
X89495239Y-72731333D01*
X89590477Y-72778952D01*
X89638096Y-72826571D01*
X89685715Y-72921810D01*
X89685715Y-73159905D01*
X89638096Y-73255143D01*
X89590477Y-73302762D01*
X89495239Y-73350381D01*
X89209524Y-73350381D01*
X89114286Y-73302762D01*
X89066667Y-73255143D01*
X119276905Y-120340381D02*
X119276905Y-119340381D01*
X119657858Y-119340381D01*
X119753096Y-119388000D01*
X119800715Y-119435619D01*
X119848334Y-119530857D01*
X119848334Y-119673714D01*
X119800715Y-119768952D01*
X119753096Y-119816571D01*
X119657858Y-119864190D01*
X119276905Y-119864190D01*
X120705477Y-119673714D02*
X120705477Y-120340381D01*
X120467381Y-119292762D02*
X120229286Y-120007048D01*
X120848334Y-120007048D01*
X119276905Y-98242381D02*
X119276905Y-97242381D01*
X119657858Y-97242381D01*
X119753096Y-97290000D01*
X119800715Y-97337619D01*
X119848334Y-97432857D01*
X119848334Y-97575714D01*
X119800715Y-97670952D01*
X119753096Y-97718571D01*
X119657858Y-97766190D01*
X119276905Y-97766190D01*
X120753096Y-97242381D02*
X120276905Y-97242381D01*
X120229286Y-97718571D01*
X120276905Y-97670952D01*
X120372143Y-97623333D01*
X120610239Y-97623333D01*
X120705477Y-97670952D01*
X120753096Y-97718571D01*
X120800715Y-97813810D01*
X120800715Y-98051905D01*
X120753096Y-98147143D01*
X120705477Y-98194762D01*
X120610239Y-98242381D01*
X120372143Y-98242381D01*
X120276905Y-98194762D01*
X120229286Y-98147143D01*
X118895905Y-75890381D02*
X118895905Y-74890381D01*
X119276858Y-74890381D01*
X119372096Y-74938000D01*
X119419715Y-74985619D01*
X119467334Y-75080857D01*
X119467334Y-75223714D01*
X119419715Y-75318952D01*
X119372096Y-75366571D01*
X119276858Y-75414190D01*
X118895905Y-75414190D01*
X120324477Y-74890381D02*
X120134000Y-74890381D01*
X120038762Y-74938000D01*
X119991143Y-74985619D01*
X119895905Y-75128476D01*
X119848286Y-75318952D01*
X119848286Y-75699905D01*
X119895905Y-75795143D01*
X119943524Y-75842762D01*
X120038762Y-75890381D01*
X120229239Y-75890381D01*
X120324477Y-75842762D01*
X120372096Y-75795143D01*
X120419715Y-75699905D01*
X120419715Y-75461810D01*
X120372096Y-75366571D01*
X120324477Y-75318952D01*
X120229239Y-75271333D01*
X120038762Y-75271333D01*
X119943524Y-75318952D01*
X119895905Y-75366571D01*
X119848286Y-75461810D01*
D11*
X95476190Y-132163333D02*
X95238095Y-132330000D01*
X95476190Y-132449047D02*
X94976190Y-132449047D01*
X94976190Y-132258571D01*
X95000000Y-132210952D01*
X95023810Y-132187143D01*
X95071429Y-132163333D01*
X95142857Y-132163333D01*
X95190476Y-132187143D01*
X95214286Y-132210952D01*
X95238095Y-132258571D01*
X95238095Y-132449047D01*
X95023810Y-131972857D02*
X95000000Y-131949047D01*
X94976190Y-131901428D01*
X94976190Y-131782381D01*
X95000000Y-131734762D01*
X95023810Y-131710952D01*
X95071429Y-131687143D01*
X95119048Y-131687143D01*
X95190476Y-131710952D01*
X95476190Y-131996666D01*
X95476190Y-131687143D01*
X95476190Y-110065333D02*
X95238095Y-110232000D01*
X95476190Y-110351047D02*
X94976190Y-110351047D01*
X94976190Y-110160571D01*
X95000000Y-110112952D01*
X95023810Y-110089143D01*
X95071429Y-110065333D01*
X95142857Y-110065333D01*
X95190476Y-110089143D01*
X95214286Y-110112952D01*
X95238095Y-110160571D01*
X95238095Y-110351047D01*
X94976190Y-109898666D02*
X94976190Y-109589143D01*
X95166667Y-109755809D01*
X95166667Y-109684381D01*
X95190476Y-109636762D01*
X95214286Y-109612952D01*
X95261905Y-109589143D01*
X95380952Y-109589143D01*
X95428571Y-109612952D01*
X95452381Y-109636762D01*
X95476190Y-109684381D01*
X95476190Y-109827238D01*
X95452381Y-109874857D01*
X95428571Y-109898666D01*
X94206190Y-114383333D02*
X93968095Y-114550000D01*
X94206190Y-114669047D02*
X93706190Y-114669047D01*
X93706190Y-114478571D01*
X93730000Y-114430952D01*
X93753810Y-114407143D01*
X93801429Y-114383333D01*
X93872857Y-114383333D01*
X93920476Y-114407143D01*
X93944286Y-114430952D01*
X93968095Y-114478571D01*
X93968095Y-114669047D01*
X93872857Y-113954762D02*
X94206190Y-113954762D01*
X93682381Y-114073809D02*
X94039524Y-114192857D01*
X94039524Y-113883333D01*
X94206190Y-92158333D02*
X93968095Y-92325000D01*
X94206190Y-92444047D02*
X93706190Y-92444047D01*
X93706190Y-92253571D01*
X93730000Y-92205952D01*
X93753810Y-92182143D01*
X93801429Y-92158333D01*
X93872857Y-92158333D01*
X93920476Y-92182143D01*
X93944286Y-92205952D01*
X93968095Y-92253571D01*
X93968095Y-92444047D01*
X93706190Y-91705952D02*
X93706190Y-91944047D01*
X93944286Y-91967857D01*
X93920476Y-91944047D01*
X93896667Y-91896428D01*
X93896667Y-91777381D01*
X93920476Y-91729762D01*
X93944286Y-91705952D01*
X93991905Y-91682143D01*
X94110952Y-91682143D01*
X94158571Y-91705952D01*
X94182381Y-91729762D01*
X94206190Y-91777381D01*
X94206190Y-91896428D01*
X94182381Y-91944047D01*
X94158571Y-91967857D01*
X111986190Y-133433333D02*
X111748095Y-133600000D01*
X111986190Y-133719047D02*
X111486190Y-133719047D01*
X111486190Y-133528571D01*
X111510000Y-133480952D01*
X111533810Y-133457143D01*
X111581429Y-133433333D01*
X111652857Y-133433333D01*
X111700476Y-133457143D01*
X111724286Y-133480952D01*
X111748095Y-133528571D01*
X111748095Y-133719047D01*
X111486190Y-133004762D02*
X111486190Y-133100000D01*
X111510000Y-133147619D01*
X111533810Y-133171428D01*
X111605238Y-133219047D01*
X111700476Y-133242857D01*
X111890952Y-133242857D01*
X111938571Y-133219047D01*
X111962381Y-133195238D01*
X111986190Y-133147619D01*
X111986190Y-133052381D01*
X111962381Y-133004762D01*
X111938571Y-132980952D01*
X111890952Y-132957143D01*
X111771905Y-132957143D01*
X111724286Y-132980952D01*
X111700476Y-133004762D01*
X111676667Y-133052381D01*
X111676667Y-133147619D01*
X111700476Y-133195238D01*
X111724286Y-133219047D01*
X111771905Y-133242857D01*
X111986190Y-111208333D02*
X111748095Y-111375000D01*
X111986190Y-111494047D02*
X111486190Y-111494047D01*
X111486190Y-111303571D01*
X111510000Y-111255952D01*
X111533810Y-111232143D01*
X111581429Y-111208333D01*
X111652857Y-111208333D01*
X111700476Y-111232143D01*
X111724286Y-111255952D01*
X111748095Y-111303571D01*
X111748095Y-111494047D01*
X111486190Y-111041666D02*
X111486190Y-110708333D01*
X111986190Y-110922619D01*
X110716190Y-115399333D02*
X110478095Y-115566000D01*
X110716190Y-115685047D02*
X110216190Y-115685047D01*
X110216190Y-115494571D01*
X110240000Y-115446952D01*
X110263810Y-115423143D01*
X110311429Y-115399333D01*
X110382857Y-115399333D01*
X110430476Y-115423143D01*
X110454286Y-115446952D01*
X110478095Y-115494571D01*
X110478095Y-115685047D01*
X110430476Y-115113619D02*
X110406667Y-115161238D01*
X110382857Y-115185047D01*
X110335238Y-115208857D01*
X110311429Y-115208857D01*
X110263810Y-115185047D01*
X110240000Y-115161238D01*
X110216190Y-115113619D01*
X110216190Y-115018381D01*
X110240000Y-114970762D01*
X110263810Y-114946952D01*
X110311429Y-114923143D01*
X110335238Y-114923143D01*
X110382857Y-114946952D01*
X110406667Y-114970762D01*
X110430476Y-115018381D01*
X110430476Y-115113619D01*
X110454286Y-115161238D01*
X110478095Y-115185047D01*
X110525714Y-115208857D01*
X110620952Y-115208857D01*
X110668571Y-115185047D01*
X110692381Y-115161238D01*
X110716190Y-115113619D01*
X110716190Y-115018381D01*
X110692381Y-114970762D01*
X110668571Y-114946952D01*
X110620952Y-114923143D01*
X110525714Y-114923143D01*
X110478095Y-114946952D01*
X110454286Y-114970762D01*
X110430476Y-115018381D01*
X110716190Y-93047333D02*
X110478095Y-93214000D01*
X110716190Y-93333047D02*
X110216190Y-93333047D01*
X110216190Y-93142571D01*
X110240000Y-93094952D01*
X110263810Y-93071143D01*
X110311429Y-93047333D01*
X110382857Y-93047333D01*
X110430476Y-93071143D01*
X110454286Y-93094952D01*
X110478095Y-93142571D01*
X110478095Y-93333047D01*
X110716190Y-92809238D02*
X110716190Y-92714000D01*
X110692381Y-92666381D01*
X110668571Y-92642571D01*
X110597143Y-92594952D01*
X110501905Y-92571143D01*
X110311429Y-92571143D01*
X110263810Y-92594952D01*
X110240000Y-92618762D01*
X110216190Y-92666381D01*
X110216190Y-92761619D01*
X110240000Y-92809238D01*
X110263810Y-92833047D01*
X110311429Y-92856857D01*
X110430476Y-92856857D01*
X110478095Y-92833047D01*
X110501905Y-92809238D01*
X110525714Y-92761619D01*
X110525714Y-92666381D01*
X110501905Y-92618762D01*
X110478095Y-92594952D01*
X110430476Y-92571143D01*
X95476190Y-88205428D02*
X95238095Y-88372095D01*
X95476190Y-88491142D02*
X94976190Y-88491142D01*
X94976190Y-88300666D01*
X95000000Y-88253047D01*
X95023810Y-88229238D01*
X95071429Y-88205428D01*
X95142857Y-88205428D01*
X95190476Y-88229238D01*
X95214286Y-88253047D01*
X95238095Y-88300666D01*
X95238095Y-88491142D01*
X95476190Y-87729238D02*
X95476190Y-88014952D01*
X95476190Y-87872095D02*
X94976190Y-87872095D01*
X95047619Y-87919714D01*
X95095238Y-87967333D01*
X95119048Y-88014952D01*
X94976190Y-87419714D02*
X94976190Y-87372095D01*
X95000000Y-87324476D01*
X95023810Y-87300667D01*
X95071429Y-87276857D01*
X95166667Y-87253048D01*
X95285714Y-87253048D01*
X95380952Y-87276857D01*
X95428571Y-87300667D01*
X95452381Y-87324476D01*
X95476190Y-87372095D01*
X95476190Y-87419714D01*
X95452381Y-87467333D01*
X95428571Y-87491143D01*
X95380952Y-87514952D01*
X95285714Y-87538762D01*
X95166667Y-87538762D01*
X95071429Y-87514952D01*
X95023810Y-87491143D01*
X95000000Y-87467333D01*
X94976190Y-87419714D01*
X94206190Y-70171428D02*
X93968095Y-70338095D01*
X94206190Y-70457142D02*
X93706190Y-70457142D01*
X93706190Y-70266666D01*
X93730000Y-70219047D01*
X93753810Y-70195238D01*
X93801429Y-70171428D01*
X93872857Y-70171428D01*
X93920476Y-70195238D01*
X93944286Y-70219047D01*
X93968095Y-70266666D01*
X93968095Y-70457142D01*
X94206190Y-69695238D02*
X94206190Y-69980952D01*
X94206190Y-69838095D02*
X93706190Y-69838095D01*
X93777619Y-69885714D01*
X93825238Y-69933333D01*
X93849048Y-69980952D01*
X94206190Y-69219048D02*
X94206190Y-69504762D01*
X94206190Y-69361905D02*
X93706190Y-69361905D01*
X93777619Y-69409524D01*
X93825238Y-69457143D01*
X93849048Y-69504762D01*
X111986190Y-89221428D02*
X111748095Y-89388095D01*
X111986190Y-89507142D02*
X111486190Y-89507142D01*
X111486190Y-89316666D01*
X111510000Y-89269047D01*
X111533810Y-89245238D01*
X111581429Y-89221428D01*
X111652857Y-89221428D01*
X111700476Y-89245238D01*
X111724286Y-89269047D01*
X111748095Y-89316666D01*
X111748095Y-89507142D01*
X111986190Y-88745238D02*
X111986190Y-89030952D01*
X111986190Y-88888095D02*
X111486190Y-88888095D01*
X111557619Y-88935714D01*
X111605238Y-88983333D01*
X111629048Y-89030952D01*
X111533810Y-88554762D02*
X111510000Y-88530952D01*
X111486190Y-88483333D01*
X111486190Y-88364286D01*
X111510000Y-88316667D01*
X111533810Y-88292857D01*
X111581429Y-88269048D01*
X111629048Y-88269048D01*
X111700476Y-88292857D01*
X111986190Y-88578571D01*
X111986190Y-88269048D01*
X110716190Y-71187428D02*
X110478095Y-71354095D01*
X110716190Y-71473142D02*
X110216190Y-71473142D01*
X110216190Y-71282666D01*
X110240000Y-71235047D01*
X110263810Y-71211238D01*
X110311429Y-71187428D01*
X110382857Y-71187428D01*
X110430476Y-71211238D01*
X110454286Y-71235047D01*
X110478095Y-71282666D01*
X110478095Y-71473142D01*
X110716190Y-70711238D02*
X110716190Y-70996952D01*
X110716190Y-70854095D02*
X110216190Y-70854095D01*
X110287619Y-70901714D01*
X110335238Y-70949333D01*
X110359048Y-70996952D01*
X110216190Y-70544571D02*
X110216190Y-70235048D01*
X110406667Y-70401714D01*
X110406667Y-70330286D01*
X110430476Y-70282667D01*
X110454286Y-70258857D01*
X110501905Y-70235048D01*
X110620952Y-70235048D01*
X110668571Y-70258857D01*
X110692381Y-70282667D01*
X110716190Y-70330286D01*
X110716190Y-70473143D01*
X110692381Y-70520762D01*
X110668571Y-70544571D01*
X86546572Y-112494190D02*
X86379905Y-112256095D01*
X86260858Y-112494190D02*
X86260858Y-111994190D01*
X86451334Y-111994190D01*
X86498953Y-112018000D01*
X86522762Y-112041810D01*
X86546572Y-112089429D01*
X86546572Y-112160857D01*
X86522762Y-112208476D01*
X86498953Y-112232286D01*
X86451334Y-112256095D01*
X86260858Y-112256095D01*
X87022762Y-112494190D02*
X86737048Y-112494190D01*
X86879905Y-112494190D02*
X86879905Y-111994190D01*
X86832286Y-112065619D01*
X86784667Y-112113238D01*
X86737048Y-112137048D01*
X87451333Y-112160857D02*
X87451333Y-112494190D01*
X87332286Y-111970381D02*
X87213238Y-112327524D01*
X87522762Y-112327524D01*
X89868381Y-112541810D02*
X89820762Y-112518000D01*
X89773143Y-112470381D01*
X89701714Y-112398952D01*
X89654095Y-112375143D01*
X89606476Y-112375143D01*
X89630286Y-112494190D02*
X89582667Y-112470381D01*
X89535048Y-112422762D01*
X89511238Y-112327524D01*
X89511238Y-112160857D01*
X89535048Y-112065619D01*
X89582667Y-112018000D01*
X89630286Y-111994190D01*
X89725524Y-111994190D01*
X89773143Y-112018000D01*
X89820762Y-112065619D01*
X89844571Y-112160857D01*
X89844571Y-112327524D01*
X89820762Y-112422762D01*
X89773143Y-112470381D01*
X89725524Y-112494190D01*
X89630286Y-112494190D01*
X90320762Y-112494190D02*
X90035048Y-112494190D01*
X90177905Y-112494190D02*
X90177905Y-111994190D01*
X90130286Y-112065619D01*
X90082667Y-112113238D01*
X90035048Y-112137048D01*
X105040953Y-118082190D02*
X105040953Y-117582190D01*
X105160000Y-117582190D01*
X105231429Y-117606000D01*
X105279048Y-117653619D01*
X105302857Y-117701238D01*
X105326667Y-117796476D01*
X105326667Y-117867905D01*
X105302857Y-117963143D01*
X105279048Y-118010762D01*
X105231429Y-118058381D01*
X105160000Y-118082190D01*
X105040953Y-118082190D01*
X105564762Y-118082190D02*
X105660000Y-118082190D01*
X105707619Y-118058381D01*
X105731429Y-118034571D01*
X105779048Y-117963143D01*
X105802857Y-117867905D01*
X105802857Y-117677429D01*
X105779048Y-117629810D01*
X105755238Y-117606000D01*
X105707619Y-117582190D01*
X105612381Y-117582190D01*
X105564762Y-117606000D01*
X105540953Y-117629810D01*
X105517143Y-117677429D01*
X105517143Y-117796476D01*
X105540953Y-117844095D01*
X105564762Y-117867905D01*
X105612381Y-117891714D01*
X105707619Y-117891714D01*
X105755238Y-117867905D01*
X105779048Y-117844095D01*
X105802857Y-117796476D01*
X102485048Y-115542190D02*
X102485048Y-115042190D01*
X102770762Y-115542190D02*
X102556476Y-115256476D01*
X102770762Y-115042190D02*
X102485048Y-115327905D01*
X104802858Y-95730190D02*
X104802858Y-95230190D01*
X104921905Y-95230190D01*
X104993334Y-95254000D01*
X105040953Y-95301619D01*
X105064762Y-95349238D01*
X105088572Y-95444476D01*
X105088572Y-95515905D01*
X105064762Y-95611143D01*
X105040953Y-95658762D01*
X104993334Y-95706381D01*
X104921905Y-95730190D01*
X104802858Y-95730190D01*
X105564762Y-95730190D02*
X105279048Y-95730190D01*
X105421905Y-95730190D02*
X105421905Y-95230190D01*
X105374286Y-95301619D01*
X105326667Y-95349238D01*
X105279048Y-95373048D01*
X105874286Y-95230190D02*
X105921905Y-95230190D01*
X105969524Y-95254000D01*
X105993333Y-95277810D01*
X106017143Y-95325429D01*
X106040952Y-95420667D01*
X106040952Y-95539714D01*
X106017143Y-95634952D01*
X105993333Y-95682571D01*
X105969524Y-95706381D01*
X105921905Y-95730190D01*
X105874286Y-95730190D01*
X105826667Y-95706381D01*
X105802857Y-95682571D01*
X105779048Y-95634952D01*
X105755238Y-95539714D01*
X105755238Y-95420667D01*
X105779048Y-95325429D01*
X105802857Y-95277810D01*
X105826667Y-95254000D01*
X105874286Y-95230190D01*
X102485048Y-93190190D02*
X102485048Y-92690190D01*
X102770762Y-93190190D02*
X102556476Y-92904476D01*
X102770762Y-92690190D02*
X102485048Y-92975905D01*
D13*
X91057000Y-87778714D02*
X91057000Y-87421571D01*
X91271286Y-87850142D02*
X90521286Y-87600142D01*
X91271286Y-87350142D01*
X91271286Y-87100143D02*
X90521286Y-87100143D01*
X90521286Y-86921571D01*
X90557000Y-86814428D01*
X90628429Y-86743000D01*
X90699857Y-86707285D01*
X90842714Y-86671571D01*
X90949857Y-86671571D01*
X91092714Y-86707285D01*
X91164143Y-86743000D01*
X91235571Y-86814428D01*
X91271286Y-86921571D01*
X91271286Y-87100143D01*
X91271286Y-85957285D02*
X91271286Y-86385857D01*
X91271286Y-86171571D02*
X90521286Y-86171571D01*
X90628429Y-86243000D01*
X90699857Y-86314428D01*
X90735571Y-86385857D01*
X91057000Y-91444713D02*
X91057000Y-91087570D01*
X91271286Y-91516141D02*
X90521286Y-91266141D01*
X91271286Y-91016141D01*
X91271286Y-90766142D02*
X90521286Y-90766142D01*
X90521286Y-90587570D01*
X90557000Y-90480427D01*
X90628429Y-90408999D01*
X90699857Y-90373284D01*
X90842714Y-90337570D01*
X90949857Y-90337570D01*
X91092714Y-90373284D01*
X91164143Y-90408999D01*
X91235571Y-90480427D01*
X91271286Y-90587570D01*
X91271286Y-90766142D01*
X90592714Y-90051856D02*
X90557000Y-90016142D01*
X90521286Y-89944713D01*
X90521286Y-89766142D01*
X90557000Y-89694713D01*
X90592714Y-89658999D01*
X90664143Y-89623284D01*
X90735571Y-89623284D01*
X90842714Y-89658999D01*
X91271286Y-90087570D01*
X91271286Y-89623284D01*
X91057000Y-94890714D02*
X91057000Y-94533571D01*
X91271286Y-94962142D02*
X90521286Y-94712142D01*
X91271286Y-94462142D01*
X91271286Y-94212143D02*
X90521286Y-94212143D01*
X90521286Y-94033571D01*
X90557000Y-93926428D01*
X90628429Y-93855000D01*
X90699857Y-93819285D01*
X90842714Y-93783571D01*
X90949857Y-93783571D01*
X91092714Y-93819285D01*
X91164143Y-93855000D01*
X91235571Y-93926428D01*
X91271286Y-94033571D01*
X91271286Y-94212143D01*
X90521286Y-93533571D02*
X90521286Y-93069285D01*
X90807000Y-93319285D01*
X90807000Y-93212143D01*
X90842714Y-93140714D01*
X90878429Y-93105000D01*
X90949857Y-93069285D01*
X91128429Y-93069285D01*
X91199857Y-93105000D01*
X91235571Y-93140714D01*
X91271286Y-93212143D01*
X91271286Y-93426428D01*
X91235571Y-93497857D01*
X91199857Y-93533571D01*
M02*
